<?xml version="1.0" standalone="no"?>
<!DOCTYPE svg PUBLIC "-//W3C//DTD SVG 1.1//EN" "http://www.w3.org/Graphics/SVG/1.1/DTD/svg11.dtd" >
<svg xmlns="http://www.w3.org/2000/svg" xmlns:xlink="http://www.w3.org/1999/xlink" version="1.1">
<metadata>
Created by FontForge 20201107 at Fri Jan  5 12:40:07 2024
 By 
Copyright (c) 2018 by Calamar. All rights reserved.
</metadata>
<defs>
<font id="TPLeMajor-Regular" horiz-adv-x="340" >
  <font-face 
    font-family="TP Le Major"
    font-weight="400"
    font-stretch="normal"
    units-per-em="520"
    panose-1="0 0 0 0 0 0 0 0 0 0"
    ascent="416"
    descent="-104"
    x-height="465"
    cap-height="516"
    bbox="-400 -200 1010 800"
    underline-thickness="26"
    underline-position="-65"
    unicode-range="U+000D-E055"
  />
<missing-glyph horiz-adv-x="500" 
d="M300 38h-100v47h100v-47zM410 -200h-317v1000h317v-1000zM233 534h-33v36h33v-36zM167 118v-113h166v113h-166zM233 291v-56h34v23h33v-47h-100v80h-33v-113h166v113h-100zM167 604v-104h166v34h-66v70h-100zM167 473v-33h66v-37h-66v-33h100v70h66v33h-166zM300 413v-66
h-133v-34h166v100h-33zM168 733v-33h65v-37h-66v-33h166v33h-66v37h66v33h-165zM167 -18v-33h70l-70 -47v-33h166v33h-102l70 47h32v33h-166z" />
    <glyph glyph-name=".notdef" horiz-adv-x="500" 
d="M300 38h-100v47h100v-47zM410 -200h-317v1000h317v-1000zM233 534h-33v36h33v-36zM167 118v-113h166v113h-166zM233 291v-56h34v23h33v-47h-100v80h-33v-113h166v113h-100zM167 604v-104h166v34h-66v70h-100zM167 473v-33h66v-37h-66v-33h100v70h66v33h-166zM300 413v-66
h-133v-34h166v100h-33zM168 733v-33h65v-37h-66v-33h166v33h-66v37h66v33h-165zM167 -18v-33h70l-70 -47v-33h166v33h-102l70 47h32v33h-166z" />
    <glyph glyph-name=".null" horiz-adv-x="0" 
 />
    <glyph glyph-name=".null" horiz-adv-x="0" 
 />
    <glyph glyph-name="uni000D" unicode="&#xd;" horiz-adv-x="130" 
 />
    <glyph glyph-name="space" unicode=" " horiz-adv-x="200" 
 />
    <glyph glyph-name="exclam" unicode="!" horiz-adv-x="94" 
d="M40 465h34l-15 -293h-4zM57 111q-6 0 -11 5q-5 4 -5 11q0 8 5 12q5 5 11 5q5 0 12 -5q4 -4 4 -12q0 -7 -4 -11q-7 -5 -12 -5z" />
    <glyph glyph-name="quotedbl" unicode="&#x22;" horiz-adv-x="112" 
d="M32 369q-2 17 -4 30t-4 23q-4 19 -4 27q0 7 4 12q5 4 10 4t9 -4q5 -7 5 -12l-12 -80h-4zM76 369q-2 17 -4 30t-4 23q-4 19 -4 27q0 6 4 11t10 5t10 -5t4 -11l-12 -80h-4z" />
    <glyph glyph-name="numbersign" unicode="#" horiz-adv-x="348" 
d="M249 314l-22 -75h76v-21h-82l-32 -107h-11l32 107h-102l-32 -107h-11l32 107h-77v21h83l22 75h-80v21h86l36 122h11l-36 -122h103l36 122h11l-36 -122h72v-21h-79zM238 314h-102l-22 -75h102z" />
    <glyph glyph-name="dollar" unicode="$" horiz-adv-x="304" 
d="M166 327q22 -8 43.5 -18t38 -23t26.5 -30.5t10 -40.5q0 -24 -10.5 -42.5t-27 -31t-38 -20t-42.5 -9.5v-17h-9v16h-16v-16h-9v16q-10 0 -23.5 2t-27.5 5.5t-26.5 8.5t-20.5 12q-1 0 -4 1.5t-3 2.5l-7 47h4l3 -7q21 -53 79 -62q7 -1 13 -1.5t13 -0.5v183q-20 7 -38 15
t-32 18.5t-22.5 24t-8.5 30.5q0 19 10 32.5t25 22.5t32.5 14t33.5 6v20h9v-20h16v20h9v-20q22 -2 45.5 -9t41.5 -19q1 -1 4 -2.5t3 -2.5l9 -47h-4q-29 63 -99 72v-130zM48 399q0 -22 24.5 -35t59.5 -25v118q-14 -1 -29 -4.5t-27 -10.5t-20 -17.5t-8 -25.5zM141 118h8t8 1
v174q-9 4 -16 5v-180zM157 330v128h-16v-122zM268 206q0 16 -8.5 28.5t-22.5 22t-32.5 17.5t-38.5 15v-169q18 2 36 7.5t32.5 16t24 26t9.5 36.5z" />
    <glyph glyph-name="percent" unicode="%" horiz-adv-x="372" 
d="M100 293q-16 0 -31 7t-25.5 18.5t-17 27t-6.5 33.5q0 36 23.5 61t56.5 25t56.5 -25t23.5 -61q0 -18 -6.5 -33.5t-17 -27t-25 -18.5t-31.5 -7zM81 111l197 354h13l-197 -354h-13zM100 299q25 0 42.5 23t18.5 57q-1 33 -18.5 56.5t-42.5 23.5t-42.5 -23.5t-17.5 -56.5
q0 -34 17.5 -57t42.5 -23zM272 111q-33 0 -56.5 25t-23.5 61q0 35 23.5 60t56.5 25t56.5 -25t23.5 -60q0 -36 -23.5 -61t-56.5 -25zM272 116q25 0 42.5 23.5t17.5 56.5q0 34 -17.5 57t-42.5 23t-42.5 -23t-18.5 -57q1 -33 18.5 -56.5t42.5 -23.5z" />
    <glyph glyph-name="ampersand" unicode="&#x26;" 
d="M156 111q-20 0 -44 5.5t-44.5 19t-34 35t-13.5 53.5t15 53t33 34q21 15 48 24q-13 5 -24 14q-9 8 -16.5 19t-7.5 28t7.5 29.5t20 21.5t27.5 13.5t30 4.5q20 0 34.5 -4.5t24.5 -9.5q11 -7 19 -15l7 -37h-3q-8 23 -29.5 43t-52.5 20q-26 0 -45 -18t-19 -47q0 -22 16 -35.5
t35 -20.5l12 -5l-14 -5q-18 -8 -34 -18t-29 -23.5t-20.5 -31t-7.5 -38.5q0 -27 9.5 -46.5t24.5 -32.5t34.5 -19.5t39.5 -6.5q21 0 40.5 6.5t35 19.5t25 32t9.5 44q0 24 -11.5 41t-22.5 22q-4 -1 -10.5 -4t-13.5 -6.5t-13 -7t-9 -6.5q-9 -8 -8 -13.5t1 -15.5q0 -11 -8 -11
q-3 0 -6 3t-3 10q0 5 1 7q4 14 17 23t25 14q21 11 42.5 19t41.5 22q9 6 18.5 18t2.5 25q-1 2 -3 4t-4 6q-2 2 -2 4q0 3 2 7q7 7 15 -6q6 -11 2.5 -23t-11.5 -22q-10 -13 -23 -20.5t-27 -15.5q1 0 5.5 -5.5t10 -14.5t10 -21.5t4.5 -28.5q0 -26 -13 -46.5t-33 -34.5t-43 -21.5
t-43 -7.5z" />
    <glyph glyph-name="quotesingle" unicode="'" horiz-adv-x="68" 
d="M20 449q-2 9 3.5 12.5t10.5 3.5q6 0 11 -4t3 -12l-12 -80h-4z" />
    <glyph glyph-name="parenleft" unicode="(" horiz-adv-x="131" 
d="M104 111q-42 32 -63 81t-21 97q0 54 23.5 97.5t62.5 78.5l5 -7q-31 -28 -47.5 -76t-16.5 -98.5t16 -96t48 -70.5z" />
    <glyph glyph-name="parenright" unicode=")" horiz-adv-x="130" 
d="M20 118q21 16 35 42.5t21 58t7 65.5t-7 66.5t-21 60.5t-35 47l4 7q40 -35 63 -78.5t23 -97.5q0 -48 -21.5 -97t-63.5 -81z" />
    <glyph glyph-name="asterisk" unicode="*" horiz-adv-x="124" 
d="M31 408q9 2 17 5t13 5q-5 2 -13 4.5t-17 4.5q-11 3 -11 10q0 8 8 8q5 0 12 -8q9 -11 21 -17q-1 5 -1 9q-1 4 -1.5 8t-1.5 6q-3 9 -3 13q0 3 2 7q4 2 6 2q8 0 8 -9q0 -3 -3 -12q-2 -5 -3 -11.5t0 -13.5q5 4 7.5 6.5t4.5 3.5q3 3 4 5q9 9 11 10q1 1 5 1q8 0 8 -8t-10 -9
q-16 -3 -30 -10q5 -2 11 -4q5 -2 10 -3.5t9 -3.5q10 -1 10 -9q0 -4 -3 -7q-4 -2 -5 -2q-5 0 -13 10q-2 3 -5.5 6t-6.5 5t-7 5q0 -5 1 -10q0 -9 2 -15q4 -8 4 -11q0 -10 -10 -10q-3 0 -5 3q-3 3 -3 7q1 2 1 4q1 2 3 10q3 8 3 14q1 4 1 8q-5 -2 -10 -6.5t-10 -9.5
q-8 -10 -13 -10q-4 0 -6 3q-2 1 -2 5q0 8 11 11z" />
    <glyph glyph-name="plus" unicode="+" horiz-adv-x="160" 
d="M75 283h-55v10h55v54h10v-54h55v-10h-55v-54h-10v54z" />
    <glyph glyph-name="comma" unicode="," horiz-adv-x="82" 
d="M26 77q-3 0 -3 2t3 2q26 6 26 26q0 8 -3 12l-2 -3q-4 -5 -11 -5q-8 0 -12 5q-4 4 -4 11q0 6 3 10q5 5 10 6q13 3 23 -7q6 -7 6 -20q0 -15 -10 -27t-26 -12z" />
    <glyph glyph-name="hyphen" unicode="-" horiz-adv-x="154" 
d="M134 282h-114v12h114v-12z" />
    <glyph glyph-name="period" unicode="." horiz-adv-x="72" 
d="M36 111q-6 0 -11 5q-5 4 -5 11q0 8 5 12q5 5 11 5q5 0 12 -5q4 -4 4 -12q0 -7 -4 -11q-7 -5 -12 -5z" />
    <glyph glyph-name="slash" unicode="/" horiz-adv-x="230" 
d="M20 111l197 354h13l-197 -354h-13z" />
    <glyph glyph-name="zero" unicode="0" horiz-adv-x="292" 
d="M148 111q-10 0 -14 1l-13 2l-12 4l-23 13l-20 19l-9 11q-37 50 -37 129q0 28 7.5 59t22.5 56.5t39 42.5t57 17t57 -17t39 -42.5t22.5 -56.5t7.5 -59q0 -79 -37 -129l-14 -17l-11 -10l-22 -14l-25 -8q-4 0 -7.5 -0.5t-7.5 -0.5zM146 118q45 0 70 45t25 129q0 83 -25 124
t-70 42q-45 -1 -70 -42t-25 -124q0 -84 25 -129t70 -45z" />
    <glyph glyph-name="one" unicode="1" horiz-adv-x="134" 
d="M38 113q8 0 12.5 6.5t6.5 12.5q3 12 3 25v264l-1 4q0 3 -6 3l-33 -3v3l2 1q13 2 26 6.5t23 12.5q5 4 11 10t6 7h4v-317q0 -12 6.5 -23.5t15.5 -11.5v-2h-76v2z" />
    <glyph glyph-name="two" unicode="2" horiz-adv-x="270" 
d="M20 116q24 20 44 38l34 30t23 21q35 32 54 60t28 51t9 42t-4 33q-8 25 -30 44.5t-55 19.5q-25 0 -46.5 -10.5t-38.5 -28.5l-2 2q9 11 18 17q20 15 38.5 22.5t44.5 7.5q43 0 74.5 -24.5t31.5 -71.5q0 -23 -10 -44t-25 -40.5t-33.5 -37t-36.5 -34.5q-19 -18 -37 -35
t-48 -43h58h48t39.5 2t29.5 8.5t18 19.5h4l-11 -54h-219v5z" />
    <glyph glyph-name="three" unicode="3" horiz-adv-x="246" 
d="M20 86q32 0 63 10.5t55.5 29.5t40 47t15.5 62q0 20 -7 33.5t-18.5 21.5t-26 11t-29.5 3q-14 0 -23 -3q-6 -1 -10 -3l-1 3q23 10 41 25q16 12 28.5 30.5t12.5 42.5q0 16 -6 26t-15 15.5t-19.5 7.5t-20.5 2q-15 0 -37.5 -9.5t-39.5 -27.5l-2 2q13 14 28 25q13 10 30.5 17.5
t37.5 7.5q38 0 57 -17.5t19 -37.5q0 -21 -11 -38.5t-25 -29.5q-17 -14 -37 -25v-1q9 2 18.5 1.5t18.5 -1.5q17 -2 33 -10t25 -24q15 -25 10 -56.5t-20 -54.5q-15 -24 -35.5 -40.5t-45 -27t-51.5 -15.5t-53 -5v3z" />
    <glyph glyph-name="four" unicode="4" horiz-adv-x="290" 
d="M167 113q8 0 12.5 6.5t6.5 12.5q4 11 4 25v39h-170v10l196 259h6v-34l-1 -22v-13l1 -108v-85h48v-7h-48l-1 -27v-21q0 -12 6.5 -23.5t16.5 -12.5v-1h-77v2zM190 203v214l-162 -214h162z" />
    <glyph glyph-name="five" unicode="5" horiz-adv-x="290" 
d="M20 85q29 0 53.5 5.5t43.5 13.5q18 9 34.5 23t29 32t19.5 39t7 42t-11 34.5t-27.5 20.5t-36 9.5t-37.5 2.5q-12 0 -21.5 -0.5t-16.5 -1.5l-9 -1l31 159h47h48.5t41 2t31.5 8.5t19 19.5h4l-11 -54l-177 -1l-21 -107l2 1q71 7 111 -8.5t54 -38.5q8 -12 9.5 -27.5t-0.5 -31
t-7.5 -30.5t-12.5 -27q-15 -24 -37.5 -40.5t-49.5 -27t-55.5 -15.5t-54.5 -5v4z" />
    <glyph glyph-name="six" unicode="6" horiz-adv-x="278" 
d="M90 119q-23 12 -37.5 32.5t-22 44t-9.5 49t-1 48.5q3 49 21.5 86t48.5 61.5t70 36.5t86 12v-4q-29 0 -53.5 -5.5t-43.5 -13.5q-37 -17 -63 -53.5t-29 -79.5q12 14 38 25t52 11q49 0 79 -30.5t32 -78.5q2 -42 -14 -79q-15 -34 -43 -54t-62 -20q-12 0 -24 2.5t-25 9.5z
M137 111q28 0 45.5 14.5t27 36.5t13 47.5t3.5 47.5q0 20 -4.5 39t-14 34t-25.5 24.5t-39 9.5q-29 0 -53 -12.5t-35 -28.5q-3 -41 -0.5 -79t12.5 -67.5t27.5 -47.5t42.5 -18z" />
    <glyph glyph-name="seven" unicode="7" horiz-adv-x="276" 
d="M30 465h226l-12 -19h-81h-48.5t-40.5 -2.5t-31 -8.5t-19 -19h-4zM256 465l-179 -354h-31z" />
    <glyph glyph-name="eight" unicode="8" horiz-adv-x="288" 
d="M143 111q-15 0 -33.5 3t-35.5 10t-30.5 18.5t-19.5 27.5q-8 21 -2.5 40t19 34.5t31.5 27.5t35 21l10 5l-10 4q-10 5 -23 12t-24 16.5t-18.5 22t-7.5 28.5q0 21 11.5 37t28.5 26.5t37 15.5t38 5q17 0 35 -4.5t33.5 -13.5t25.5 -23t10 -34q0 -26 -22.5 -44t-57.5 -33
l-12 -5q17 -6 36 -16.5t34.5 -24.5t26 -30.5t10.5 -35.5q0 -25 -13 -42t-32 -27.5t-40.5 -15.5t-39.5 -5zM161 316q12 6 25 12t24 14.5t18 20t7 27.5q0 10 -5 22t-16 23t-27 18.5t-39 7.5q-22 0 -38 -7.5t-27 -18.5t-16.5 -23.5t-5.5 -21.5q0 -15 9.5 -27t23.5 -22t29 -16.5
t27 -10.5l3 -1zM239 193q0 20 -11 35.5t-27.5 27.5t-35 21t-34.5 15l-6 2l-8 -4q-15 -8 -29 -19t-24.5 -25t-15 -30t-0.5 -35q8 -32 36 -49.5t60 -17.5q17 0 33.5 5.5t30.5 15.5t22.5 25t8.5 33z" />
    <glyph glyph-name="nine" unicode="9" horiz-adv-x="278" 
d="M32 87q57 0 97 19q37 17 63 53.5t29 79.5q-12 -14 -38 -25t-52 -11q-49 0 -79 30t-32 79q-2 42 14 78q15 34 43 54.5t61 20.5q25 0 50 -13q23 -12 37.5 -32t22 -43.5t9.5 -49t1 -48.5q-3 -49 -21.5 -86t-48.5 -61.5t-70 -36.5t-86 -12v4zM135 208q29 0 53 12.5t35 28.5
q3 41 0.5 79t-12.5 67.5t-27 47.5t-43 18q-28 0 -45 -14.5t-27 -36.5t-13.5 -47.5t-3.5 -47.5q0 -20 4.5 -39t14 -34t25.5 -24.5t39 -9.5z" />
    <glyph glyph-name="colon" unicode=":" horiz-adv-x="72" 
d="M36 257q-7 0 -11 5q-5 4 -5 11q0 8 5 12q4 4 11 4t12 -4q4 -5 4 -12q0 -16 -16 -16zM36 111q-6 0 -11 5q-5 4 -5 11q0 8 5 12q5 5 11 5q5 0 12 -5q4 -4 4 -12q0 -7 -4 -11q-7 -5 -12 -5z" />
    <glyph glyph-name="semicolon" unicode=";" horiz-adv-x="82" 
d="M26 111q-3 0 -3 2t3 2q26 6 26 26q0 8 -3 12l-2 -3q-5 -5 -11 -5q-16 0 -16 16q0 7 3 11q6 4 10 5q13 5 23 -7q6 -7 6 -20q0 -22 -16 -32q-14 -7 -20 -7zM41 257q-6 0 -11 5q-5 4 -5 12q0 7 5 11q5 5 11 5q5 0 12 -5q4 -4 4 -11q0 -8 -4 -12q-7 -5 -12 -5z" />
    <glyph glyph-name="less" unicode="&#x3c;" horiz-adv-x="166" 
d="M146 209l-126 81l126 77v-13l-106 -64l106 -68v-13z" />
    <glyph glyph-name="equal" unicode="=" horiz-adv-x="160" 
d="M20 319h120v-10h-120v10zM20 291h120v-10h-120v10z" />
    <glyph glyph-name="greater" unicode="&#x3e;" horiz-adv-x="166" 
d="M20 222l106 68l-106 64v13l126 -77l-126 -81v13z" />
    <glyph glyph-name="question" unicode="?" horiz-adv-x="270" 
d="M121 172q-1 7 4 18q4 9 13 24t29 35q38 47 47 81.5t-1 61.5q-11 29 -33.5 44.5t-58.5 15.5q-25 0 -43 -8.5t-36 -27.5l-2 2q3 4 6.5 7.5l7.5 7.5q20 17 39 24.5t45 7.5q21 0 41.5 -6.5t36 -18.5t25 -30t9.5 -41q0 -27 -13 -51t-30 -44q-11 -14 -24 -26t-25 -25
q-11 -11 -20 -24.5t-9 -26.5h-8zM124 111q-7 0 -11 5q-5 5 -5 11q0 7 5 12t12 5q6 0 11 -5q5 -7 5 -12q0 -6 -5 -11q-4 -5 -12 -5z" />
    <glyph glyph-name="at" unicode="@" horiz-adv-x="436" 
d="M218 58q-36 0 -71.5 12t-63.5 36t-45.5 59.5t-17.5 81.5q0 47 16.5 85.5t45 66.5t66.5 43.5t80 15.5t76.5 -12.5t59.5 -35t38.5 -55t13.5 -71.5q0 -33 -12.5 -62.5t-40.5 -49.5q-13 -8 -28.5 -14t-31.5 -6q-11 0 -21.5 3.5t-15.5 12.5v2q-4 5 -4.5 12t-0.5 14
q-8 -18 -22.5 -29.5t-34.5 -11.5q-13 0 -26 5q-17 8 -26 22t-10.5 30t2.5 33t13 31q13 20 35 37t48 17l8 -1q7 0 14 -4q18 -7 23 -29l9 29h23l-32 -106q-2 -9 -5 -24.5t1 -23.5q5 -13 24 -13q24 0 43.5 11t33.5 29t22 40t8 44q0 39 -14 70.5t-39 54.5t-59 35.5t-73 12.5
t-75.5 -15.5t-65 -43.5t-45.5 -66t-17 -83t18.5 -79.5t47 -58t62.5 -35.5t66 -12t59 8t47 18q24 11 43 26l3 -3q-17 -15 -40 -26q-20 -11 -48 -19t-64 -8zM252 200l5 13q4 9 7 18l6 18q4 13 6.5 29.5t-4.5 28.5q-9 13 -24 13q-17 0 -34.5 -13.5t-25.5 -27.5
q-11 -17 -17 -37.5t-4 -41.5q2 -14 10.5 -25t25.5 -11t29 10.5t20 25.5z" />
    <glyph glyph-name="A" unicode="A" horiz-adv-x="444" 
d="M400 94q4 -12 11 -23t13 -11v-2h-64v2q7 0 10.5 7t-1.5 22q-5 14 -12.5 37t-18.5 52h-1q-17 47 -52.5 72.5t-86.5 25.5q-15 0 -31.5 -1.5t-35.5 -6.5q-2 0 -2.5 -0.5t-2.5 -0.5q-6 -18 -15.5 -45t-18.5 -53t-16 -47.5t-9 -28.5q-3 -10 -3 -18q0 -15 9 -15v-2h-39v2
q7 0 13.5 9t11.5 24q3 8 10 29t15.5 47t17.5 52t15 44q-45 -10 -67 -15.5t-37.5 -9t-35 -8t-60.5 -13.5q-32 -7 -61 -7q-30 0 -60 9.5t-57.5 26t-50.5 38.5t-38 47h1q29 -48 77.5 -76t104.5 -28q25 0 54 6l214 49q7 2 13 3l12 2q14 39 29.5 79t28.5 72q15 38 29 73h33
q36 -94 67 -176q13 -35 26.5 -71t25 -68.5t21 -59.5t14.5 -44zM333 192q-17 48 -37.5 102t-38.5 100l-40 106q-13 -33 -27 -69q-12 -30 -26.5 -67t-28.5 -73q23 3 41 3q52 0 93.5 -28t63.5 -74z" />
    <glyph glyph-name="B" unicode="B" horiz-adv-x="388" 
d="M149 -78q-44 0 -82 15t-66.5 41.5t-44.5 63.5t-16 82q0 33 10.5 63.5t29 56t44 45t56.5 29.5v149q0 19 -7 33q-6 11 -16 11v2h55q13 0 28 -0.5t29 -1t26 -1.5t19 -3q24 -5 47 -23t23 -53q0 -26 -12 -41.5t-27 -24.5t-27 -12l-12 -3q33 0 64 -13.5t55 -39t38.5 -63.5
t14.5 -87q0 -52 -20.5 -93.5t-53 -71t-73.5 -45t-82 -15.5zM145 352q20 1 39 4.5t34 12t24.5 23.5t9.5 39q0 27 -10 42.5t-30 23.5q-9 4 -24.5 6t-31.5 2.5t-29 0.5h-15v-154h33zM149 -76q56 0 93.5 22t60.5 55.5t33 73t10 73.5q0 54 -17 91.5t-44.5 60.5t-61.5 33.5
t-69 10.5h-42v-19q6 1 12 1h13v-2h-13t-12 -2v-127q0 -11 6.5 -22.5t15.5 -11.5v-2h-77v2q7 0 11.5 5t7 12t3.5 14.5t1 12.5v110q-30 -10 -55.5 -29t-44 -44.5t-28.5 -55.5t-10 -62q0 -44 16 -80.5t44 -63t66 -41.5t81 -15z" />
    <glyph glyph-name="C" unicode="C" horiz-adv-x="370" 
d="M17 285q0 54 13 104.5t40.5 90t71 63.5t103.5 24q29 0 51 -6t37 -13q17 -9 29 -20l10 -54h-4q-6 12 -15 27t-20 23q-45 35 -92 35q-18 0 -33 -4q-57 -16 -92.5 -62t-51 -105t-10.5 -123.5t30 -116.5q32 -68 89 -108.5t133 -40.5q40 0 83 13l1 -3q-21 -7 -43 -10t-43 -3
q-63 0 -115.5 21t-90.5 59.5t-59.5 91.5t-21.5 117z" />
    <glyph glyph-name="D" unicode="D" horiz-adv-x="412" 
d="M26 60v2q9 0 15 12q7 12 7 32v318q0 5 -1 12t-3.5 14.5t-7 12.5t-10.5 5v2h76v-2q-9 0 -15.5 -11.5t-6.5 -22.5v-368l47 -1q55 -1 99.5 19t75.5 55.5t48 84.5t17 105q0 60 -19.5 108.5t-53 82.5t-77.5 52t-94 18q-64 0 -116 -24.5t-82 -86.5q-17 -35 -19.5 -74t9.5 -77
t36.5 -67.5t59.5 -46.5l-1 -2q-35 17 -59.5 46.5t-37.5 68.5q-13 38 -10 78t20 75q31 63 82.5 88.5t117.5 25.5q62 0 113.5 -19.5t89 -54.5t58.5 -84.5t21 -108.5q0 -36 -16.5 -82.5t-50.5 -87.5t-87 -69t-126 -28h-99z" />
    <glyph glyph-name="E" unicode="E" horiz-adv-x="290" 
d="M56 122q8 11 8 28v301q0 24 -1.5 34.5t-4.5 16.5q-7 12 -16 12v2h237l8 -37h-4q-6 13 -20.5 19t-34 8.5t-43.5 2t-50 -0.5h-39v-209h98q20 0 31 7t11 14h4v-51h-4v2q0 7 -11.5 14t-30.5 7h-98v-168q-11 1 -20.5 0.5t-19.5 -2.5zM357 -1q-26 11 -42.5 18t-28 11.5t-21.5 9
t-23.5 10t-33.5 14t-53 21.5q-57 23 -96 23q-32 0 -58 -14l-1 2q40 25 85 25q43 0 103 -24l202 -84q47 -19 87 -19q47 0 88.5 21t73.5 55l1 -1q-17 -19 -39 -35t-47.5 -28t-52 -18.5t-52.5 -6.5q-42 0 -92 20z" />
    <glyph glyph-name="F" unicode="F" horiz-adv-x="290" 
d="M208 461q-30 -12 -55.5 -18.5t-48.5 -6.5t-43.5 6.5t-40.5 18.5l1 3q26 -14 58 -14q43 0 96 23q33 13 53 21.5t33.5 14t23.5 9.5t21.5 9t28 11.5t42.5 17.5q27 11 49.5 15.5t43.5 4.5q26 0 52.5 -6.5t51 -18t46.5 -27.5t40 -35l-1 -1q-32 34 -73.5 55t-88.5 21
q-40 0 -87 -19zM48 62q7 0 11.5 5t6.5 12t3 14.5t1 12.5v313v9t-1 8q15 -4 33 -4v-142h88q20 0 31.5 6.5t11.5 14.5h4v-51h-4v1q0 8 -11.5 14.5t-31.5 6.5h-88v-185q0 -12 6.5 -23.5t15.5 -11.5v-2h-76v2z" />
    <glyph glyph-name="G" unicode="G" horiz-adv-x="388" 
d="M357 297q8 6 22 11.5t29 5.5v-2q-14 0 -26 -5t-23 -13q-17 -12 -19.5 -33.5t-2.5 -54.5l-2 -130q0 -22 -10 -45.5t-25.5 -43t-35 -32t-38.5 -12.5v2q17 0 31.5 9.5t24.5 26t15.5 37.5t5.5 44l1 68q-22 -10 -47 -14.5t-49 -4.5q-47 0 -86.5 18.5t-66.5 57.5
q-16 22 -25.5 52.5t-9.5 78.5q0 39 14 75.5t38.5 64.5t59 44.5t75.5 16.5q30 0 52.5 -5t37.5 -11q17 -7 29 -16l10 -48h-5q-5 11 -14.5 25.5t-19.5 21.5q-19 14 -41 21t-45 7q-31 0 -56.5 -10t-44 -28t-31.5 -42.5t-21 -52.5q-10 -38 -7.5 -79.5t16.5 -78.5q18 -49 56 -78
t90 -29q31 0 49.5 6t41.5 26v44q1 38 15.5 63t37.5 42z" />
    <glyph glyph-name="H" unicode="H" horiz-adv-x="352" 
d="M512 711q-38 -6 -66 -18.5t-53 -32.5q-32 -26 -48.5 -61t-23 -74t-6.5 -79.5v-78.5v-210q0 -6 0.5 -12.5t2.5 -12.5l2 -5q2 -5 6.5 -9.5t10.5 -4.5v-2h-76v1q9 1 15.5 12.5t6.5 23.5v90q-30 0 -50 7.5t-37 16.5q-18 9 -39 16.5t-54 7.5q-8 0 -13 -0.5t-10 -1.5
q0 -27 0.5 -54t0.5 -54q0 -41 -4.5 -77t-16 -68.5t-32.5 -61t-54 -53.5q-26 -20 -57 -33.5t-66 -18.5l-1 2q38 6 66 18.5t53 32.5q32 26 48.5 61t23 74t6.5 79.5v77.5v211q0 6 -0.5 12.5t-2.5 11.5l-2 6q-2 5 -6.5 9.5t-10.5 4.5v2h76v-2q-9 0 -15.5 -12t-6.5 -23v-19v-59
t1 -59q5 1 10.5 1.5t12.5 0.5q35 0 56.5 -8t41.5 -18q17 -9 35 -16t47 -7q-1 39 -1 78t-1 78q0 39 4.5 75.5t16 69.5t32.5 61.5t54 52.5q26 20 57 34t66 19z" />
    <glyph glyph-name="I" unicode="I" horiz-adv-x="116" 
d="M20 60q7 0 11 5t6.5 12t3.5 14.5t1 12.5v365q0 13 -3 25q-2 6 -6.5 13t-12.5 7v2h76v-2q-9 0 -15.5 -12t-6.5 -23v-384q0 -11 6.5 -23t15.5 -12v-2h-76v2z" />
    <glyph glyph-name="J" unicode="J" horiz-adv-x="136" 
d="M-130 -79q-44 0 -82 15t-66.5 42t-45 64t-16.5 82q0 40 15.5 76.5t42.5 64.5t62.5 44.5t76.5 16.5v-2q-40 0 -75 -16.5t-61.5 -44t-42 -64t-15.5 -75.5q0 -44 16 -81t44 -63.5t65.5 -41t81.5 -14.5q27 0 52 8.5t47 23.5t39 36t28 45q22 51 24 109.5t2 112.5v210
q0 14 -4 25l-2 6q-2 5 -6.5 9.5t-10.5 4.5v2h77v-2q-10 0 -16.5 -12t-6.5 -23v-20q0 -59 0.5 -117t1.5 -117q0 -37 -3.5 -70.5t-13 -64t-27 -58.5t-46.5 -54q-28 -25 -62.5 -41t-72.5 -16z" />
    <glyph glyph-name="K" unicode="K" horiz-adv-x="322" 
d="M448 -85q-36 6 -66 22.5t-54 40.5t-42.5 54t-30.5 63l-70 179q-8 20 -19.5 41t-34.5 27q-4 2 -7 1l-50 -53v-142q0 -12 6.5 -23.5t15.5 -11.5v-2h-76v2q8 0 15 10q7 14 7 34v312q0 13 -3 25q-2 6 -6.5 13t-12.5 7v2h76v-2q-7 0 -14 -9l-3 -5q-5 -12 -5 -21v-178l171 183
q8 8 3.5 19t-16.5 11v1h70v-1q-17 0 -35 -18l-141 -151q34 -1 56.5 -18.5t37.5 -49.5q26 -54 45 -111.5t43 -107.5t57.5 -87.5t87.5 -52.5q30 -9 59 -9q33 0 69 10l1 -2q-34 -10 -70 -10q-17 0 -32.5 2t-31.5 6z" />
    <glyph glyph-name="L" unicode="L" horiz-adv-x="226" 
d="M62 105q8 13 8 27v28v309q0 13 -3 25q-2 6 -6.5 13t-12.5 7v2h76v-2q-9 0 -15.5 -12t-6.5 -23v-373q-20 1 -41 -2zM363 -19q-27 11 -43.5 18t-28 11.5t-21.5 9t-23.5 10t-33.5 14t-53 21.5q-57 23 -96 23q-42 0 -71.5 -21.5t-50.5 -55.5h-2q23 39 63 64.5t87 25.5
q43 0 103 -24l202 -84q47 -19 87 -19q46 0 89 21t73 55l2 -1q-18 -19 -40.5 -35t-47.5 -28t-52 -18.5t-53 -6.5q-40 0 -90 20z" />
    <glyph glyph-name="M" unicode="M" horiz-adv-x="456" 
d="M468 -14q36 0 78 13v-2q-20 -8 -41 -11t-41 -3q-49 0 -88.5 14t-71.5 39t-57 60t-46 77q-18 38 -29 61t-19 40t-14.5 30.5t-15.5 32.5t-22 46.5t-34 70.5l-17 -307q-1 -34 17 -34v-2h-42v2h1q10 0 13 13t3 21l17 322q-17 35 -36.5 65t-45 52t-57 34t-72.5 12
q-36 0 -78 -13v2q39 13 81 13q141 0 218 -118h1v-1q10 -16 19.5 -33.5t19.5 -37.5q27 -56 54.5 -113.5t56.5 -117.5l122 303h54v-2q-9 0 -15.5 -6.5t-6.5 -15.5q4 -67 7 -129q2 -27 3.5 -55t3 -54t3 -49.5t2.5 -41.5q2 -24 8.5 -37t14.5 -13h1v-2h-79v2q9 0 17 13t7 38
l-19 332v1l-119 -293l24 -50q17 -35 38 -65.5t48 -53.5t60 -36t74 -13z" />
    <glyph glyph-name="N" unicode="N" horiz-adv-x="400" 
d="M640 -24q-39 -13 -82 -13q-50 0 -88 15t-68.5 40.5t-56.5 60t-51 74.5q-27 42 -45 71t-37.5 58t-44.5 66t-65 94l-40 55l1 -343q0 -17 4 -29t15 -12v-2h-48v2h2q11 0 14.5 12.5t3.5 26.5l-1 356q-18 23 -36 38.5t-37.5 25.5t-42.5 14t-51 4q-17 0 -36 -2.5t-39 -9.5l-1 2
q39 13 82 13q14 0 26.5 -1.5t25.5 -3.5q34 -6 57.5 -14t45 -24.5t45 -45t56.5 -75.5q30 -42 51.5 -73.5t41.5 -62t41 -63.5t49 -78v323q0 14 -3.5 26.5t-14.5 12.5h-2v2h48v-2q-11 0 -14.5 -12t-3.5 -29l-1 -313v-22l3 -5q20 -32 41.5 -62.5t47 -54t57.5 -37.5t73 -14
q37 0 77 13z" />
    <glyph glyph-name="O" unicode="O" horiz-adv-x="466" 
d="M238 60q-47 0 -88.5 18t-72.5 49t-49 72.5t-18 88.5t18 88.5t49 72.5t72.5 49t88.5 18t88.5 -18t72.5 -49t49 -72.5t18 -88.5t-18 -88.5t-49 -72.5t-72.5 -49t-88.5 -18zM238 69q40 0 75.5 17t61.5 47t41.5 70t15.5 85t-15.5 84.5t-41.5 69.5t-61.5 47t-75.5 17
t-75.5 -17t-61.5 -47t-41.5 -69.5t-15.5 -84.5t15.5 -85t41.5 -70t61.5 -47t75.5 -17z" />
    <glyph glyph-name="P" unicode="P" horiz-adv-x="370" 
d="M33 60q7 0 11.5 5t6.5 12t3 14.5t1 12.5v366q0 5 -1 12.5t-3.5 14.5t-6.5 12t-11 5v2h76v-2q-8 0 -15 -11.5t-7 -31.5l1 -246h41q94 0 146 50.5t52 146.5q0 44 -13.5 83.5t-38 69t-59 46.5t-77.5 16t-81 -15.5t-65.5 -41t-43.5 -63t-16 -81.5q0 -51 25 -96.5t69 -72.5v-3
q-21 12 -39 31.5t-31 42.5t-20 48.5t-7 49.5q0 45 16.5 82t45 64t66.5 42t82 15q54 0 95.5 -18.5t69 -49t41.5 -70t14 -82.5q0 -32 -8.5 -62t-24.5 -50q-39 -51 -89 -69t-111 -18h-40v-125q0 -12 6.5 -23.5t15.5 -11.5v-2h-76v2z" />
    <glyph glyph-name="Q" unicode="Q" horiz-adv-x="494" 
d="M784 -3q-32 -20 -69.5 -30.5t-75.5 -10.5q-60 0 -107.5 23t-89.5 65l-25 27q-9 9 -18 17t-18 15q-28 -20 -61.5 -31.5t-71.5 -11.5q-47 0 -88.5 18t-72.5 49t-49 72.5t-18 88.5t18 88.5t49 72.5t72.5 49t88.5 18t88.5 -18t72.5 -49t49 -72.5t18 -88.5q0 -51 -20 -94.5
t-55 -74.5q16 -10 31 -22.5t32 -28.5l26 -28q81 -79 163 -79q37 0 67.5 9t61.5 29zM54 288q0 -54 21.5 -99.5t56.5 -75.5q33 20 70 30t75 10q23 0 43.5 -3.5t40.5 -11.5l20 -9q29 30 45 70.5t16 88.5q0 45 -15.5 84.5t-41.5 69.5t-61.5 47t-75.5 17t-75.5 -17t-61.5 -47
t-41.5 -69.5t-15.5 -84.5zM248 69q33 0 63 12t55 33q-26 18 -52.5 26t-52.5 8q-36 0 -66.5 -9t-61.5 -28q25 -20 54 -31t61 -11z" />
    <glyph glyph-name="R" unicode="R" horiz-adv-x="376" 
d="M429 -32q-26 7 -46 18t-36.5 25t-31 31.5t-30.5 37.5q-19 26 -37.5 52t-38.5 52q-12 17 -24.5 25t-32.5 10l-15 1h-51v-73q0 -11 6.5 -23t15.5 -12v-2h-76v2q7 0 11.5 5t6.5 12.5t3 15t1 12.5v312q0 5 -1 12.5t-3 15t-6.5 12.5t-11.5 5v2h76v-2q-8 0 -15 -11.5t-7 -22.5
l1 -255h41q41 0 75 10q8 3 16.5 6t16.5 7q8 5 15 9.5t15 10.5q17 13 28.5 31.5t18.5 39t10 42.5t3 41q0 44 -13.5 83t-38 68t-59 46t-76.5 17q-43 0 -81 -15t-66 -41.5t-44 -63t-16 -80.5q0 -54 25.5 -97.5t68.5 -72.5v-2q-45 26 -70.5 73.5t-25.5 98.5q0 44 16 81.5
t44.5 64.5t66.5 42t82 15q54 0 95.5 -18.5t69 -49t41.5 -70t14 -82.5q0 -40 -14 -74t-38 -59.5t-57 -41.5t-72 -20l4 -1q20 -2 38 -11.5t31 -26.5q16 -21 30.5 -41.5t29.5 -41.5l18 -25q20 -25 38 -46.5t39 -36.5t46 -23.5t59 -8.5q38 0 84 15l1 -2q-23 -8 -48 -12t-49 -4
q-22 0 -42 3z" />
    <glyph glyph-name="S" unicode="S" horiz-adv-x="338" 
d="M86 -90q-45 0 -83 14t-65.5 39t-42.5 59.5t-15 74.5q0 37 14.5 70.5t39 59.5t58 41.5t70.5 15.5v-2q-37 0 -70 -15.5t-57.5 -41t-38.5 -59t-14 -69.5q0 -43 17 -77t45 -58t65 -36.5t77 -12.5q54 0 93 18t64.5 46.5t37.5 63.5t12 70q0 45 -20 78.5t-49.5 60.5t-64.5 49
t-64.5 42t-49.5 40t-20 44q0 23 10 40t25.5 28t35.5 16.5t40 5.5q38 0 76 -16q5 -2 9.5 -4.5t9.5 -5.5q1 -1 3.5 -2t2.5 -2l8 -44h-4q-4 8 -9 17t-10 14q-14 18 -39.5 27t-51.5 9q-15 0 -30 -5.5t-26 -15t-18 -23t-7 -29.5q0 -17 20.5 -34t51.5 -36t67 -42.5t67 -54.5
t51.5 -70.5t20.5 -91.5q0 -31 -15 -65.5t-45 -63.5t-75.5 -48t-106.5 -19z" />
    <glyph glyph-name="T" unicode="T" horiz-adv-x="226" 
d="M576 538l-2 -1q-30 34 -73.5 55t-88.5 21q-40 0 -87 -19l-190 -79v-367q0 -12 6.5 -23.5t16.5 -12.5v-1h-77v2q7 0 11.5 5t7 12t3.5 14.5t1 12.5v345q-45 -16 -83 -16q-46 0 -87 25.5t-64 64.5h2q21 -34 50.5 -55.5t71.5 -21.5q39 0 96 23q33 13 53 21.5t33.5 14t23.5 10
t21.5 9t28 11.5t43.5 18q50 20 90 20q26 0 53 -6.5t52 -18.5t47.5 -28t40.5 -35z" />
    <glyph glyph-name="U" unicode="U" horiz-adv-x="388" 
d="M213 75q-32 0 -62 8t-53 25t-37 44t-14 65v177q0 38 -1 87t-8.5 98t-23.5 91.5t-46 66.5q-25 20 -52.5 32.5t-65.5 18.5v2q50 -8 98 -35t78 -69q17 -22 27 -55t16 -68.5t8 -70.5t2 -62q0 -55 -0.5 -110t-0.5 -110q0 -62 36.5 -95t98.5 -33q30 0 54.5 12.5t41.5 31.5
t26 41.5t9 42.5v281q-2 9 -5 16t-11 7h-1v2h41v-2q-9 0 -12.5 -10.5t-3.5 -25.5v-264q0 -28 -11 -53t-30 -44t-44 -30.5t-54 -11.5z" />
    <glyph glyph-name="V" unicode="V" horiz-adv-x="386" 
d="M386 516v-2q-14 0 -25 -34q-6 -16 -15.5 -43t-21.5 -59.5t-25.5 -69t-26.5 -71.5q-31 -82 -67 -176h-32l-13 29v1l-9 22q-18 45 -32 81.5t-28.5 74.5t-31 84.5t-40.5 111.5q-13 36 -29.5 65.5t-39 49.5t-52 31t-69.5 11q-36 0 -78 -13l-1 2q40 13 82 13q85 0 138.5 -39
t84.5 -120q26 -66 46 -117t36 -94t30.5 -81.5t30.5 -79.5l5 -13q7 18 19.5 50t27 71t30.5 81.5t30.5 81t26 70t16.5 47.5q3 9 3 17q0 16 -9 16v2h39z" />
    <glyph glyph-name="W" unicode="W" horiz-adv-x="562" 
d="M576 -3q33 0 75 12v-2q-37 -12 -76 -12q-52 0 -100.5 17.5t-77.5 64.5l-11 17q-11 19 -21 42t-21 52q-17 44 -29.5 76t-24.5 64l-1 -2q-13 -38 -27.5 -76.5t-27.5 -69.5q-15 -36 -29 -69h-33q-30 79 -57 151q-11 30 -22.5 61.5t-22 61t-19.5 54t-14 41.5q-4 12 -10.5 23
t-13.5 11v2h64v-2q-6 0 -9.5 -7t1.5 -22q6 -20 18 -54.5t27 -74.5t30 -81q26 -71 57 -151q14 34 28 71q12 31 26.5 69t28.5 74l1 3q-11 29 -22.5 61.5t-25.5 77.5q-10 31 -27 62t-40.5 55.5t-53.5 39.5t-66 15q-44 0 -82 -14.5t-66 -40.5t-44 -62.5t-17 -81.5q-1 -38 14 -75
t43 -66q27 -29 62.5 -44.5t73.5 -15.5v-3q-41 1 -76.5 17.5t-62 44.5t-41.5 65t-15 77q0 45 16.5 82t45 63.5t67 41t82.5 14.5q32 0 64 -9.5t59 -26.5q21 -13 37.5 -31t29.5 -39t23 -44t18 -46q20 -54 32 -90.5t22.5 -67t22 -61t29.5 -73.5l18 -44v1q25 66 49 130
q21 56 44.5 117.5t40.5 110.5q2 5 2 9v9q0 15 -8 15v2h38v-2q-13 0 -24 -34q-9 -27 -26.5 -75t-37.5 -102t-39.5 -105.5t-33.5 -86.5q26 -59 64.5 -86.5t101.5 -27.5z" />
    <glyph glyph-name="X" unicode="X" horiz-adv-x="360" 
d="M590 26q-39 -13 -82 -13q-50 0 -88.5 14.5t-69 40t-56 60t-49.5 75.5l-74 123l-132 -197q-4 -5 -4.5 -11t4.5 -5h2v-2h-36v2q8 0 16.5 8t11.5 13l134 200q-10 17 -20 33.5t-20.5 34.5t-23.5 40t-30 51q-20 34 -40 64.5t-45 53.5t-56.5 36.5t-73.5 13.5q-37 0 -77 -13
l-1 2q39 13 82 13q50 0 88 -14t68 -39.5t54.5 -59.5t48.5 -75l66 -112l123 185q3 5 3.5 10.5t-3.5 5.5h-3v2h37v-2q-8 0 -16.5 -8.5t-11.5 -13.5l-125 -186l101 -172q20 -33 41 -64t47 -54t58 -37t74 -14q37 0 77 13z" />
    <glyph glyph-name="Y" unicode="Y" horiz-adv-x="339" 
d="M122 113q8 0 15 10q7 14 7 34v159l-78 149q-8 16 -17 31.5t-17 30.5q-16 27 -34.5 52t-42 44.5t-51 31t-61.5 11.5q-47 0 -93 -23.5t-72 -63.5q-22 -32 -30.5 -69.5t-1.5 -76.5q6 -35 23.5 -65.5t44 -53.5t59 -36t68.5 -13h14.5t14.5 2l1 -2q-15 -3 -31 -3
q-36 0 -69 13.5t-59 36.5t-44.5 54t-24.5 66q-6 40 2 78.5t31 70.5q31 44 78.5 66t100.5 22q54 0 92.5 -18.5t67.5 -48.5t51.5 -69t44.5 -80l64 -121l130 216q3 5 4 10.5t-4 5.5h-2v2h36v-2q-7 0 -16 -8.5t-12 -13.5l-135 -222v-173q0 -11 6.5 -22.5t15.5 -11.5v-2h-76v2z
" />
    <glyph glyph-name="Z" unicode="Z" horiz-adv-x="356" 
d="M81 123q-20 2 -38 0l261 385h-101h-51.5t-44.5 -2t-34.5 -8.5t-22.5 -18.5h-4l8 37h288v-8zM616 67q-18 -19 -40.5 -35t-47.5 -28t-52 -18.5t-53 -6.5q-40 0 -90 20q-27 11 -43.5 18t-28 11.5t-21.5 9t-23.5 10t-34 14t-52.5 21.5q-57 23 -96 23q-42 0 -71.5 -21.5
t-50.5 -55.5h-2q23 39 63 64.5t87 25.5q43 0 103 -24l202 -84q47 -19 87 -19q46 0 89 21t73 55z" />
    <glyph glyph-name="bracketleft" unicode="[" horiz-adv-x="101" 
d="M20 465h61v-7h-37v-339h37v-8h-61v354z" />
    <glyph glyph-name="backslash" unicode="\" horiz-adv-x="230" 
d="M0 465h13l197 -354h-13z" />
    <glyph glyph-name="bracketright" unicode="]" horiz-adv-x="104" 
d="M20 111v7h37l2 339h-37v8h62l-2 -354h-62z" />
    <glyph glyph-name="underscore" unicode="_" horiz-adv-x="244" 
d="M20 118h204v-7h-204v7z" />
    <glyph glyph-name="grave" unicode="`" horiz-adv-x="96" 
d="M20 586h33l23 -51l-2 -2z" />
    <glyph glyph-name="a" unicode="a" 
d="M305 147q4 -12 11 -23t14 -11v-2h-65v2q7 0 10.5 7t-1.5 22q-3 11 -7.5 24t-10.5 28q-24 2 -40.5 8t-31.5 14q-17 8 -35.5 15t-48.5 7q-8 0 -14.5 -1t-11.5 -2q-10 -26 -18 -49t-13 -40q-3 -10 -3 -18q0 -15 9 -15v-2h-39v2q7 0 13.5 9t11.5 24l13.5 40.5t16.5 46.5l2 7
q15 39 30.5 79t28.5 72q15 38 29 74h33q25 -65 48 -126q10 -25 20 -52t19 -52.5t17 -48t13 -39.5zM189 222q14 -8 29 -13.5t36 -7.5q-14 38 -30.5 81.5t-30.5 81.5l-34 88q-13 -33 -27 -69q-12 -30 -26.5 -67.5t-28.5 -73.5q9 3 23 3q32 0 52 -7.5t37 -15.5z" />
    <glyph glyph-name="b" unicode="b" horiz-adv-x="284" 
d="M20 113q7 0 11.5 5t6.5 12t3 14.5t1 12.5v262q0 20 -6.5 32t-15.5 12v2h54q14 0 29 -0.5t29 -1t26 -1.5t19 -3q12 -3 24 -8.5t22.5 -14.5t17 -22t6.5 -31q0 -26 -12 -42t-27 -24.5t-27 -12l-12 -3.5q12 0 31.5 -3.5t38 -13.5t32 -27.5t13.5 -44.5q0 -24 -8.5 -41
t-22.5 -28.5t-30.5 -18t-33.5 -9.5q-9 -1 -23.5 -2t-31 -1.5t-32 -0.5h-27.5h-55v2zM107 304q20 0 39 3.5t34 12t24.5 24t9.5 39.5q0 27 -10 42.5t-29 23.5q-9 4 -24.5 5.5t-32 2.5t-29 0.5t-15.5 -0.5v-153h33zM102 118q26 0 52.5 1.5t48.5 10.5t35.5 28t13.5 53
q-1 28 -14 45t-32.5 26t-43 11.5t-45.5 2.5h-43v-159q0 -13 10 -15.5t18 -3.5z" />
    <glyph glyph-name="c" unicode="c" horiz-adv-x="344" 
d="M195 111q-38 0 -71.5 13t-59 36.5t-40 56t-14.5 71.5q0 37 13.5 69t38 56t58.5 38t75 14q30 0 52 -5t37 -11q17 -7 29 -16l10 -48h-4q-20 39 -48.5 55.5t-73.5 16.5q-58 0 -96.5 -33.5t-52.5 -87.5q-16 -58 6 -113q18 -49 56 -77t90 -28q40 0 72.5 16t46.5 56h5l-10 -46
q-22 -18 -56.5 -25.5t-62.5 -7.5z" />
    <glyph glyph-name="d" unicode="d" horiz-adv-x="346" 
d="M20 113q7 0 11.5 5t7 12t3.5 14.5t1 12.5v262q0 20 -6.5 32t-16.5 12v2h139q36 0 68.5 -14t56.5 -38t38 -56t14 -69t-14 -69t-38 -56t-56.5 -38t-69.5 -14h-138v2zM146 118q31 0 59.5 14t50.5 37.5t35 54.5t13 64t-13 64t-34.5 54.5t-50 37.5t-59.5 14l-72 -1v-339h71z
" />
    <glyph glyph-name="e" unicode="e" horiz-adv-x="284" 
d="M20 113q9 0 15.5 11.5t6.5 32.5v262q0 20 -6.5 32t-15.5 12v2h237l8 -37h-5q-6 13 -20 19t-34 8.5t-44 2.5h-50h-38v-168h97q20 0 31.5 7t11.5 14h4v-51h-4v1q0 8 -11.5 15t-31.5 7h-97v-165h43h51.5t44.5 2t35 8.5t22 18.5h4l-7 -36h-247v2z" />
    <glyph glyph-name="f" unicode="f" horiz-adv-x="266" 
d="M20 113q7 0 11.5 5t7 12t3.5 14.5t1 12.5v262q0 20 -6.5 32t-16.5 12v2h228l8 -37h-5q-6 13 -20 19t-33.5 8.5t-43.5 2.5h-50h-30v-168h88q20 0 31.5 7t11.5 14h4v-51h-4v1q0 8 -11.5 15t-31.5 7h-88v-135q0 -12 6.5 -23.5t16.5 -12.5v-1h-77v2z" />
    <glyph glyph-name="g" unicode="g" horiz-adv-x="356" 
d="M346 271v-7h-2q-13 -1 -16.5 -9.5t-3.5 -21.5v-82l-18 -13q-22 -14 -53.5 -20.5t-57.5 -6.5q-39 0 -72.5 13t-58.5 36.5t-39.5 56t-14.5 71.5q0 37 13.5 69t37.5 56t58 38t75 14q30 0 52 -5t37 -11q17 -7 29 -16l10 -48h-4q-20 39 -48.5 55.5t-73.5 16.5q-57 0 -96 -33.5
t-53 -87.5q-7 -28 -6 -57t12 -56q19 -49 56.5 -77t89.5 -28q26 0 48.5 6t42.5 24l2 2v86q0 11 -8 19t-19 8h-41v8h122z" />
    <glyph glyph-name="h" unicode="h" horiz-adv-x="362" 
d="M342 463q-9 0 -15.5 -11.5t-6.5 -23.5v-280q0 -12 6.5 -23.5t15.5 -11.5v-2h-76v2q8 0 15 10q7 14 7 34v80q-29 0 -49 7.5t-38 16.5t-39 16.5t-53 7.5q-14 0 -23 -2t-12 -4v-131q0 -12 6.5 -23.5t15.5 -11.5v-2h-76v2q8 0 15 10q7 14 7 34v262q0 6 -0.5 12.5t-2.5 11.5
q-2 7 -6.5 13.5t-12.5 6.5v2h76v-2q-9 0 -15.5 -11.5t-6.5 -23.5v-140q5 2 14 3.5t21 1.5q35 0 56.5 -8t40.5 -18q18 -8 36.5 -15.5t45.5 -7.5v175q0 5 -1 12.5t-3.5 14.5t-6.5 12t-11 5v2h76v-2z" />
    <glyph glyph-name="i" unicode="i" horiz-adv-x="116" 
d="M20 113q7 0 11 5t6.5 12t3.5 14.5t1 12.5v262q0 5 -1 12.5t-3.5 14.5t-6.5 12t-11 5v2h76v-2q-9 0 -15.5 -11.5t-6.5 -23.5v-280q0 -12 6.5 -23.5t15.5 -11.5v-2h-76v2z" />
    <glyph glyph-name="j" unicode="j" horiz-adv-x="220" 
d="M92 111q-13 0 -27.5 2.5t-26.5 9.5t-20 19t-8 31q0 8 4.5 17t14.5 9q8 0 11.5 -7.5t3.5 -14.5q0 -6 -1 -11t-1 -11q0 -15 11 -26.5t39 -11.5t41 16t13 42v244q0 6 -1 12.5t-3 11.5q-2 7 -6.5 13.5t-12.5 6.5v2h77v-2q-10 0 -16.5 -11.5t-6.5 -23.5v-239q0 -23 -8 -38
t-21 -24t-27.5 -12.5t-28.5 -3.5z" />
    <glyph glyph-name="k" unicode="k" horiz-adv-x="320" 
d="M20 113q7 0 11.5 5t7 12t3.5 14.5t1 12.5v262q0 14 -4 25q-2 6 -6.5 12.5t-12.5 6.5v2h77v-2q-10 0 -16 -11.5t-6 -23.5v-154l151 159q8 9 3 19.5t-16 10.5v2h69v-2q-7 0 -16.5 -4.5t-17.5 -12.5l-120 -127q33 0 54 -16t34 -47l37 -90q9 -22 16 -34t21 -17q5 -1 10 -1.5
t10 -0.5v-2q-8 -1 -16.5 0t-14.5 2q-21 5 -36 19t-26 41l-37 91q-19 45 -47 52q-2 1 -7 1l-51 -55v-114q0 -12 6 -23.5t16 -11.5v-2h-77v2z" />
    <glyph glyph-name="l" unicode="l" horiz-adv-x="284" 
d="M20 113q8 0 15 10q7 12 7 26.5v28.5v241q0 5 -1 12.5t-3.5 14.5t-6.5 12t-11 5v2h76v-2q-9 0 -15.5 -11.5t-6.5 -23.5v-310h43h51.5t44.5 2t35 8.5t22 18.5h4l-7 -36h-247v2z" />
    <glyph glyph-name="m" unicode="m" horiz-adv-x="390" 
d="M380 113v-2h-78v2q8 0 15.5 13t7.5 38q0 32 -1 80t-2.5 93t-3 76.5l-1.5 31.5v1l-135 -335l-140 287l-6 -250q0 -15 3 -25t13 -10v-2h-42v2h1q11 0 14 10.5t3 23.5l7 267l-25 51h35l148 -304l123 302v2h54v-2q-9 0 -15.5 -6.5t-5.5 -15.5l8 -278q1 -24 7.5 -37t14.5 -13
h1z" />
    <glyph glyph-name="n" unicode="n" horiz-adv-x="308" 
d="M298 465v-2q-10 0 -13.5 -10.5t-3.5 -24.5v-317h-8l-232 301l1 -264q0 -15 3 -25t13 -10v-2h-42v2h1q10 0 13.5 10.5t3.5 23.5l-1 275l-33 43h42l231 -301v265q0 13 -3 23.5t-13 10.5h-1v2h42z" />
    <glyph glyph-name="o" unicode="o" horiz-adv-x="374" 
d="M187 111q-37 0 -69 14t-56 38t-38 56t-14 69t14 69t38 56t56 38t69 14t69 -14t56 -38t38 -56t14 -69t-14 -69t-38 -56t-56 -38t-69 -14zM187 118q30 0 56 13.5t45.5 36.5t31 54t11.5 66t-11.5 66t-31 54t-45.5 36.5t-56 13.5t-56 -13.5t-45.5 -36.5t-31 -54t-11.5 -66
t11.5 -66t31 -54t45.5 -36.5t56 -13.5z" />
    <glyph glyph-name="p" unicode="p" horiz-adv-x="284" 
d="M20 113q8 0 15 10q7 14 7 34v262q0 5 -1 12.5t-3.5 14.5t-6.5 12t-11 5v2h76q35 0 67.5 -5t57 -17.5t39 -34t14.5 -53.5q0 -28 -8.5 -48.5t-22 -34.5t-30 -22t-33.5 -11l-11 -1q-18 -3 -41 -3q-14 -1 -28.5 -1h-25.5v-86q0 -8 3 -16t8 -13q3 -4 9 -6h2v-2h-76v2zM74 241
h14h35l20 2t19 3l13 3q38 11 52.5 37.5t14.5 67.5q0 32 -11.5 52t-30 31.5t-43 16t-50.5 4.5h-33v-217z" />
    <glyph glyph-name="q" unicode="q" horiz-adv-x="382" 
d="M392 92q-19 -24 -50 -24q-18 0 -44 12l-74 35q-16 -4 -37 -4q-37 0 -69 14t-56 38t-38 56t-14 69t14 69t38 56t56 38t69 14t69 -14t56 -38t38 -56t14 -69q0 -54 -29 -97.5t-75 -64.5l64 -31q14 -6 23 -10t17 -4q7 0 14 3t13 9zM43 288q0 -30 8.5 -57t23 -49t35 -37.5
t44.5 -21.5l9 7q5 5 9 6q15 9 31 9q19 0 43 -12q38 20 61.5 61.5t23.5 93.5q0 35 -11.5 66t-31 54t-45.5 36.5t-56 13.5t-56 -13.5t-45.5 -36.5t-31 -54t-11.5 -66zM155 122q13 -4 32 -4q6 0 12.5 0.5t12.5 1.5q-19 9 -34 9q-5 0 -9.5 -1t-9.5 -3z" />
    <glyph glyph-name="r" unicode="r" horiz-adv-x="318" 
d="M308 115q4 1 6 1t4 1v-2q-8 -2 -11 -2t-9 -1q-21 -2 -39 5t-35 26l-59 63q-12 13 -23 20t-23 9q-12 -1 -23.5 -1h-21.5v-86q0 -8 3 -16t8 -13q5 -4 9 -6h2v-2h-76v2q8 0 15 10q7 14 7 34v262q0 6 -0.5 12.5t-2.5 11.5q-2 7 -6.5 13.5t-12.5 6.5v2h76q35 0 67.5 -5
t57 -17.5t39 -34t14.5 -53.5q0 -28 -8.5 -48.5t-22 -34.5t-30 -22t-33.5 -11l-11 -1q-2 0 -3 -0.5t-3 -0.5q10 -4 19.5 -10t19.5 -17l58 -63q14 -15 23.5 -24t24.5 -8zM74 241h14h35l20 2t19 3l13 3q38 11 52.5 37.5t14.5 67.5q0 32 -11.5 52t-30 31.5t-43 16t-50.5 4.5h-33
v-217z" />
    <glyph glyph-name="s" unicode="s" horiz-adv-x="294" 
d="M141 111q-11 0 -25.5 1.5t-29.5 5t-29 9t-23 12.5q-1 0 -4 1.5t-3 2.5l-7 47h4l3 -7q21 -53 79 -62q10 -1 19.5 -2t19.5 -1q20 0 41.5 5t39.5 15.5t30 27t12 40.5t-17.5 39.5t-44 27.5t-57 22.5t-57 23t-44 29.5t-17.5 42q0 21 12 35.5t30 23.5t39 12.5t38 3.5
q26 0 53.5 -7t49.5 -21q1 -1 4 -2.5t3 -2.5l9 -47h-4q-34 73 -119 73q-14 0 -31 -3t-32 -9.5t-25 -18t-10 -28.5q0 -18 17.5 -30t43.5 -22t57 -20t57 -24.5t43.5 -35.5t17.5 -52q0 -28 -13.5 -48t-34 -32.5t-46 -18t-49.5 -5.5z" />
    <glyph glyph-name="t" unicode="t" 
d="M132 113q8 0 15 10q7 14 7 34v301h-20h-45t-34.5 -2.5t-24.5 -8.5t-16 -19h-4l8 37h304l8 -37h-4q-6 13 -16 19t-24.5 8.5t-34 2.5h-45.5h-20v-310q0 -12 6.5 -23.5t15.5 -12.5v-1h-76v2z" />
    <glyph glyph-name="u" unicode="u" horiz-adv-x="326" 
d="M180 111q-23 0 -49 4.5t-48 16t-36.5 32t-14.5 53.5v202q0 5 -1 12.5t-3.5 14.5t-6.5 12t-11 5v2h76v-2q-10 0 -16 -11.5t-6 -23.5v-218q0 -16 6 -32.5t19.5 -29.5t35.5 -21.5t55 -8.5q22 0 42 7t35.5 19t25 29t9.5 37v231q-2 9 -5 15.5t-11 6.5h-1v2h41v-2
q-9 0 -12.5 -10.5t-3.5 -24.5v-214q0 -28 -12 -47.5t-30 -32t-39 -18t-39 -5.5z" />
    <glyph glyph-name="v" unicode="v" horiz-adv-x="360" 
d="M340 465v-2q-7 0 -13.5 -9t-11.5 -24q-6 -19 -14.5 -43t-18 -50t-19.5 -53t-20 -52q-23 -59 -48 -121h-33q-25 65 -48 126q-10 26 -20 53t-19 52.5t-17 48t-13 38.5q-4 12 -11 23t-14 11v2h65v-2q-7 0 -10.5 -7t1.5 -22t12.5 -36t16.5 -46t18.5 -51t19.5 -52
q22 -59 48 -125q25 63 48 121q20 50 39 101.5t29 83.5q4 13 2.5 23t-8.5 10v2h39z" />
    <glyph glyph-name="w" unicode="w" horiz-adv-x="558" 
d="M538 465v-2q-7 0 -13.5 -9t-11.5 -24q-6 -19 -14.5 -43t-18 -50t-19.5 -53t-19 -52q-23 -59 -48 -121h-34q-13 34 -27 70q-12 32 -26 70t-28 75q-14 -38 -29 -76t-27 -69q-15 -37 -28 -70h-33q-25 65 -48 126q-10 26 -20 53t-19 52.5t-17 48t-14 38.5q-4 12 -10.5 23
t-13.5 11v2h64v-2q-6 0 -9.5 -7t1.5 -22t12.5 -36t16.5 -46t18.5 -51t19.5 -52q22 -59 48 -125q14 34 28 71q13 31 27.5 69t27.5 74q-9 26 -17.5 50t-13.5 41q-1 3 -3.5 8.5t-6 11.5t-7 10t-7.5 4v2h64v-2q-7 0 -10 -7t2 -22q3 -10 7 -22.5t9 -27.5l4 -12q14 -37 30.5 -80
t30.5 -81q16 -44 33 -87q26 63 48 121q20 50 39 101.5t29 83.5q4 13 2.5 23t-8.5 10v2h39z" />
    <glyph glyph-name="x" unicode="x" horiz-adv-x="322" 
d="M273 136q14 -23 29 -23v-2h-64v2h1q3 0 4 3.5t-2 9.5l-88 151l-99 -148q-3 -5 -3.5 -10.5t4.5 -5.5h4v-2h-39v2q8 -1 16.5 8t12.5 14l100 149l-92 156q-14 23 -29 23v2h64v-2h-1q-10 0 -2 -13l80 -136l89 133q3 5 3.5 10.5t-4.5 5.5h-4v2h39v-2q-8 0 -16.5 -8.5
t-12.5 -13.5l-90 -134z" />
    <glyph glyph-name="y" unicode="y" horiz-adv-x="312" 
d="M302 465v-2q-7 0 -16 -8.5t-12 -13.5l-104 -172v-121q0 -12 6.5 -23.5t15.5 -11.5v-2h-76v2q8 0 15 10q7 14 7 34v113l-89 170q-7 13 -14.5 18t-14.5 5v2h64v-2h-2q-3 0 -4 -3.5t3 -9.5l73 -141l15 -27l99 165q3 5 4 10.5t-4 5.5h-4v2h38z" />
    <glyph glyph-name="z" unicode="z" horiz-adv-x="308" 
d="M288 458l-230 -340h74h51.5t44 2t34.5 8.5t22 18.5h4l-7 -36h-261v7l229 340h-73h-51.5t-44 -2.5t-34 -8.5t-22.5 -18h-4l7 36h261v-7z" />
    <glyph glyph-name="braceleft" unicode="{" horiz-adv-x="148" 
d="M128 111q-27 0 -43 17t-16 43v61q0 6 -1 11.5t-2 9.5q-2 8 -7 16.5t-13 11.5q-9 3 -26 6v2q8 2 14.5 4t11.5 4q4 2 7.5 4.5t6.5 6.5q2 3 3 7t3 8q3 9 3 22v61q0 21 9 34q8 15 22 20t28 5v-7q-15 -1 -20 -5.5t-11 -16.5q-4 -8 -6 -20t-2 -25.5v-26.5v-24
q-1 -25 -9.5 -36.5t-34.5 -15.5q26 -2 34 -15t10 -37q0 -6 0.5 -16t0.5 -20.5t0.5 -21t0.5 -16.5q2 -21 8 -32t29 -13v-6z" />
    <glyph glyph-name="bar" unicode="|" horiz-adv-x="52" 
d="M20 465h12v-354h-12v354z" />
    <glyph glyph-name="braceright" unicode="}" horiz-adv-x="148" 
d="M20 119q23 1 28.5 12t7.5 31q1 6 1 16.5v21t0.5 21t0.5 16.5q2 23 10.5 36.5t34.5 15.5q-26 3 -34.5 14t-10.5 37q-1 10 -0.5 23t0.5 26.5t-1.5 25.5t-5.5 20q-7 12 -12 17t-19 6v7q27 0 43 -17t16 -43v-61q0 -11 1.5 -19t7.5 -18q3 -3 6.5 -5t8.5 -5q8 -4 25 -7v-2
q-8 -2 -14 -4t-11 -4q-11 -5 -15 -11q-6 -8 -7.5 -17.5t-1.5 -19.5v-61q0 -8 -2 -17t-7 -17q-7 -11 -20 -18.5t-30 -7.5v8z" />
    <glyph glyph-name="asciitilde" unicode="~" horiz-adv-x="232" 
d="M20 275l15 14q8 7 19 12t22 5q18 0 31 -8t30 -16q5 -2 10 -3t10 -1t10 1t10 3q8 4 15 10.5t14 13.5l6 -5q-8 -9 -23 -20t-30 -11t-25 4.5t-19 10t-17.5 9.5t-20.5 4q-16 0 -29.5 -10t-21.5 -18z" />
    <glyph glyph-name="exclamdown" unicode="&#xa1;" horiz-adv-x="94" 
d="M55 404h4l15 -293h-34zM57 432q-6 0 -11 5q-5 4 -5 12q0 7 5 11q5 5 11 5q5 0 12 -5q4 -4 4 -11q0 -8 -4 -12q-7 -5 -12 -5z" />
    <glyph glyph-name="cent" unicode="&#xa2;" horiz-adv-x="258" 
d="M226 149l3.5 7t3.5 5q1 3 2 5h3l-7 -32q-7 -6 -17.5 -10.5t-22.5 -7t-23.5 -4t-20.5 -1.5q-18 0 -37 4.5t-34 15.5l-29 -53h-12l33 59q-48 39 -48 98q0 26 9.5 48t26 39t40.5 26.5t52 9.5q12 0 22 -1t19 -3l20 36h12l-22 -39q16 -4 24 -11q5 -2 8 -5l7 -33h-3
q-8 15 -16.5 25t-23.5 17l-113 -202q30 -26 69 -26q19 0 34.5 4t30.5 17q4 4 10 12zM50 189q9 -23 25 -40l110 199q-18 5 -34 5q-39 0 -67.5 -23.5t-37.5 -61.5q-10 -39 4 -79z" />
    <glyph glyph-name="sterling" unicode="&#xa3;" horiz-adv-x="327" 
d="M42 117q14 0 24 11.5t16 27.5t9 33t3 27q0 11 -1.5 21.5t-3.5 22.5h-69v8h68q-3 15 -6.5 30.5t-7.5 30.5t-6.5 27t-2.5 28q0 21 10.5 36.5t27 25.5t36.5 14.5t38 4.5q26 0 49 -8.5t48 -22.5l9 -6l7 -43h-3q-12 37 -41 56t-67 19q-25 0 -42 -9t-27.5 -22t-14 -28t-0.5 -27
q3 -16 8 -30.5t8 -28.5t5 -25t3 -22h75v-8h-74q3 -39 -4 -66t-16 -44q-11 -21 -25 -33h70q28 0 61 0.5t50 1.5q28 2 39 17l8 11h4l-1 -1l-6 -35h-258v6z" />
    <glyph glyph-name="yen" unicode="&#xa5;" horiz-adv-x="322" 
d="M302 465v-2q-7 0 -16 -8.5t-12 -13.5l-104 -172v-1h82v-8h-82v-37h82v-8h-82v-67q0 -12 6.5 -23.5t15.5 -11.5v-2h-76v2q8 0 15 10q7 14 7 34v58h-82v8h82v37h-82v8h82v2l-89 170q-7 13 -14.5 18t-14.5 5v2h64v-2h-2q-3 0 -4 -3.5t3 -9.5l73 -141l15 -27l99 165
q3 5 4 10.5t-4 5.5h-4v2h38z" />
    <glyph glyph-name="dieresis" unicode="&#xa8;" horiz-adv-x="132" 
d="M36 533q-8 0 -12 5t-4 11.5t4 11.5t12 5t12.5 -5t4.5 -11.5t-4 -11.5t-13 -5zM96 533q-9 0 -13 5t-4 11.5t4 11.5t13 5q8 0 12.5 -5t4.5 -11.5t-4 -11.5t-13 -5z" />
    <glyph glyph-name="copyright" unicode="&#xa9;" horiz-adv-x="308" 
d="M154 154q-28 0 -52.5 10.5t-42.5 28.5t-28.5 43t-10.5 53q0 29 10.5 53t29 42t43.5 28t53 10t52 -10.5t42 -29t28 -43t10 -51.5q0 -28 -10.5 -52.5t-28.5 -42.5t-42.5 -28.5t-52.5 -10.5zM154 160q27 0 50 10t40 27.5t26.5 41t9.5 50.5t-10 50t-27 40.5t-40.5 27
t-50.5 9.5q-26 0 -49 -10.5t-39.5 -28t-26 -40.5t-9.5 -49t9.5 -49.5t26.5 -41t40 -27.5t50 -10zM156 200q-5 0 -11 1t-11 3t-9.5 4.5t-9.5 5.5q-4 3 -8 6.5t-8 7.5q-3 4 -6.5 8t-5.5 9q-5 11 -8 20.5t-3 22.5q0 17 6 32t17 28q12 14 30 21t35 7q23 0 41 -12q5 -2 11 -6
q2 -2 4 -3l7 -30h-4q-6 14 -16 25t-24 16q-12 5 -23 5q-12 0 -23 -4.5t-19 -15.5q-10 -11 -13 -28q-4 -15 -4 -35q0 -12 1 -23t6 -22q3 -8 9 -17t14 -13q4 -3 9 -4.5t10 -3.5q4 0 8 -0.5t8 0.5q10 0 15 2q17 5 29.5 18t17.5 26h4l-5 -20v-2l-2 -6v-3q-2 -1 -4 -3
q-2 -1 -11 -6q-13 -7 -24 -9q-17 -3 -30 -2z" />
    <glyph glyph-name="guillemotleft" unicode="&#xab;" horiz-adv-x="142" 
d="M91 287v-1l30 -52q1 -1 0 -1.5t-2 0.5l-57 51q-3 2 0 5l59 54q1 1 1.5 0.5t-0.5 -1.5z" />
    <glyph glyph-name="registered" unicode="&#xae;" horiz-adv-x="308" 
d="M288 288q0 -28 -10.5 -52.5t-28.5 -42.5t-42.5 -28.5t-52.5 -10.5t-52.5 10.5t-42.5 28.5t-28.5 43t-10.5 53q0 29 10.5 53t29 42t43.5 28t53 10t52 -10.5t42 -29t28 -43t10 -51.5zM280 289q0 27 -10 50t-27 40.5t-40.5 27t-50.5 9.5q-26 0 -49 -10.5t-39.5 -28
t-26 -40.5t-9.5 -49t9.5 -49.5t26.5 -41t40 -27.5t50 -10t50 10t40 27.5t26.5 41t9.5 50.5zM170 263q8 -10 16 -20.5t14.5 -19.5t12.5 -14.5t11 -5.5h3v-3h-17q-14 0 -29 20t-32 41h-26v-50q0 -5 3.5 -6.5t6.5 -1.5v-3h-39v3q2 0 6 1.5t4 6.5v153q0 7 -4 7.5t-6 0.5v3h10
l29 1q16 0 32 -2.5t28.5 -9t20.5 -17t8 -26.5q0 -28 -15 -41t-32 -17h-5zM147 264q5 1 10 1t10 2l6 1q19 6 26 19t7 33q0 31 -20.5 41t-46.5 10h-16v-106h7q4 -1 8 -1h9z" />
    <glyph glyph-name="macron" unicode="&#xaf;" horiz-adv-x="122" 
d="M20 548h82v-14h-82v14z" />
    <glyph glyph-name="degree" unicode="&#xb0;" horiz-adv-x="94" 
d="M46 412q-10 0 -18 8q-8 7 -8 18q0 12 8 19q7 8 19 8t19 -8q8 -7 8 -18q0 -12 -8 -19q-8 -8 -20 -8zM47 421q8 0 12 5q5 5 5 13q0 6 -5 13q-4 4 -12 4t-12 -5q-4 -4 -4 -13q0 -17 16 -17z" />
    <glyph glyph-name="acute" unicode="&#xb4;" horiz-adv-x="447" 
d="M371 535q3 6 4.5 10t4 9t5.5 12.5t8 19.5h34l-46 -46q-6 -6 -8 -7z" />
    <glyph glyph-name="periodcentered" unicode="&#xb7;" horiz-adv-x="80" 
d="M40 268q-8 0 -14 6t-6 14q0 10 6 14q6 6 14 6t14 -6q6 -4 6 -14q0 -8 -6 -14t-14 -6z" />
    <glyph glyph-name="cedilla" unicode="&#xb8;" horiz-adv-x="98" 
d="M20 123q0 2 2 2t5 -3q8 -4 15 -4q6 0 13 5q10 10 7 25q-2 6 -7 9t-11 3h-5v3l14 14h6l-12 -12q11 0 21 -7t10 -19q0 -13 -9.5 -20.5t-21.5 -7.5q-5 0 -16 3t-11 9z" />
    <glyph glyph-name="guillemotright" unicode="&#xbb;" horiz-adv-x="142" 
d="M80 289q3 -3 0 -5l-57 -51q-1 -1 -2 -0.5t0 1.5l30 52v1l-31 55q-1 1 -0.5 1.5t1.5 -0.5zM121 289q3 -3 0 -5l-57 -51q-1 -1 -2 -0.5t0 1.5l30 52v1l-31 55q-1 1 -0.5 1.5t1.5 -0.5z" />
    <glyph glyph-name="questiondown" unicode="&#xbf;" horiz-adv-x="270" 
d="M165 432q-7 0 -11.5 5.5t-4.5 11.5q0 7 5.5 11.5t11.5 4.5t11 -5t5 -11q0 -7 -5 -12t-12 -5zM152 111q-21 0 -41.5 6.5t-36 18.5t-25 30t-9.5 41q0 27 13 51t30 44q11 14 24 25.5t25 25.5q11 11 20 24.5t9 26.5h8q1 -7 -3 -18q-4 -10 -13.5 -24.5t-29.5 -34.5
q-38 -47 -47 -81.5t1 -61.5q22 -60 91 -60q26 0 44 8.5t36 26.5l2 -1q-3 -5 -6.5 -8t-7.5 -7q-20 -17 -39 -24.5t-45 -7.5z" />
    <glyph glyph-name="Agrave" unicode="&#xc0;" horiz-adv-x="444" 
d="M225 533l-54 53h33l23 -51zM400 94q4 -12 11 -23t13 -11v-2h-64v2q7 0 10.5 7t-1.5 22q-5 14 -12.5 37t-18.5 52h-1q-17 47 -52.5 72.5t-86.5 25.5q-15 0 -31.5 -1.5t-35.5 -6.5q-2 0 -2.5 -0.5t-2.5 -0.5q-6 -18 -15.5 -45t-18.5 -53t-16 -47.5t-9 -28.5q-3 -10 -3 -18
q0 -15 9 -15v-2h-39v2q7 0 13.5 9t11.5 24q3 8 10 29t15.5 47t17.5 52t15 44q-45 -10 -67 -15.5t-37.5 -9t-35 -8t-60.5 -13.5q-32 -7 -61 -7q-30 0 -60 9.5t-57.5 26t-50.5 38.5t-38 47h1q29 -48 77.5 -76t104.5 -28q25 0 54 6l214 49q7 2 13 3l12 2q14 39 29.5 79t28.5 72
q15 38 29 73h33q36 -94 67 -176q13 -35 26.5 -71t25 -68.5t21 -59.5t14.5 -44zM333 192q-17 48 -37.5 102t-38.5 100l-40 106q-13 -33 -27 -69q-12 -30 -26.5 -67t-28.5 -73q23 3 41 3q52 0 93.5 -28t63.5 -74z" />
    <glyph glyph-name="Aacute" unicode="&#xc1;" horiz-adv-x="444" 
d="M400 94q4 -12 11 -23t13 -11v-2h-64v2q7 0 10.5 7t-1.5 22q-5 14 -12.5 37t-18.5 52h-1q-17 47 -52.5 72.5t-86.5 25.5q-15 0 -31.5 -1.5t-35.5 -6.5q-2 0 -2.5 -0.5t-2.5 -0.5q-6 -18 -15.5 -45t-18.5 -53t-16 -47.5t-9 -28.5q-3 -10 -3 -18q0 -15 9 -15v-2h-39v2
q7 0 13.5 9t11.5 24q3 8 10 29t15.5 47t17.5 52t15 44q-45 -10 -67 -15.5t-37.5 -9t-35 -8t-60.5 -13.5q-32 -7 -61 -7q-30 0 -60 9.5t-57.5 26t-50.5 38.5t-38 47h1q29 -48 77.5 -76t104.5 -28q25 0 54 6l214 49q7 2 13 3l12 2q14 39 29.5 79t28.5 72q15 38 29 73h33
q36 -94 67 -176q13 -35 26.5 -71t25 -68.5t21 -59.5t14.5 -44zM333 192q-17 48 -37.5 102t-38.5 100l-40 106q-13 -33 -27 -69q-12 -30 -26.5 -67t-28.5 -73q23 3 41 3q52 0 93.5 -28t63.5 -74zM252 586h33l-54 -53l-2 2z" />
    <glyph glyph-name="Acircumflex" unicode="&#xc2;" horiz-adv-x="444" 
d="M189 533l-5 2l39 51h6l39 -51l-5 -2l-37 33zM400 94q4 -12 11 -23t13 -11v-2h-64v2q7 0 10.5 7t-1.5 22q-5 14 -12.5 37t-18.5 52h-1q-17 47 -52.5 72.5t-86.5 25.5q-15 0 -31.5 -1.5t-35.5 -6.5q-2 0 -2.5 -0.5t-2.5 -0.5q-6 -18 -15.5 -45t-18.5 -53t-16 -47.5
t-9 -28.5q-3 -10 -3 -18q0 -15 9 -15v-2h-39v2q7 0 13.5 9t11.5 24q3 8 10 29t15.5 47t17.5 52t15 44q-45 -10 -67 -15.5t-37.5 -9t-35 -8t-60.5 -13.5q-32 -7 -61 -7q-30 0 -60 9.5t-57.5 26t-50.5 38.5t-38 47h1q29 -48 77.5 -76t104.5 -28q25 0 54 6l214 49q7 2 13 3
l12 2q14 39 29.5 79t28.5 72q15 38 29 73h33q36 -94 67 -176q13 -35 26.5 -71t25 -68.5t21 -59.5t14.5 -44zM333 192q-17 48 -37.5 102t-38.5 100l-40 106q-13 -33 -27 -69q-12 -30 -26.5 -67t-28.5 -73q23 3 41 3q52 0 93.5 -28t63.5 -74z" />
    <glyph glyph-name="Atilde" unicode="&#xc3;" horiz-adv-x="444" 
d="M238 541q-11 0 -21.5 3.5t-18.5 3.5q-6 0 -10.5 -3t-6.5 -12h-4q4 18 12 24t21 6q11 0 24 -3q17 -3 25 0t12 14h4q-4 -14 -12.5 -23.5t-24.5 -9.5zM400 94q4 -12 11 -23t13 -11v-2h-64v2q7 0 10.5 7t-1.5 22q-5 14 -12.5 37t-18.5 52h-1q-17 47 -52.5 72.5t-86.5 25.5
q-15 0 -31.5 -1.5t-35.5 -6.5q-2 0 -2.5 -0.5t-2.5 -0.5q-6 -18 -15.5 -45t-18.5 -53t-16 -47.5t-9 -28.5q-3 -10 -3 -18q0 -15 9 -15v-2h-39v2q7 0 13.5 9t11.5 24q3 8 10 29t15.5 47t17.5 52t15 44q-45 -10 -67 -15.5t-37.5 -9t-35 -8t-60.5 -13.5q-32 -7 -61 -7
q-30 0 -60 9.5t-57.5 26t-50.5 38.5t-38 47h1q29 -48 77.5 -76t104.5 -28q25 0 54 6l214 49q7 2 13 3l12 2q14 39 29.5 79t28.5 72q15 38 29 73h33q36 -94 67 -176q13 -35 26.5 -71t25 -68.5t21 -59.5t14.5 -44zM333 192q-17 48 -37.5 102t-38.5 100l-40 106
q-13 -33 -27 -69q-12 -30 -26.5 -67t-28.5 -73q23 3 41 3q52 0 93.5 -28t63.5 -74z" />
    <glyph glyph-name="Adieresis" unicode="&#xc4;" horiz-adv-x="444" 
d="M198 533q-8 0 -12 5t-4 11.5t4 11.5t12 5t12.5 -5t4.5 -11.5t-4 -11.5t-13 -5zM258 533q-9 0 -13 5t-4 11.5t4 11.5t13 5q8 0 12.5 -5t4.5 -11.5t-4 -11.5t-13 -5zM400 94q4 -12 11 -23t13 -11v-2h-64v2q7 0 10.5 7t-1.5 22q-5 14 -12.5 37t-18.5 52h-1
q-17 47 -52.5 72.5t-86.5 25.5q-15 0 -31.5 -1.5t-35.5 -6.5q-2 0 -2.5 -0.5t-2.5 -0.5q-6 -18 -15.5 -45t-18.5 -53t-16 -47.5t-9 -28.5q-3 -10 -3 -18q0 -15 9 -15v-2h-39v2q7 0 13.5 9t11.5 24q3 8 10 29t15.5 47t17.5 52t15 44q-45 -10 -67 -15.5t-37.5 -9t-35 -8
t-60.5 -13.5q-32 -7 -61 -7q-30 0 -60 9.5t-57.5 26t-50.5 38.5t-38 47h1q29 -48 77.5 -76t104.5 -28q25 0 54 6l214 49q7 2 13 3l12 2q14 39 29.5 79t28.5 72q15 38 29 73h33q36 -94 67 -176q13 -35 26.5 -71t25 -68.5t21 -59.5t14.5 -44zM333 192q-17 48 -37.5 102
t-38.5 100l-40 106q-13 -33 -27 -69q-12 -30 -26.5 -67t-28.5 -73q23 3 41 3q52 0 93.5 -28t63.5 -74z" />
    <glyph glyph-name="Aring" unicode="&#xc5;" horiz-adv-x="444" 
d="M223 533q-9 0 -14 6t-5 12.5t5 12.5t14 6q10 0 15 -6t5 -12.5t-5 -12.5t-15 -6zM223 563q-6 0 -8.5 -3.5t-2.5 -8t2.5 -8t8.5 -3.5t9 3.5t3 8t-3 8t-9 3.5zM400 94q4 -12 11 -23t13 -11v-2h-64v2q7 0 10.5 7t-1.5 22q-5 14 -12.5 37t-18.5 52h-1q-17 47 -52.5 72.5
t-86.5 25.5q-15 0 -31.5 -1.5t-35.5 -6.5q-2 0 -2.5 -0.5t-2.5 -0.5q-6 -18 -15.5 -45t-18.5 -53t-16 -47.5t-9 -28.5q-3 -10 -3 -18q0 -15 9 -15v-2h-39v2q7 0 13.5 9t11.5 24q3 8 10 29t15.5 47t17.5 52t15 44q-45 -10 -67 -15.5t-37.5 -9t-35 -8t-60.5 -13.5
q-32 -7 -61 -7q-30 0 -60 9.5t-57.5 26t-50.5 38.5t-38 47h1q29 -48 77.5 -76t104.5 -28q25 0 54 6l214 49q7 2 13 3l12 2q14 39 29.5 79t28.5 72q15 38 29 73h33q36 -94 67 -176q13 -35 26.5 -71t25 -68.5t21 -59.5t14.5 -44zM333 192q-17 48 -37.5 102t-38.5 100l-40 106
q-13 -33 -27 -69q-12 -30 -26.5 -67t-28.5 -73q23 3 41 3q52 0 93.5 -28t63.5 -74z" />
    <glyph glyph-name="AE" unicode="&#xc6;" horiz-adv-x="622" 
d="M972 67q-17 -19 -39.5 -35t-48 -28t-52 -19t-51.5 -7q-20 0 -43 5t-49 16t-42.5 18t-28 11.5t-21.5 9t-23.5 10t-34 14t-52.5 21.5q-57 23 -96 23q-32 0 -58 -14l-1 2q8 5 14.5 8.5t14.5 6.5l-26 73q-17 45 -52.5 69.5t-84.5 24.5q-15 0 -31.5 -1.5t-35.5 -6.5
q-2 0 -2.5 -0.5t-2.5 -0.5q-6 -18 -15.5 -45t-18.5 -53t-16 -47.5t-9 -28.5q-3 -10 -3 -18q0 -15 9 -15v-2h-39v2q7 0 13.5 9t11.5 24q3 8 10 29t15.5 47t17.5 52t15 44q-45 -10 -67 -15.5t-37.5 -9t-35 -8t-60.5 -13.5q-32 -7 -61 -7q-30 0 -60 9.5t-57.5 26t-50.5 38.5
t-38 47h1q29 -48 77.5 -76t104.5 -28q25 0 54 6l214 49q7 2 13 3l12 2q14 39 29.5 79t28.5 72q15 38 29 73h33q31 -82 59 -156q12 -32 24 -65t23.5 -64t21 -58t15.5 -47q7 11 7 27v301q0 24 -1.5 34.5t-4.5 16.5q-7 12 -16 12v2h237l8 -37h-4q-6 13 -20.5 19t-34 8.5
t-43.5 2t-50 -0.5h-39v-209h98q20 0 31 7t11 14h4v-51h-4v2q0 7 -11.5 14t-30.5 7h-98v-168q-11 1 -20 0.5t-19 -2.5l2 -5q14 3 28 3q44 0 101 -25l202 -84q23 -10 44.5 -14t41.5 -4q48 0 89.5 20t73.5 55zM329 199q-17 47 -36 99.5t-36 97.5l-40 104q-13 -33 -27 -69
q-12 -30 -26.5 -67t-28.5 -73q23 3 41 3q49 0 90 -25.5t63 -69.5z" />
    <glyph glyph-name="Ccedilla" unicode="&#xc7;" horiz-adv-x="370" 
d="M329 -40q0 -13 -9.5 -20.5t-21.5 -7.5q-5 0 -16 3t-11 9q0 2 2 2t5 -3q8 -4 15 -4q6 0 13 5q10 10 7 25q-2 6 -7 9t-11 3h-5v3l12 12q-62 0 -114.5 21.5t-90.5 60t-59 91.5t-21 116q0 54 13 104.5t40.5 90t71 63.5t103.5 24q29 0 51 -6t37 -13q17 -9 29 -20l10 -54h-4
q-6 12 -15 27t-20 23q-45 35 -92 35q-18 0 -33 -4q-57 -16 -92.5 -62t-51 -105t-10.5 -123.5t30 -116.5q32 -68 89 -108.5t133 -40.5q40 0 83 13l1 -3q-20 -7 -41 -9.5t-41 -3.5l-10 -10q11 0 21 -7t10 -19z" />
    <glyph glyph-name="Egrave" unicode="&#xc8;" horiz-adv-x="290" 
d="M56 122q8 11 8 28v301q0 24 -1.5 34.5t-4.5 16.5q-7 12 -16 12v2h237l8 -37h-4q-6 13 -20.5 19t-34 8.5t-43.5 2t-50 -0.5h-39v-209h98q20 0 31 7t11 14h4v-51h-4v2q0 7 -11.5 14t-30.5 7h-98v-168q-11 1 -20.5 0.5t-19.5 -2.5zM357 -1q-26 11 -42.5 18t-28 11.5t-21.5 9
t-23.5 10t-33.5 14t-53 21.5q-57 23 -96 23q-32 0 -58 -14l-1 2q40 25 85 25q43 0 103 -24l202 -84q47 -19 87 -19q47 0 88.5 21t73.5 55l1 -1q-17 -19 -39 -35t-47.5 -28t-52 -18.5t-52.5 -6.5q-42 0 -92 20zM174 533l-54 53h33l23 -51z" />
    <glyph glyph-name="Eacute" unicode="&#xc9;" horiz-adv-x="290" 
d="M56 122q8 11 8 28v301q0 24 -1.5 34.5t-4.5 16.5q-7 12 -16 12v2h237l8 -37h-4q-6 13 -20.5 19t-34 8.5t-43.5 2t-50 -0.5h-39v-209h98q20 0 31 7t11 14h4v-51h-4v2q0 7 -11.5 14t-30.5 7h-98v-168q-11 1 -20.5 0.5t-19.5 -2.5zM357 -1q-26 11 -42.5 18t-28 11.5t-21.5 9
t-23.5 10t-33.5 14t-53 21.5q-57 23 -96 23q-32 0 -58 -14l-1 2q40 25 85 25q43 0 103 -24l202 -84q47 -19 87 -19q47 0 88.5 21t73.5 55l1 -1q-17 -19 -39 -35t-47.5 -28t-52 -18.5t-52.5 -6.5q-42 0 -92 20zM205 586h33l-54 -53l-2 2z" />
    <glyph glyph-name="Ecircumflex" unicode="&#xca;" horiz-adv-x="290" 
d="M127 535l39 51h6l39 -51l-5 -2l-37 33l-37 -33zM56 122q8 11 8 28v301q0 24 -1.5 34.5t-4.5 16.5q-7 12 -16 12v2h237l8 -37h-4q-6 13 -20.5 19t-34 8.5t-43.5 2t-50 -0.5h-39v-209h98q20 0 31 7t11 14h4v-51h-4v2q0 7 -11.5 14t-30.5 7h-98v-168q-11 1 -20.5 0.5
t-19.5 -2.5zM357 -1q-26 11 -42.5 18t-28 11.5t-21.5 9t-23.5 10t-33.5 14t-53 21.5q-57 23 -96 23q-32 0 -58 -14l-1 2q40 25 85 25q43 0 103 -24l202 -84q47 -19 87 -19q47 0 88.5 21t73.5 55l1 -1q-17 -19 -39 -35t-47.5 -28t-52 -18.5t-52.5 -6.5q-42 0 -92 20z" />
    <glyph glyph-name="Edieresis" unicode="&#xcb;" horiz-adv-x="290" 
d="M143 533q-8 0 -12 5t-4 11.5t4 11.5t12 5t12.5 -5t4.5 -11.5t-4 -11.5t-13 -5zM203 533q-9 0 -13 5t-4 11.5t4 11.5t13 5q8 0 12.5 -5t4.5 -11.5t-4 -11.5t-13 -5zM56 122q8 11 8 28v301q0 24 -1.5 34.5t-4.5 16.5q-7 12 -16 12v2h237l8 -37h-4q-6 13 -20.5 19t-34 8.5
t-43.5 2t-50 -0.5h-39v-209h98q20 0 31 7t11 14h4v-51h-4v2q0 7 -11.5 14t-30.5 7h-98v-168q-11 1 -20.5 0.5t-19.5 -2.5zM357 -1q-26 11 -42.5 18t-28 11.5t-21.5 9t-23.5 10t-33.5 14t-53 21.5q-57 23 -96 23q-32 0 -58 -14l-1 2q40 25 85 25q43 0 103 -24l202 -84
q47 -19 87 -19q47 0 88.5 21t73.5 55l1 -1q-17 -19 -39 -35t-47.5 -28t-52 -18.5t-52.5 -6.5q-42 0 -92 20z" />
    <glyph glyph-name="Igrave" unicode="&#xcc;" horiz-adv-x="116" 
d="M20 60q7 0 11 5t6.5 12t3.5 14.5t1 12.5v365q0 13 -3 25q-2 6 -6.5 13t-12.5 7v2h76v-2q-9 0 -15.5 -12t-6.5 -23v-384q0 -11 6.5 -23t15.5 -12v-2h-76v2zM54 533l-54 53h33l23 -51z" />
    <glyph glyph-name="Iacute" unicode="&#xcd;" horiz-adv-x="116" 
d="M20 60q7 0 11 5t6.5 12t3.5 14.5t1 12.5v365q0 13 -3 25q-2 6 -6.5 13t-12.5 7v2h76v-2q-9 0 -15.5 -12t-6.5 -23v-384q0 -11 6.5 -23t15.5 -12v-2h-76v2zM82 586h33l-54 -53l-2 2z" />
    <glyph glyph-name="Icircumflex" unicode="&#xce;" horiz-adv-x="116" 
d="M13 535l39 51h6l39 -51l-5 -2l-37 33l-37 -33zM20 60q7 0 11 5t6.5 12t3.5 14.5t1 12.5v365q0 13 -3 25q-2 6 -6.5 13t-12.5 7v2h76v-2q-9 0 -15.5 -12t-6.5 -23v-384q0 -11 6.5 -23t15.5 -12v-2h-76v2z" />
    <glyph glyph-name="Idieresis" unicode="&#xcf;" horiz-adv-x="116" 
d="M28 533q-8 0 -12 5t-4 11.5t4 11.5t12 5t12.5 -5t4.5 -11.5t-4 -11.5t-13 -5zM88 533q-9 0 -13 5t-4 11.5t4 11.5t13 5q8 0 12.5 -5t4.5 -11.5t-4 -11.5t-13 -5zM20 60q7 0 11 5t6.5 12t3.5 14.5t1 12.5v365q0 13 -3 25q-2 6 -6.5 13t-12.5 7v2h76v-2q-9 0 -15.5 -12
t-6.5 -23v-384q0 -11 6.5 -23t15.5 -12v-2h-76v2z" />
    <glyph glyph-name="Eth" unicode="&#xd0;" horiz-adv-x="412" 
d="M123 594q62 0 113.5 -19.5t89 -54.5t58.5 -84.5t21 -108.5q0 -36 -16.5 -82.5t-50.5 -87.5t-87 -69t-126 -28h-99v2q9 0 15 12q7 12 7 32v177h-28v10h28v131q0 5 -1 12t-3.5 14.5t-7 12.5t-10.5 5v2h76v-2q-9 0 -15.5 -11.5t-6.5 -22.5v-141h60v-10h-60v-217l47 -1
q55 -1 99.5 19t75.5 55.5t48 84.5t17 105q0 60 -19.5 108.5t-53 82.5t-77.5 52t-94 18q-64 0 -116 -24.5t-82 -86.5q-17 -35 -19.5 -74t9.5 -77t36.5 -67.5t59.5 -46.5l-1 -2q-35 17 -59.5 46.5t-37.5 68.5q-13 38 -10 78t20 75q31 63 82.5 88.5t117.5 25.5z" />
    <glyph glyph-name="Ntilde" unicode="&#xd1;" horiz-adv-x="400" 
d="M640 -24q-39 -13 -82 -13q-50 0 -88 15t-68.5 40.5t-56.5 60t-51 74.5q-27 42 -45 71t-37.5 58t-44.5 66t-65 94l-40 55l1 -343q0 -17 4 -29t15 -12v-2h-48v2h2q11 0 14.5 12.5t3.5 26.5l-1 356q-18 23 -36 38.5t-37.5 25.5t-42.5 14t-51 4q-17 0 -36 -2.5t-39 -9.5l-1 2
q39 13 82 13q14 0 26.5 -1.5t25.5 -3.5q34 -6 57.5 -14t45 -24.5t45 -45t56.5 -75.5q30 -42 51.5 -73.5t41.5 -62t41 -63.5t49 -78v323q0 14 -3.5 26.5t-14.5 12.5h-2v2h48v-2q-11 0 -14.5 -12t-3.5 -29l-1 -313v-22l3 -5q20 -32 41.5 -62.5t47 -54t57.5 -37.5t73 -14
q37 0 77 13zM225 541q-11 0 -21.5 3.5t-18.5 3.5q-6 0 -10.5 -3t-6.5 -12h-4q4 18 12 24t21 6q11 0 24 -3q17 -3 25 0t12 14h4q-4 -14 -12.5 -23.5t-24.5 -9.5z" />
    <glyph glyph-name="Ograve" unicode="&#xd2;" horiz-adv-x="466" 
d="M238 60q-47 0 -88.5 18t-72.5 49t-49 72.5t-18 88.5t18 88.5t49 72.5t72.5 49t88.5 18t88.5 -18t72.5 -49t49 -72.5t18 -88.5t-18 -88.5t-49 -72.5t-72.5 -49t-88.5 -18zM238 69q40 0 75.5 17t61.5 47t41.5 70t15.5 85t-15.5 84.5t-41.5 69.5t-61.5 47t-75.5 17
t-75.5 -17t-61.5 -47t-41.5 -69.5t-15.5 -84.5t15.5 -85t41.5 -70t61.5 -47t75.5 -17zM256 533l-54 53h33l23 -51z" />
    <glyph glyph-name="Oacute" unicode="&#xd3;" horiz-adv-x="466" 
d="M238 60q-47 0 -88.5 18t-72.5 49t-49 72.5t-18 88.5t18 88.5t49 72.5t72.5 49t88.5 18t88.5 -18t72.5 -49t49 -72.5t18 -88.5t-18 -88.5t-49 -72.5t-72.5 -49t-88.5 -18zM238 69q40 0 75.5 17t61.5 47t41.5 70t15.5 85t-15.5 84.5t-41.5 69.5t-61.5 47t-75.5 17
t-75.5 -17t-61.5 -47t-41.5 -69.5t-15.5 -84.5t15.5 -85t41.5 -70t61.5 -47t75.5 -17zM258 586h33l-54 -53l-2 2z" />
    <glyph glyph-name="Ocircumflex" unicode="&#xd4;" horiz-adv-x="466" 
d="M195 535l39 51h6l39 -51l-5 -2l-37 33l-37 -33zM238 60q-47 0 -88.5 18t-72.5 49t-49 72.5t-18 88.5t18 88.5t49 72.5t72.5 49t88.5 18t88.5 -18t72.5 -49t49 -72.5t18 -88.5t-18 -88.5t-49 -72.5t-72.5 -49t-88.5 -18zM238 69q40 0 75.5 17t61.5 47t41.5 70t15.5 85
t-15.5 84.5t-41.5 69.5t-61.5 47t-75.5 17t-75.5 -17t-61.5 -47t-41.5 -69.5t-15.5 -84.5t15.5 -85t41.5 -70t61.5 -47t75.5 -17z" />
    <glyph glyph-name="Otilde" unicode="&#xd5;" horiz-adv-x="466" 
d="M188 533q4 18 12 24t21 6q11 0 24 -3q17 -3 25 0t12 14h4q-4 -14 -12.5 -23.5t-24.5 -9.5q-11 0 -21.5 3.5t-18.5 3.5q-6 0 -10.5 -3t-6.5 -12h-4zM238 60q-47 0 -88.5 18t-72.5 49t-49 72.5t-18 88.5t18 88.5t49 72.5t72.5 49t88.5 18t88.5 -18t72.5 -49t49 -72.5
t18 -88.5t-18 -88.5t-49 -72.5t-72.5 -49t-88.5 -18zM238 69q40 0 75.5 17t61.5 47t41.5 70t15.5 85t-15.5 84.5t-41.5 69.5t-61.5 47t-75.5 17t-75.5 -17t-61.5 -47t-41.5 -69.5t-15.5 -84.5t15.5 -85t41.5 -70t61.5 -47t75.5 -17z" />
    <glyph glyph-name="Odieresis" unicode="&#xd6;" horiz-adv-x="466" 
d="M207 533q-8 0 -12 5t-4 11.5t4 11.5t12 5t12.5 -5t4.5 -11.5t-4 -11.5t-13 -5zM267 533q-9 0 -13 5t-4 11.5t4 11.5t13 5q8 0 12.5 -5t4.5 -11.5t-4 -11.5t-13 -5zM238 60q-47 0 -88.5 18t-72.5 49t-49 72.5t-18 88.5t18 88.5t49 72.5t72.5 49t88.5 18t88.5 -18t72.5 -49
t49 -72.5t18 -88.5t-18 -88.5t-49 -72.5t-72.5 -49t-88.5 -18zM238 69q40 0 75.5 17t61.5 47t41.5 70t15.5 85t-15.5 84.5t-41.5 69.5t-61.5 47t-75.5 17t-75.5 -17t-61.5 -47t-41.5 -69.5t-15.5 -84.5t15.5 -85t41.5 -70t61.5 -47t75.5 -17z" />
    <glyph glyph-name="multiply" unicode="&#xd7;" horiz-adv-x="132" 
d="M66 281l-38 -38l-7 7l38 38l-39 39l7 7l39 -39l38 38l7 -7l-37 -38l38 -39l-7 -7z" />
    <glyph glyph-name="Oslash" unicode="&#xd8;" horiz-adv-x="466" 
d="M364 478q46 -31 74 -80.5t28 -109.5q0 -47 -18 -88.5t-49 -72.5t-72.5 -49t-88.5 -18q-32 0 -61 8.5t-55 23.5l-18 -29h-19l23 37q-45 31 -71.5 80t-26.5 108q0 47 18 88.5t49 72.5t72.5 49t88.5 18q31 0 59 -8t54 -22l19 31h18zM44 288q0 -53 20 -97.5t54 -74.5l224 356
q-46 34 -104 34q-40 0 -75.5 -17t-61.5 -47t-41.5 -69.5t-15.5 -84.5zM238 69q40 0 75.5 17t61.5 47t41.5 70t15.5 85q0 54 -21.5 99.5t-56.5 75.5l-223 -357q46 -37 107 -37z" />
    <glyph glyph-name="Ugrave" unicode="&#xd9;" horiz-adv-x="388" 
d="M213 75q-32 0 -62 8t-53 25t-37 44t-14 65v177q0 38 -1 87t-8.5 98t-23.5 91.5t-46 66.5q-25 20 -52.5 32.5t-65.5 18.5v2q50 -8 98 -35t78 -69q17 -22 27 -55t16 -68.5t8 -70.5t2 -62q0 -55 -0.5 -110t-0.5 -110q0 -62 36.5 -95t98.5 -33q30 0 54.5 12.5t41.5 31.5
t26 41.5t9 42.5v281q-2 9 -5 16t-11 7h-1v2h41v-2q-9 0 -12.5 -10.5t-3.5 -25.5v-264q0 -28 -11 -53t-30 -44t-44 -30.5t-54 -11.5zM222 533l-54 53h33l23 -51z" />
    <glyph glyph-name="Uacute" unicode="&#xda;" horiz-adv-x="388" 
d="M213 75q-32 0 -62 8t-53 25t-37 44t-14 65v177q0 38 -1 87t-8.5 98t-23.5 91.5t-46 66.5q-25 20 -52.5 32.5t-65.5 18.5v2q50 -8 98 -35t78 -69q17 -22 27 -55t16 -68.5t8 -70.5t2 -62q0 -55 -0.5 -110t-0.5 -110q0 -62 36.5 -95t98.5 -33q30 0 54.5 12.5t41.5 31.5
t26 41.5t9 42.5v281q-2 9 -5 16t-11 7h-1v2h41v-2q-9 0 -12.5 -10.5t-3.5 -25.5v-264q0 -28 -11 -53t-30 -44t-44 -30.5t-54 -11.5zM228 586h33l-54 -53l-2 2z" />
    <glyph glyph-name="Ucircumflex" unicode="&#xdb;" horiz-adv-x="388" 
d="M213 75q-32 0 -62 8t-53 25t-37 44t-14 65v177q0 38 -1 87t-8.5 98t-23.5 91.5t-46 66.5q-25 20 -52.5 32.5t-65.5 18.5v2q50 -8 98 -35t78 -69q17 -22 27 -55t16 -68.5t8 -70.5t2 -62q0 -55 -0.5 -110t-0.5 -110q0 -62 36.5 -95t98.5 -33q30 0 54.5 12.5t41.5 31.5
t26 41.5t9 42.5v281q-2 9 -5 16t-11 7h-1v2h41v-2q-9 0 -12.5 -10.5t-3.5 -25.5v-264q0 -28 -11 -53t-30 -44t-44 -30.5t-54 -11.5zM167 535l39 51h6l39 -51l-5 -2l-37 33l-37 -33z" />
    <glyph glyph-name="Udieresis" unicode="&#xdc;" horiz-adv-x="388" 
d="M213 75q-32 0 -62 8t-53 25t-37 44t-14 65v177q0 38 -1 87t-8.5 98t-23.5 91.5t-46 66.5q-25 20 -52.5 32.5t-65.5 18.5v2q50 -8 98 -35t78 -69q17 -22 27 -55t16 -68.5t8 -70.5t2 -62q0 -55 -0.5 -110t-0.5 -110q0 -62 36.5 -95t98.5 -33q30 0 54.5 12.5t41.5 31.5
t26 41.5t9 42.5v281q-2 9 -5 16t-11 7h-1v2h41v-2q-9 0 -12.5 -10.5t-3.5 -25.5v-264q0 -28 -11 -53t-30 -44t-44 -30.5t-54 -11.5zM177 533q-8 0 -12 5t-4 11.5t4 11.5t12 5t12.5 -5t4.5 -11.5t-4 -11.5t-13 -5zM237 533q-9 0 -13 5t-4 11.5t4 11.5t13 5q8 0 12.5 -5
t4.5 -11.5t-4 -11.5t-13 -5z" />
    <glyph glyph-name="Yacute" unicode="&#xdd;" horiz-adv-x="339" 
d="M122 113q8 0 15 10q7 14 7 34v159l-78 149q-8 16 -17 31.5t-17 30.5q-16 27 -34.5 52t-42 44.5t-51 31t-61.5 11.5q-47 0 -93 -23.5t-72 -63.5q-22 -32 -30.5 -69.5t-1.5 -76.5q6 -35 23.5 -65.5t44 -53.5t59 -36t68.5 -13h14.5t14.5 2l1 -2q-15 -3 -31 -3
q-36 0 -69 13.5t-59 36.5t-44.5 54t-24.5 66q-6 40 2 78.5t31 70.5q31 44 78.5 66t100.5 22q54 0 92.5 -18.5t67.5 -48.5t51.5 -69t44.5 -80l64 -121l130 216q3 5 4 10.5t-4 5.5h-2v2h36v-2q-7 0 -16 -8.5t-12 -13.5l-135 -222v-173q0 -11 6.5 -22.5t15.5 -11.5v-2h-76v2z
M188 636h33l-54 -53l-2 2z" />
    <glyph glyph-name="Thorn" unicode="&#xde;" horiz-adv-x="370" 
d="M140 639q54 0 95.5 -18.5t69 -49t41.5 -70t14 -82.5q0 -32 -8.5 -62t-24.5 -50q-39 -51 -89 -69t-111 -18h-40v-125q0 -12 6.5 -23.5t15.5 -11.5v-2h-76v2q7 0 11.5 5t6.5 12t3 14.5t1 12.5v517q-57 -26 -89.5 -73.5t-32.5 -111.5q0 -51 25 -96.5t69 -72.5v-3
q-21 12 -39 31.5t-31 42.5t-20 48.5t-7 49.5q0 62 33.5 113t91.5 74v23q0 5 -1 12.5t-3.5 14.5t-6.5 12t-11 5v2h76v-2q-8 0 -15 -11.5t-7 -31.5v-14q26 6 53 6zM327 422q0 44 -13.5 83.5t-38 69t-59 46.5t-77.5 16q-26 0 -52 -6l1 -406h41q94 0 146 50.5t52 146.5z" />
    <glyph glyph-name="germandbls" unicode="&#xdf;" horiz-adv-x="236" 
d="M20 113q5 0 12.5 6t7.5 25v230q0 24 7 41t17.5 28t23.5 16t25 5q28 0 50.5 -16t22.5 -49q0 -10 -3 -17.5t-7.5 -14t-11 -13.5t-14.5 -17q-12 -16 -10 -28.5t14 -26.5l28 -28l18 -18t15 -18.5t9 -20.5t1 -25q-5 -28 -26 -44.5t-49 -16.5q-19 0 -35 6.5t-29 15.5l-7 38h3
q10 -23 26.5 -38.5t43.5 -15.5q24 0 35 16t11 37t-17 37t-49 48q-9 9 -12.5 18.5t-3.5 20.5q0 12 3.5 20t12.5 17l15 15q14 14 22.5 26t8.5 30q0 26 -18 40t-38 14q-13 0 -24 -6t-17 -19q-11 -23 -10.5 -50t0.5 -53v-217h-51v2z" />
    <glyph glyph-name="agrave" unicode="&#xe0;" 
d="M163 500l-54 53h33l23 -51zM305 147q4 -12 11 -23t14 -11v-2h-65v2q7 0 10.5 7t-1.5 22q-3 11 -7.5 24t-10.5 28q-24 2 -40.5 8t-31.5 14q-17 8 -35.5 15t-48.5 7q-8 0 -14.5 -1t-11.5 -2q-10 -26 -18 -49t-13 -40q-3 -10 -3 -18q0 -15 9 -15v-2h-39v2q7 0 13.5 9
t11.5 24l13.5 40.5t16.5 46.5l2 7q15 39 30.5 79t28.5 72q15 38 29 74h33q25 -65 48 -126q10 -25 20 -52t19 -52.5t17 -48t13 -39.5zM189 222q14 -8 29 -13.5t36 -7.5q-14 38 -30.5 81.5t-30.5 81.5l-34 88q-13 -33 -27 -69q-12 -30 -26.5 -67.5t-28.5 -73.5q9 3 23 3
q32 0 52 -7.5t37 -15.5z" />
    <glyph glyph-name="aacute" unicode="&#xe1;" 
d="M305 147q4 -12 11 -23t14 -11v-2h-65v2q7 0 10.5 7t-1.5 22q-3 11 -7.5 24t-10.5 28q-24 2 -40.5 8t-31.5 14q-17 8 -35.5 15t-48.5 7q-8 0 -14.5 -1t-11.5 -2q-10 -26 -18 -49t-13 -40q-3 -10 -3 -18q0 -15 9 -15v-2h-39v2q7 0 13.5 9t11.5 24l13.5 40.5t16.5 46.5l2 7
q15 39 30.5 79t28.5 72q15 38 29 74h33q25 -65 48 -126q10 -25 20 -52t19 -52.5t17 -48t13 -39.5zM189 222q14 -8 29 -13.5t36 -7.5q-14 38 -30.5 81.5t-30.5 81.5l-34 88q-13 -33 -27 -69q-12 -30 -26.5 -67.5t-28.5 -73.5q9 3 23 3q32 0 52 -7.5t37 -15.5zM190 553h33
l-54 -53l-2 2z" />
    <glyph glyph-name="acircumflex" unicode="&#xe2;" 
d="M131 500l-5 2l39 51h6l39 -51l-5 -2l-37 33zM305 147q4 -12 11 -23t14 -11v-2h-65v2q7 0 10.5 7t-1.5 22q-3 11 -7.5 24t-10.5 28q-24 2 -40.5 8t-31.5 14q-17 8 -35.5 15t-48.5 7q-8 0 -14.5 -1t-11.5 -2q-10 -26 -18 -49t-13 -40q-3 -10 -3 -18q0 -15 9 -15v-2h-39v2
q7 0 13.5 9t11.5 24l13.5 40.5t16.5 46.5l2 7q15 39 30.5 79t28.5 72q15 38 29 74h33q25 -65 48 -126q10 -25 20 -52t19 -52.5t17 -48t13 -39.5zM189 222q14 -8 29 -13.5t36 -7.5q-14 38 -30.5 81.5t-30.5 81.5l-34 88q-13 -33 -27 -69q-12 -30 -26.5 -67.5t-28.5 -73.5
q9 3 23 3q32 0 52 -7.5t37 -15.5z" />
    <glyph glyph-name="atilde" unicode="&#xe3;" 
d="M178 508q-11 0 -21.5 3.5t-18.5 3.5q-6 0 -10.5 -3t-6.5 -12h-4q4 18 12 24t21 6q11 0 24 -3q17 -3 25 0t12 14h4q-4 -14 -12.5 -23.5t-24.5 -9.5zM305 147q4 -12 11 -23t14 -11v-2h-65v2q7 0 10.5 7t-1.5 22q-3 11 -7.5 24t-10.5 28q-24 2 -40.5 8t-31.5 14
q-17 8 -35.5 15t-48.5 7q-8 0 -14.5 -1t-11.5 -2q-10 -26 -18 -49t-13 -40q-3 -10 -3 -18q0 -15 9 -15v-2h-39v2q7 0 13.5 9t11.5 24l13.5 40.5t16.5 46.5l2 7q15 39 30.5 79t28.5 72q15 38 29 74h33q25 -65 48 -126q10 -25 20 -52t19 -52.5t17 -48t13 -39.5zM189 222
q14 -8 29 -13.5t36 -7.5q-14 38 -30.5 81.5t-30.5 81.5l-34 88q-13 -33 -27 -69q-12 -30 -26.5 -67.5t-28.5 -73.5q9 3 23 3q32 0 52 -7.5t37 -15.5z" />
    <glyph glyph-name="adieresis" unicode="&#xe4;" 
d="M139 500q-8 0 -12 5t-4 11.5t4 11.5t12 5t12.5 -5t4.5 -11.5t-4 -11.5t-13 -5zM199 500q-9 0 -13 5t-4 11.5t4 11.5t13 5q8 0 12.5 -5t4.5 -11.5t-4 -11.5t-13 -5zM305 147q4 -12 11 -23t14 -11v-2h-65v2q7 0 10.5 7t-1.5 22q-3 11 -7.5 24t-10.5 28q-24 2 -40.5 8
t-31.5 14q-17 8 -35.5 15t-48.5 7q-8 0 -14.5 -1t-11.5 -2q-10 -26 -18 -49t-13 -40q-3 -10 -3 -18q0 -15 9 -15v-2h-39v2q7 0 13.5 9t11.5 24l13.5 40.5t16.5 46.5l2 7q15 39 30.5 79t28.5 72q15 38 29 74h33q25 -65 48 -126q10 -25 20 -52t19 -52.5t17 -48t13 -39.5z
M189 222q14 -8 29 -13.5t36 -7.5q-14 38 -30.5 81.5t-30.5 81.5l-34 88q-13 -33 -27 -69q-12 -30 -26.5 -67.5t-28.5 -73.5q9 3 23 3q32 0 52 -7.5t37 -15.5z" />
    <glyph glyph-name="aring" unicode="&#xe5;" 
d="M167 500q-9 0 -14 6t-5 12.5t5 12.5t14 6q10 0 15 -6t5 -12.5t-5 -12.5t-15 -6zM167 530q-6 0 -8.5 -3.5t-2.5 -8t2.5 -8t8.5 -3.5t9 3.5t3 8t-3 8t-9 3.5zM305 147q4 -12 11 -23t14 -11v-2h-65v2q7 0 10.5 7t-1.5 22q-3 11 -7.5 24t-10.5 28q-24 2 -40.5 8t-31.5 14
q-17 8 -35.5 15t-48.5 7q-8 0 -14.5 -1t-11.5 -2q-10 -26 -18 -49t-13 -40q-3 -10 -3 -18q0 -15 9 -15v-2h-39v2q7 0 13.5 9t11.5 24l13.5 40.5t16.5 46.5l2 7q15 39 30.5 79t28.5 72q15 38 29 74h33q25 -65 48 -126q10 -25 20 -52t19 -52.5t17 -48t13 -39.5zM189 222
q14 -8 29 -13.5t36 -7.5q-14 38 -30.5 81.5t-30.5 81.5l-34 88q-13 -33 -27 -69q-12 -30 -26.5 -67.5t-28.5 -73.5q9 3 23 3q32 0 52 -7.5t37 -15.5z" />
    <glyph glyph-name="ae" unicode="&#xe6;" horiz-adv-x="529" 
d="M10 113q7 0 13.5 9t11.5 24l13.5 40.5t16.5 46.5l2 7q15 39 30.5 79t28.5 72q15 38 29 74h33q18 -46 36 -93q15 -40 32 -86t31 -86v219q0 20 -6.5 32t-15.5 12v2h237l8 -37h-5q-6 13 -20 19t-34 8.5t-44 2.5h-50h-38v-168h97q20 0 31.5 7t11.5 14h4v-51h-4v1
q0 8 -11.5 15t-31.5 7h-97v-165h43h51.5t44.5 2t35 8.5t22 18.5h4l-7 -36h-247v2h1q6 0 9.5 7.5t-1.5 21.5q-3 11 -7.5 24t-10.5 28q-24 2 -40.5 8t-31.5 14q-17 8 -35.5 15t-48.5 7q-8 0 -14.5 -1t-11.5 -2q-10 -26 -18 -49t-13 -40q-3 -10 -3 -18q0 -15 9 -15v-2h-39v2z
M254 201q-14 38 -30.5 81.5t-30.5 81.5l-34 88q-13 -33 -27 -69q-12 -30 -26.5 -67.5t-28.5 -73.5q9 3 23 3q32 0 52 -7.5t37 -15.5q14 -8 29 -13.5t36 -7.5z" />
    <glyph glyph-name="ccedilla" unicode="&#xe7;" horiz-adv-x="344" 
d="M324 190l-10 -46q-22 -18 -56.5 -25.5t-62.5 -7.5l-10 -10q11 0 21 -7t10 -19q0 -13 -9.5 -20.5t-21.5 -7.5q-5 0 -16 3t-11 9q0 2 2 2t5 -3q8 -4 15 -4q6 0 13 5q10 10 7 25q-2 6 -7 9t-11 3h-5v3l12 12q-37 2 -69.5 15.5t-57 36.5t-38.5 55t-14 70q0 37 13.5 69t38 56
t58.5 38t75 14q30 0 52 -5t37 -11q17 -7 29 -16l10 -48h-4q-20 39 -48.5 55.5t-73.5 16.5q-58 0 -96.5 -33.5t-52.5 -87.5q-16 -58 6 -113q18 -49 56 -77t90 -28q40 0 72.5 16t46.5 56h5z" />
    <glyph glyph-name="egrave" unicode="&#xe8;" horiz-adv-x="284" 
d="M110 553h33l23 -51l-2 -2zM20 113q9 0 15.5 11.5t6.5 32.5v262q0 20 -6.5 32t-15.5 12v2h237l8 -37h-5q-6 13 -20 19t-34 8.5t-44 2.5h-50h-38v-168h97q20 0 31.5 7t11.5 14h4v-51h-4v1q0 8 -11.5 15t-31.5 7h-97v-165h43h51.5t44.5 2t35 8.5t22 18.5h4l-7 -36h-247v2z
" />
    <glyph glyph-name="eacute" unicode="&#xe9;" horiz-adv-x="284" 
d="M20 113q9 0 15.5 11.5t6.5 32.5v262q0 20 -6.5 32t-15.5 12v2h237l8 -37h-5q-6 13 -20 19t-34 8.5t-44 2.5h-50h-38v-168h97q20 0 31.5 7t11.5 14h4v-51h-4v1q0 8 -11.5 15t-31.5 7h-97v-165h43h51.5t44.5 2t35 8.5t22 18.5h4l-7 -36h-247v2zM164 553h33l-54 -53l-2 2z
" />
    <glyph glyph-name="ecircumflex" unicode="&#xea;" horiz-adv-x="284" 
d="M105 502l39 51h6l39 -51l-5 -2l-37 33l-37 -33zM20 113q9 0 15.5 11.5t6.5 32.5v262q0 20 -6.5 32t-15.5 12v2h237l8 -37h-5q-6 13 -20 19t-34 8.5t-44 2.5h-50h-38v-168h97q20 0 31.5 7t11.5 14h4v-51h-4v1q0 8 -11.5 15t-31.5 7h-97v-165h43h51.5t44.5 2t35 8.5
t22 18.5h4l-7 -36h-247v2z" />
    <glyph glyph-name="edieresis" unicode="&#xeb;" horiz-adv-x="284" 
d="M125 500q-8 0 -12 5t-4 11.5t4 11.5t12 5t12.5 -5t4.5 -11.5t-4 -11.5t-13 -5zM185 500q-9 0 -13 5t-4 11.5t4 11.5t13 5q8 0 12.5 -5t4.5 -11.5t-4 -11.5t-13 -5zM20 113q9 0 15.5 11.5t6.5 32.5v262q0 20 -6.5 32t-15.5 12v2h237l8 -37h-5q-6 13 -20 19t-34 8.5
t-44 2.5h-50h-38v-168h97q20 0 31.5 7t11.5 14h4v-51h-4v1q0 8 -11.5 15t-31.5 7h-97v-165h43h51.5t44.5 2t35 8.5t22 18.5h4l-7 -36h-247v2z" />
    <glyph glyph-name="igrave" unicode="&#xec;" horiz-adv-x="116" 
d="M0 553h33l23 -51l-2 -2zM20 113q7 0 11 5t6.5 12t3.5 14.5t1 12.5v262q0 5 -1 12.5t-3.5 14.5t-6.5 12t-11 5v2h76v-2q-9 0 -15.5 -11.5t-6.5 -23.5v-280q0 -12 6.5 -23.5t15.5 -11.5v-2h-76v2z" />
    <glyph glyph-name="iacute" unicode="&#xed;" horiz-adv-x="116" 
d="M20 113q7 0 11 5t6.5 12t3.5 14.5t1 12.5v262q0 5 -1 12.5t-3.5 14.5t-6.5 12t-11 5v2h76v-2q-9 0 -15.5 -11.5t-6.5 -23.5v-280q0 -12 6.5 -23.5t15.5 -11.5v-2h-76v2zM80 553h33l-54 -53l-2 2z" />
    <glyph glyph-name="icircumflex" unicode="&#xee;" horiz-adv-x="116" 
d="M14 502l39 51h6l39 -51l-5 -2l-37 33l-37 -33zM20 113q7 0 11 5t6.5 12t3.5 14.5t1 12.5v262q0 5 -1 12.5t-3.5 14.5t-6.5 12t-11 5v2h76v-2q-9 0 -15.5 -11.5t-6.5 -23.5v-280q0 -12 6.5 -23.5t15.5 -11.5v-2h-76v2z" />
    <glyph glyph-name="idieresis" unicode="&#xef;" horiz-adv-x="116" 
d="M28 500q-8 0 -12 5t-4 11.5t4 11.5t12 5t12.5 -5t4.5 -11.5t-4 -11.5t-13 -5zM88 500q-9 0 -13 5t-4 11.5t4 11.5t13 5q8 0 12.5 -5t4.5 -11.5t-4 -11.5t-13 -5zM20 113q7 0 11 5t6.5 12t3.5 14.5t1 12.5v262q0 5 -1 12.5t-3.5 14.5t-6.5 12t-11 5v2h76v-2
q-9 0 -15.5 -11.5t-6.5 -23.5v-280q0 -12 6.5 -23.5t15.5 -11.5v-2h-76v2z" />
    <glyph glyph-name="eth" unicode="&#xf0;" horiz-adv-x="346" 
d="M159 465q36 0 68.5 -14t56.5 -38t38 -56t14 -69t-14 -69t-38 -56t-56.5 -38t-69.5 -14h-138v2q7 0 11.5 5t7 12t3.5 14.5t1 12.5v126h-23v10h23v126q0 20 -6.5 32t-16.5 12v2h139zM146 118q31 0 59.5 14t50.5 37.5t35 54.5t13 64t-13 64t-34.5 54.5t-50 37.5t-59.5 14
l-72 -1v-164h65v-10h-65v-165h71z" />
    <glyph glyph-name="ntilde" unicode="&#xf1;" horiz-adv-x="308" 
d="M169 508q-11 0 -21.5 3.5t-18.5 3.5q-6 0 -10.5 -3t-6.5 -12h-4q4 18 12 24t21 6q11 0 24 -3q17 -3 25 0t12 14h4q-4 -14 -12.5 -23.5t-24.5 -9.5zM298 465v-2q-10 0 -13.5 -10.5t-3.5 -24.5v-317h-8l-232 301l1 -264q0 -15 3 -25t13 -10v-2h-42v2h1q10 0 13.5 10.5
t3.5 23.5l-1 275l-33 43h42l231 -301v265q0 13 -3 23.5t-13 10.5h-1v2h42z" />
    <glyph glyph-name="ograve" unicode="&#xf2;" horiz-adv-x="374" 
d="M141 553h33l23 -51l-2 -2zM187 111q-37 0 -69 14t-56 38t-38 56t-14 69t14 69t38 56t56 38t69 14t69 -14t56 -38t38 -56t14 -69t-14 -69t-38 -56t-56 -38t-69 -14zM187 118q30 0 56 13.5t45.5 36.5t31 54t11.5 66t-11.5 66t-31 54t-45.5 36.5t-56 13.5t-56 -13.5
t-45.5 -36.5t-31 -54t-11.5 -66t11.5 -66t31 -54t45.5 -36.5t56 -13.5z" />
    <glyph glyph-name="oacute" unicode="&#xf3;" horiz-adv-x="374" 
d="M187 111q-37 0 -69 14t-56 38t-38 56t-14 69t14 69t38 56t56 38t69 14t69 -14t56 -38t38 -56t14 -69t-14 -69t-38 -56t-56 -38t-69 -14zM187 118q30 0 56 13.5t45.5 36.5t31 54t11.5 66t-11.5 66t-31 54t-45.5 36.5t-56 13.5t-56 -13.5t-45.5 -36.5t-31 -54t-11.5 -66
t11.5 -66t31 -54t45.5 -36.5t56 -13.5zM215 553h33l-54 -53l-2 2z" />
    <glyph glyph-name="ocircumflex" unicode="&#xf4;" horiz-adv-x="374" 
d="M145 502l39 51h6l39 -51l-5 -2l-37 33l-37 -33zM187 111q-37 0 -69 14t-56 38t-38 56t-14 69t14 69t38 56t56 38t69 14t69 -14t56 -38t38 -56t14 -69t-14 -69t-38 -56t-56 -38t-69 -14zM187 118q30 0 56 13.5t45.5 36.5t31 54t11.5 66t-11.5 66t-31 54t-45.5 36.5
t-56 13.5t-56 -13.5t-45.5 -36.5t-31 -54t-11.5 -66t11.5 -66t31 -54t45.5 -36.5t56 -13.5z" />
    <glyph glyph-name="otilde" unicode="&#xf5;" horiz-adv-x="374" 
d="M142 500q4 18 12 24t21 6q11 0 24 -3q17 -3 25 0t12 14h4q-4 -14 -12.5 -23.5t-24.5 -9.5q-11 0 -21.5 3.5t-18.5 3.5q-6 0 -10.5 -3t-6.5 -12h-4zM187 111q-37 0 -69 14t-56 38t-38 56t-14 69t14 69t38 56t56 38t69 14t69 -14t56 -38t38 -56t14 -69t-14 -69t-38 -56
t-56 -38t-69 -14zM187 118q30 0 56 13.5t45.5 36.5t31 54t11.5 66t-11.5 66t-31 54t-45.5 36.5t-56 13.5t-56 -13.5t-45.5 -36.5t-31 -54t-11.5 -66t11.5 -66t31 -54t45.5 -36.5t56 -13.5z" />
    <glyph glyph-name="odieresis" unicode="&#xf6;" horiz-adv-x="374" 
d="M162 500q-8 0 -12 5t-4 11.5t4 11.5t12 5t12.5 -5t4.5 -11.5t-4 -11.5t-13 -5zM222 500q-9 0 -13 5t-4 11.5t4 11.5t13 5q8 0 12.5 -5t4.5 -11.5t-4 -11.5t-13 -5zM187 111q-37 0 -69 14t-56 38t-38 56t-14 69t14 69t38 56t56 38t69 14t69 -14t56 -38t38 -56t14 -69
t-14 -69t-38 -56t-56 -38t-69 -14zM187 118q30 0 56 13.5t45.5 36.5t31 54t11.5 66t-11.5 66t-31 54t-45.5 36.5t-56 13.5t-56 -13.5t-45.5 -36.5t-31 -54t-11.5 -66t11.5 -66t31 -54t45.5 -36.5t56 -13.5z" />
    <glyph glyph-name="divide" unicode="&#xf7;" horiz-adv-x="160" 
d="M20 293h120v-10h-120v10zM80 309q-7 0 -10.5 4.5t-3.5 10.5t4 9q3 4 10 4q5 0 9.5 -4t4.5 -9t-4 -11q-6 -4 -10 -4zM80 239q-7 0 -10 4q-4 3 -4 10q0 6 4 10q6 4 10 4t10 -4q4 -6 4 -10q0 -14 -14 -14z" />
    <glyph glyph-name="oslash" unicode="&#xf8;" horiz-adv-x="374" 
d="M277 440q39 -23 63 -63t24 -89q0 -37 -14 -69t-38 -56t-56 -38t-69 -14q-44 0 -82 20l-11 -20h-13l14 26q-38 23 -61.5 63t-23.5 88q0 37 14 69t38 56t56 38t69 14q42 0 80 -19l11 19h13zM43 288q0 -43 16.5 -79t43.5 -59l158 284q-35 24 -74 24q-30 0 -56 -13.5
t-45.5 -36.5t-31 -54t-11.5 -66zM187 118q30 0 56 13.5t45.5 36.5t31 54t11.5 66q0 43 -16.5 79.5t-44.5 59.5l-158 -284q34 -25 75 -25z" />
    <glyph glyph-name="ugrave" unicode="&#xf9;" horiz-adv-x="326" 
d="M138 553h33l23 -51l-2 -2zM180 111q-23 0 -49 4.5t-48 16t-36.5 32t-14.5 53.5v202q0 5 -1 12.5t-3.5 14.5t-6.5 12t-11 5v2h76v-2q-10 0 -16 -11.5t-6 -23.5v-218q0 -16 6 -32.5t19.5 -29.5t35.5 -21.5t55 -8.5q22 0 42 7t35.5 19t25 29t9.5 37v231q-2 9 -5 15.5
t-11 6.5h-1v2h41v-2q-9 0 -12.5 -10.5t-3.5 -24.5v-214q0 -28 -12 -47.5t-30 -32t-39 -18t-39 -5.5z" />
    <glyph glyph-name="uacute" unicode="&#xfa;" horiz-adv-x="326" 
d="M180 111q-23 0 -49 4.5t-48 16t-36.5 32t-14.5 53.5v202q0 5 -1 12.5t-3.5 14.5t-6.5 12t-11 5v2h76v-2q-10 0 -16 -11.5t-6 -23.5v-218q0 -16 6 -32.5t19.5 -29.5t35.5 -21.5t55 -8.5q22 0 42 7t35.5 19t25 29t9.5 37v231q-2 9 -5 15.5t-11 6.5h-1v2h41v-2
q-9 0 -12.5 -10.5t-3.5 -24.5v-214q0 -28 -12 -47.5t-30 -32t-39 -18t-39 -5.5zM204 553h33l-54 -53l-2 2z" />
    <glyph glyph-name="ucircumflex" unicode="&#xfb;" horiz-adv-x="326" 
d="M133 502l39 51h6l39 -51l-5 -2l-37 33l-37 -33zM180 111q-23 0 -49 4.5t-48 16t-36.5 32t-14.5 53.5v202q0 5 -1 12.5t-3.5 14.5t-6.5 12t-11 5v2h76v-2q-10 0 -16 -11.5t-6 -23.5v-218q0 -16 6 -32.5t19.5 -29.5t35.5 -21.5t55 -8.5q22 0 42 7t35.5 19t25 29t9.5 37v231
q-2 9 -5 15.5t-11 6.5h-1v2h41v-2q-9 0 -12.5 -10.5t-3.5 -24.5v-214q0 -28 -12 -47.5t-30 -32t-39 -18t-39 -5.5z" />
    <glyph glyph-name="udieresis" unicode="&#xfc;" horiz-adv-x="326" 
d="M142 500q-8 0 -12 5t-4 11.5t4 11.5t12 5t12.5 -5t4.5 -11.5t-4 -11.5t-13 -5zM202 500q-9 0 -13 5t-4 11.5t4 11.5t13 5q8 0 12.5 -5t4.5 -11.5t-4 -11.5t-13 -5zM180 111q-23 0 -49 4.5t-48 16t-36.5 32t-14.5 53.5v202q0 5 -1 12.5t-3.5 14.5t-6.5 12t-11 5v2h76v-2
q-10 0 -16 -11.5t-6 -23.5v-218q0 -16 6 -32.5t19.5 -29.5t35.5 -21.5t55 -8.5q22 0 42 7t35.5 19t25 29t9.5 37v231q-2 9 -5 15.5t-11 6.5h-1v2h41v-2q-9 0 -12.5 -10.5t-3.5 -24.5v-214q0 -28 -12 -47.5t-30 -32t-39 -18t-39 -5.5z" />
    <glyph glyph-name="yacute" unicode="&#xfd;" horiz-adv-x="312" 
d="M302 465v-2q-7 0 -16 -8.5t-12 -13.5l-104 -172v-121q0 -12 6.5 -23.5t15.5 -11.5v-2h-76v2q8 0 15 10q7 14 7 34v113l-89 170q-7 13 -14.5 18t-14.5 5v2h64v-2h-2q-3 0 -4 -3.5t3 -9.5l73 -141l15 -27l99 165q3 5 4 10.5t-4 5.5h-4v2h38zM195 553h33l-54 -53l-2 2z" />
    <glyph glyph-name="thorn" unicode="&#xfe;" horiz-adv-x="284" 
d="M20 113q8 0 15 10q7 14 7 34v262v45.5t-3 28.5q-2 7 -6.5 13.5t-12.5 6.5v2h76v-2q-9 0 -15.5 -11.5t-6.5 -23.5v-13h22q35 0 67.5 -5t57 -17.5t39 -34t14.5 -53.5q0 -28 -8.5 -48.5t-22 -34.5t-30 -22t-33.5 -11l-11 -1q-18 -3 -41 -3q-14 -1 -28.5 -1h-25.5v-86
q0 -8 3 -16t8 -13q3 -4 9 -6h2v-2h-76v2zM74 241h14h35l20 2t19 3l13 3q38 11 52.5 37.5t14.5 67.5q0 32 -11.5 52t-30 31.5t-43 16t-50.5 4.5h-33v-217z" />
    <glyph glyph-name="ydieresis" unicode="&#xff;" horiz-adv-x="312" 
d="M133 500q-8 0 -12 5t-4 11.5t4 11.5t12 5t12.5 -5t4.5 -11.5t-4 -11.5t-13 -5zM193 500q-9 0 -13 5t-4 11.5t4 11.5t13 5q8 0 12.5 -5t4.5 -11.5t-4 -11.5t-13 -5zM302 465v-2q-7 0 -16 -8.5t-12 -13.5l-104 -172v-121q0 -12 6.5 -23.5t15.5 -11.5v-2h-76v2q8 0 15 10
q7 14 7 34v113l-89 170q-7 13 -14.5 18t-14.5 5v2h64v-2h-2q-3 0 -4 -3.5t3 -9.5l73 -141l15 -27l99 165q3 5 4 10.5t-4 5.5h-4v2h38z" />
    <glyph glyph-name="Amacron" unicode="&#x100;" horiz-adv-x="444" 
d="M266 534h-82v14h82v-14zM400 94q4 -12 11 -23t13 -11v-2h-64v2q7 0 10.5 7t-1.5 22q-5 14 -12.5 37t-18.5 52h-1q-17 47 -52.5 72.5t-86.5 25.5q-15 0 -31.5 -1.5t-35.5 -6.5q-2 0 -2.5 -0.5t-2.5 -0.5q-6 -18 -15.5 -45t-18.5 -53t-16 -47.5t-9 -28.5q-3 -10 -3 -18
q0 -15 9 -15v-2h-39v2q7 0 13.5 9t11.5 24q3 8 10 29t15.5 47t17.5 52t15 44q-45 -10 -67 -15.5t-37.5 -9t-35 -8t-60.5 -13.5q-32 -7 -61 -7q-30 0 -60 9.5t-57.5 26t-50.5 38.5t-38 47h1q29 -48 77.5 -76t104.5 -28q25 0 54 6l214 49q7 2 13 3l12 2q14 39 29.5 79t28.5 72
q15 38 29 73h33q36 -94 67 -176q13 -35 26.5 -71t25 -68.5t21 -59.5t14.5 -44zM333 192q-17 48 -37.5 102t-38.5 100l-40 106q-13 -33 -27 -69q-12 -30 -26.5 -67t-28.5 -73q23 3 41 3q52 0 93.5 -28t63.5 -74z" />
    <glyph glyph-name="amacron" unicode="&#x101;" 
d="M212 500h-82v14h82v-14zM305 147q4 -12 11 -23t14 -11v-2h-65v2q7 0 10.5 7t-1.5 22q-3 11 -7.5 24t-10.5 28q-24 2 -40.5 8t-31.5 14q-17 8 -35.5 15t-48.5 7q-8 0 -14.5 -1t-11.5 -2q-10 -26 -18 -49t-13 -40q-3 -10 -3 -18q0 -15 9 -15v-2h-39v2q7 0 13.5 9t11.5 24
l13.5 40.5t16.5 46.5l2 7q15 39 30.5 79t28.5 72q15 38 29 74h33q25 -65 48 -126q10 -25 20 -52t19 -52.5t17 -48t13 -39.5zM189 222q14 -8 29 -13.5t36 -7.5q-14 38 -30.5 81.5t-30.5 81.5l-34 88q-13 -33 -27 -69q-12 -30 -26.5 -67.5t-28.5 -73.5q9 3 23 3q32 0 52 -7.5
t37 -15.5z" />
    <glyph glyph-name="Abreve" unicode="&#x102;" horiz-adv-x="444" 
d="M226 533q-17 0 -27 10.5t-10 27.5l5 1q0 -11 9 -17.5t23 -6.5t24 6.5t10 16.5l5 1q0 -18 -11 -28.5t-28 -10.5zM400 94q4 -12 11 -23t13 -11v-2h-64v2q7 0 10.5 7t-1.5 22q-5 14 -12.5 37t-18.5 52h-1q-17 47 -52.5 72.5t-86.5 25.5q-15 0 -31.5 -1.5t-35.5 -6.5
q-2 0 -2.5 -0.5t-2.5 -0.5q-6 -18 -15.5 -45t-18.5 -53t-16 -47.5t-9 -28.5q-3 -10 -3 -18q0 -15 9 -15v-2h-39v2q7 0 13.5 9t11.5 24q3 8 10 29t15.5 47t17.5 52t15 44q-45 -10 -67 -15.5t-37.5 -9t-35 -8t-60.5 -13.5q-32 -7 -61 -7q-30 0 -60 9.5t-57.5 26t-50.5 38.5
t-38 47h1q29 -48 77.5 -76t104.5 -28q25 0 54 6l214 49q7 2 13 3l12 2q14 39 29.5 79t28.5 72q15 38 29 73h33q36 -94 67 -176q13 -35 26.5 -71t25 -68.5t21 -59.5t14.5 -44zM333 192q-17 48 -37.5 102t-38.5 100l-40 106q-13 -33 -27 -69q-12 -30 -26.5 -67t-28.5 -73
q23 3 41 3q52 0 93.5 -28t63.5 -74z" />
    <glyph glyph-name="abreve" unicode="&#x103;" 
d="M169 500q-17 0 -27 10.5t-10 27.5l5 1q0 -11 9 -17.5t23 -6.5t24 6.5t10 16.5l5 1q0 -18 -11 -28.5t-28 -10.5zM305 147q4 -12 11 -23t14 -11v-2h-65v2q7 0 10.5 7t-1.5 22q-3 11 -7.5 24t-10.5 28q-24 2 -40.5 8t-31.5 14q-17 8 -35.5 15t-48.5 7q-8 0 -14.5 -1
t-11.5 -2q-10 -26 -18 -49t-13 -40q-3 -10 -3 -18q0 -15 9 -15v-2h-39v2q7 0 13.5 9t11.5 24l13.5 40.5t16.5 46.5l2 7q15 39 30.5 79t28.5 72q15 38 29 74h33q25 -65 48 -126q10 -25 20 -52t19 -52.5t17 -48t13 -39.5zM189 222q14 -8 29 -13.5t36 -7.5q-14 38 -30.5 81.5
t-30.5 81.5l-34 88q-13 -33 -27 -69q-12 -30 -26.5 -67.5t-28.5 -73.5q9 3 23 3q32 0 52 -7.5t37 -15.5z" />
    <glyph glyph-name="Aogonek" unicode="&#x104;" horiz-adv-x="444" 
d="M397 58q-11 -11 -17 -22.5t2 -24.5q3 -5 10 -5q10 0 21 11l2 -1q-4 -8 -13 -15.5t-20 -7.5q-8 0 -14 6q-7 7 -7.5 15t3.5 16t11.5 15t16.5 13h-32v2q7 0 10.5 7t-1.5 22q-5 14 -12.5 37t-18.5 52h-1q-17 47 -52.5 72.5t-86.5 25.5q-15 0 -31.5 -1.5t-35.5 -6.5
q-2 0 -2.5 -0.5t-2.5 -0.5q-6 -18 -15.5 -45t-18.5 -53t-16 -47.5t-9 -28.5q-3 -10 -3 -18q0 -15 9 -15v-2h-39v2q7 0 13.5 9t11.5 24q3 8 10 29t15.5 47t17.5 52t15 44q-45 -10 -67 -15.5t-37.5 -9t-35 -8t-60.5 -13.5q-32 -7 -61 -7q-30 0 -60 9.5t-57.5 26t-50.5 38.5
t-38 47h1q29 -48 77.5 -76t104.5 -28q25 0 54 6l214 49q7 2 13 3l12 2q14 39 29.5 79t28.5 72q15 38 29 73h33q36 -94 67 -176q13 -35 26.5 -71t25 -68.5t21 -59.5t14.5 -44q4 -12 11 -23t13 -11v-2h-27zM333 192q-17 48 -37.5 102t-38.5 100l-40 106q-13 -33 -27 -69
q-12 -30 -26.5 -67t-28.5 -73q23 3 41 3q52 0 93.5 -28t63.5 -74z" />
    <glyph glyph-name="aogonek" unicode="&#x105;" 
d="M307 111q-8 -9 -13.5 -19t1.5 -20q3 -5 9 -5q9 0 18 10l2 -1q-3 -8 -11.5 -14t-17.5 -6q-7 0 -12 5q-11 12 -3 26t23 24h-38v2q7 0 10.5 7t-1.5 22q-3 11 -7.5 24t-10.5 28q-24 2 -40.5 8t-31.5 14q-17 8 -35.5 15t-48.5 7q-8 0 -14.5 -1t-11.5 -2q-10 -26 -18 -49
t-13 -40q-3 -10 -3 -18q0 -15 9 -15v-2h-39v2q7 0 13.5 9t11.5 24l13.5 40.5t16.5 46.5l2 7q15 39 30.5 79t28.5 72q15 38 29 74h33q25 -65 48 -126q10 -25 20 -52t19 -52.5t17 -48t13 -39.5q4 -12 11 -23t14 -11v-2h-23zM189 222q14 -8 29 -13.5t36 -7.5q-14 38 -30.5 81.5
t-30.5 81.5l-34 88q-13 -33 -27 -69q-12 -30 -26.5 -67.5t-28.5 -73.5q9 3 23 3q32 0 52 -7.5t37 -15.5z" />
    <glyph glyph-name="Cacute" unicode="&#x106;" horiz-adv-x="370" 
d="M17 285q0 54 13 104.5t40.5 90t71 63.5t103.5 24q29 0 51 -6t37 -13q17 -9 29 -20l10 -54h-4q-6 12 -15 27t-20 23q-45 35 -92 35q-18 0 -33 -4q-57 -16 -92.5 -62t-51 -105t-10.5 -123.5t30 -116.5q32 -68 89 -108.5t133 -40.5q40 0 83 13l1 -3q-21 -7 -43 -10t-43 -3
q-63 0 -115.5 21t-90.5 59.5t-59.5 91.5t-21.5 117zM238 585q3 6 4.5 10t4 9t5.5 12.5t8 19.5h34l-46 -46q-6 -6 -8 -7z" />
    <glyph glyph-name="cacute" unicode="&#x107;" horiz-adv-x="344" 
d="M195 111q-38 0 -71.5 13t-59 36.5t-40 56t-14.5 71.5q0 37 13.5 69t38 56t58.5 38t75 14q30 0 52 -5t37 -11q17 -7 29 -16l10 -48h-4q-20 39 -48.5 55.5t-73.5 16.5q-58 0 -96.5 -33.5t-52.5 -87.5q-16 -58 6 -113q18 -49 56 -77t90 -28q40 0 72.5 16t46.5 56h5l-10 -46
q-22 -18 -56.5 -25.5t-62.5 -7.5zM201 502q3 6 4.5 10t4 9t5.5 12.5t8 19.5h34l-46 -46q-6 -6 -8 -7z" />
    <glyph glyph-name="Cdotaccent" unicode="&#x10a;" horiz-adv-x="370" 
d="M243 583q-9 0 -14 5.5t-5 12t5 12t15 5.5q9 0 13.5 -5.5t4.5 -12t-5 -12t-14 -5.5zM17 285q0 54 13 104.5t40.5 90t71 63.5t103.5 24q29 0 51 -6t37 -13q17 -9 29 -20l10 -54h-4q-6 12 -15 27t-20 23q-45 35 -92 35q-18 0 -33 -4q-57 -16 -92.5 -62t-51 -105
t-10.5 -123.5t30 -116.5q32 -68 89 -108.5t133 -40.5q40 0 83 13l1 -3q-21 -7 -43 -10t-43 -3q-63 0 -115.5 21t-90.5 59.5t-59.5 91.5t-21.5 117z" />
    <glyph glyph-name="cdotaccent" unicode="&#x10b;" horiz-adv-x="344" 
d="M204 500q-9 0 -14 5.5t-5 12t5 12t15 5.5q9 0 13.5 -5.5t4.5 -12t-5 -12t-14 -5.5zM195 111q-38 0 -71.5 13t-59 36.5t-40 56t-14.5 71.5q0 37 13.5 69t38 56t58.5 38t75 14q30 0 52 -5t37 -11q17 -7 29 -16l10 -48h-4q-20 39 -48.5 55.5t-73.5 16.5q-58 0 -96.5 -33.5
t-52.5 -87.5q-16 -58 6 -113q18 -49 56 -77t90 -28q40 0 72.5 16t46.5 56h5l-10 -46q-22 -18 -56.5 -25.5t-62.5 -7.5z" />
    <glyph glyph-name="Ccaron" unicode="&#x10c;" horiz-adv-x="370" 
d="M201 755l5 2l37 -33l37 33l5 -2l-39 -51h-6zM17 285q0 54 13 104.5t40.5 90t71 63.5t103.5 24q29 0 51 -6t37 -13q17 -9 29 -20l10 -54h-4q-6 12 -15 27t-20 23q-45 35 -92 35q-18 0 -33 -4q-57 -16 -92.5 -62t-51 -105t-10.5 -123.5t30 -116.5q32 -68 89 -108.5
t133 -40.5q40 0 83 13l1 -3q-21 -7 -43 -10t-43 -3q-63 0 -115.5 21t-90.5 59.5t-59.5 91.5t-21.5 117z" />
    <glyph glyph-name="ccaron" unicode="&#x10d;" horiz-adv-x="344" 
d="M158 551l5 2l37 -33l37 33l5 -2l-39 -51h-6zM195 111q-38 0 -71.5 13t-59 36.5t-40 56t-14.5 71.5q0 37 13.5 69t38 56t58.5 38t75 14q30 0 52 -5t37 -11q17 -7 29 -16l10 -48h-4q-20 39 -48.5 55.5t-73.5 16.5q-58 0 -96.5 -33.5t-52.5 -87.5q-16 -58 6 -113
q18 -49 56 -77t90 -28q40 0 72.5 16t46.5 56h5l-10 -46q-22 -18 -56.5 -25.5t-62.5 -7.5z" />
    <glyph glyph-name="Dcaron" unicode="&#x10e;" horiz-adv-x="412" 
d="M90 672l5 2l37 -33l37 33l5 -2l-39 -51h-6zM26 60v2q9 0 15 12q7 12 7 32v318q0 5 -1 12t-3.5 14.5t-7 12.5t-10.5 5v2h76v-2q-9 0 -15.5 -11.5t-6.5 -22.5v-368l47 -1q55 -1 99.5 19t75.5 55.5t48 84.5t17 105q0 60 -19.5 108.5t-53 82.5t-77.5 52t-94 18
q-64 0 -116 -24.5t-82 -86.5q-17 -35 -19.5 -74t9.5 -77t36.5 -67.5t59.5 -46.5l-1 -2q-35 17 -59.5 46.5t-37.5 68.5q-13 38 -10 78t20 75q31 63 82.5 88.5t117.5 25.5q62 0 113.5 -19.5t89 -54.5t58.5 -84.5t21 -108.5q0 -36 -16.5 -82.5t-50.5 -87.5t-87 -69t-126 -28
h-99z" />
    <glyph glyph-name="dcaron" unicode="&#x10f;" horiz-adv-x="356" 
d="M20 113q7 0 11.5 5t7 12t3.5 14.5t1 12.5v262q0 20 -6.5 32t-16.5 12v2h139q36 0 68.5 -14t56.5 -38t38 -56t14 -69t-14 -69t-38 -56t-56.5 -38t-69.5 -14h-138v2zM318 449q-2 9 3.5 12.5t10.5 3.5q6 0 11 -4t3 -12l-12 -80h-4zM146 118q31 0 59.5 14t50.5 37.5t35 54.5
t13 64t-13 64t-34.5 54.5t-50 37.5t-59.5 14l-72 -1v-339h71z" />
    <glyph glyph-name="Dcroat" unicode="&#x110;" horiz-adv-x="412" 
d="M123 594q62 0 113.5 -19.5t89 -54.5t58.5 -84.5t21 -108.5q0 -36 -16.5 -82.5t-50.5 -87.5t-87 -69t-126 -28h-99v2q9 0 15 12q7 12 7 32v177h-28v10h28v131q0 5 -1 12t-3.5 14.5t-7 12.5t-10.5 5v2h76v-2q-9 0 -15.5 -11.5t-6.5 -22.5v-141h60v-10h-60v-217l47 -1
q55 -1 99.5 19t75.5 55.5t48 84.5t17 105q0 60 -19.5 108.5t-53 82.5t-77.5 52t-94 18q-64 0 -116 -24.5t-82 -86.5q-17 -35 -19.5 -74t9.5 -77t36.5 -67.5t59.5 -46.5l-1 -2q-35 17 -59.5 46.5t-37.5 68.5q-13 38 -10 78t20 75q31 63 82.5 88.5t117.5 25.5z" />
    <glyph glyph-name="dcroat" unicode="&#x111;" horiz-adv-x="346" 
d="M159 465q36 0 68.5 -14t56.5 -38t38 -56t14 -69t-14 -69t-38 -56t-56.5 -38t-69.5 -14h-138v2q7 0 11.5 5t7 12t3.5 14.5t1 12.5v126h-23v10h23v126q0 20 -6.5 32t-16.5 12v2h139zM146 118q31 0 59.5 14t50.5 37.5t35 54.5t13 64t-13 64t-34.5 54.5t-50 37.5t-59.5 14
l-72 -1v-164h65v-10h-65v-165h71z" />
    <glyph glyph-name="Emacron" unicode="&#x112;" horiz-adv-x="290" 
d="M124 548h82v-14h-82v14zM56 122q8 11 8 28v301q0 24 -1.5 34.5t-4.5 16.5q-7 12 -16 12v2h237l8 -37h-4q-6 13 -20.5 19t-34 8.5t-43.5 2t-50 -0.5h-39v-209h98q20 0 31 7t11 14h4v-51h-4v2q0 7 -11.5 14t-30.5 7h-98v-168q-11 1 -20.5 0.5t-19.5 -2.5zM357 -1
q-26 11 -42.5 18t-28 11.5t-21.5 9t-23.5 10t-33.5 14t-53 21.5q-57 23 -96 23q-32 0 -58 -14l-1 2q40 25 85 25q43 0 103 -24l202 -84q47 -19 87 -19q47 0 88.5 21t73.5 55l1 -1q-17 -19 -39 -35t-47.5 -28t-52 -18.5t-52.5 -6.5q-42 0 -92 20z" />
    <glyph glyph-name="emacron" unicode="&#x113;" horiz-adv-x="284" 
d="M114 514h82v-14h-82v14zM20 113q9 0 15.5 11.5t6.5 32.5v262q0 20 -6.5 32t-15.5 12v2h237l8 -37h-5q-6 13 -20 19t-34 8.5t-44 2.5h-50h-38v-168h97q20 0 31.5 7t11.5 14h4v-51h-4v1q0 8 -11.5 15t-31.5 7h-97v-165h43h51.5t44.5 2t35 8.5t22 18.5h4l-7 -36h-247v2z" />
    <glyph glyph-name="Edotaccent" unicode="&#x116;" horiz-adv-x="290" 
d="M171 533q-9 0 -14 5.5t-5 12t5 12t15 5.5q9 0 13.5 -5.5t4.5 -12t-5 -12t-14 -5.5zM56 122q8 11 8 28v301q0 24 -1.5 34.5t-4.5 16.5q-7 12 -16 12v2h237l8 -37h-4q-6 13 -20.5 19t-34 8.5t-43.5 2t-50 -0.5h-39v-209h98q20 0 31 7t11 14h4v-51h-4v2q0 7 -11.5 14
t-30.5 7h-98v-168q-11 1 -20.5 0.5t-19.5 -2.5zM357 -1q-26 11 -42.5 18t-28 11.5t-21.5 9t-23.5 10t-33.5 14t-53 21.5q-57 23 -96 23q-32 0 -58 -14l-1 2q40 25 85 25q43 0 103 -24l202 -84q47 -19 87 -19q47 0 88.5 21t73.5 55l1 -1q-17 -19 -39 -35t-47.5 -28t-52 -18.5
t-52.5 -6.5q-42 0 -92 20z" />
    <glyph glyph-name="edotaccent" unicode="&#x117;" horiz-adv-x="284" 
d="M149 500q-9 0 -14 5.5t-5 12t5 12t15 5.5q9 0 13.5 -5.5t4.5 -12t-5 -12t-14 -5.5zM20 113q9 0 15.5 11.5t6.5 32.5v262q0 20 -6.5 32t-15.5 12v2h237l8 -37h-5q-6 13 -20 19t-34 8.5t-44 2.5h-50h-38v-168h97q20 0 31.5 7t11.5 14h4v-51h-4v1q0 8 -11.5 15t-31.5 7h-97
v-165h43h51.5t44.5 2t35 8.5t22 18.5h4l-7 -36h-247v2z" />
    <glyph glyph-name="Eogonek" unicode="&#x118;" horiz-adv-x="290" 
d="M58 502q-7 12 -16 12v2h237l8 -37h-4q-6 13 -20.5 19t-34 8.5t-43.5 2t-50 -0.5h-39v-209h98q20 0 31 7t11 14h4v-51h-4v2q0 7 -11.5 14t-30.5 7h-98v-168q-11 1 -20.5 0.5t-19.5 -2.5q8 11 8 28v301q0 24 -1.5 34.5t-4.5 16.5zM640 67q-17 -19 -39 -35t-47.5 -28
t-52 -18.5t-52.5 -6.5q-42 0 -92 20q-26 11 -42.5 18t-28 11.5t-21.5 9t-23.5 10t-33.5 14t-53 21.5q-45 19 -83 22q-8 -9 -12 -19t3 -21q3 -5 10 -5q10 0 21 11l2 -1q-4 -8 -13 -15.5t-20 -7.5q-8 0 -14 6q-12 12 -5 26.5t21 26.5q-35 1 -64 -14l-1 2q40 25 85 25
q43 0 103 -24l202 -84q47 -19 87 -19q47 0 88.5 21t73.5 55z" />
    <glyph glyph-name="eogonek" unicode="&#x119;" horiz-adv-x="284" 
d="M163 111q-9 -10 -14.5 -21.5t2.5 -22.5q3 -5 10 -5q10 0 21 11l2 -1q-4 -8 -13 -15.5t-20 -7.5q-8 0 -14 6q-13 13 -4.5 29t24.5 27h-137v2q9 0 15.5 11.5t6.5 32.5v262q0 20 -6.5 32t-15.5 12v2h237l8 -37h-5q-6 13 -20 19t-34 8.5t-44 2.5h-50h-38v-168h97q20 0 31.5 7
t11.5 14h4v-51h-4v1q0 8 -11.5 15t-31.5 7h-97v-165h43h51.5t44.5 2t35 8.5t22 18.5h4l-7 -36h-104z" />
    <glyph glyph-name="Ecaron" unicode="&#x11a;" horiz-adv-x="290" 
d="M134 584l5 2l37 -33l37 33l5 -2l-39 -51h-6zM56 122q8 11 8 28v301q0 24 -1.5 34.5t-4.5 16.5q-7 12 -16 12v2h237l8 -37h-4q-6 13 -20.5 19t-34 8.5t-43.5 2t-50 -0.5h-39v-209h98q20 0 31 7t11 14h4v-51h-4v2q0 7 -11.5 14t-30.5 7h-98v-168q-11 1 -20.5 0.5
t-19.5 -2.5zM357 -1q-26 11 -42.5 18t-28 11.5t-21.5 9t-23.5 10t-33.5 14t-53 21.5q-57 23 -96 23q-32 0 -58 -14l-1 2q40 25 85 25q43 0 103 -24l202 -84q47 -19 87 -19q47 0 88.5 21t73.5 55l1 -1q-17 -19 -39 -35t-47.5 -28t-52 -18.5t-52.5 -6.5q-42 0 -92 20z" />
    <glyph glyph-name="ecaron" unicode="&#x11b;" horiz-adv-x="284" 
d="M108 551l5 2l37 -33l37 33l5 -2l-39 -51h-6zM20 113q9 0 15.5 11.5t6.5 32.5v262q0 20 -6.5 32t-15.5 12v2h237l8 -37h-5q-6 13 -20 19t-34 8.5t-44 2.5h-50h-38v-168h97q20 0 31.5 7t11.5 14h4v-51h-4v1q0 8 -11.5 15t-31.5 7h-97v-165h43h51.5t44.5 2t35 8.5t22 18.5h4
l-7 -36h-247v2z" />
    <glyph glyph-name="Gbreve" unicode="&#x11e;" horiz-adv-x="388" 
d="M220 533q-17 0 -27 10.5t-10 27.5l5 1q0 -11 9 -17.5t23 -6.5t24 6.5t10 16.5l5 1q0 -18 -11 -28.5t-28 -10.5zM357 297q8 6 22 11.5t29 5.5v-2q-14 0 -26 -5t-23 -13q-17 -12 -19.5 -33.5t-2.5 -54.5l-2 -130q0 -22 -10 -45.5t-25.5 -43t-35 -32t-38.5 -12.5v2
q17 0 31.5 9.5t24.5 26t15.5 37.5t5.5 44l1 68q-22 -10 -47 -14.5t-49 -4.5q-47 0 -86.5 18.5t-66.5 57.5q-16 22 -25.5 52.5t-9.5 78.5q0 39 14 75.5t38.5 64.5t59 44.5t75.5 16.5q30 0 52.5 -5t37.5 -11q17 -7 29 -16l10 -48h-5q-5 11 -14.5 25.5t-19.5 21.5
q-19 14 -41 21t-45 7q-31 0 -56.5 -10t-44 -28t-31.5 -42.5t-21 -52.5q-10 -38 -7.5 -79.5t16.5 -78.5q18 -49 56 -78t90 -29q31 0 49.5 6t41.5 26v44q1 38 15.5 63t37.5 42z" />
    <glyph glyph-name="gbreve" unicode="&#x11f;" horiz-adv-x="356" 
d="M196 500q-17 0 -27 10.5t-10 27.5l5 1q0 -11 9 -17.5t23 -6.5t24 6.5t10 16.5l5 1q0 -18 -11 -28.5t-28 -10.5zM346 271v-7h-2q-13 -1 -16.5 -9.5t-3.5 -21.5v-82l-18 -13q-22 -14 -53.5 -20.5t-57.5 -6.5q-39 0 -72.5 13t-58.5 36.5t-39.5 56t-14.5 71.5q0 37 13.5 69
t37.5 56t58 38t75 14q30 0 52 -5t37 -11q17 -7 29 -16l10 -48h-4q-20 39 -48.5 55.5t-73.5 16.5q-57 0 -96 -33.5t-53 -87.5q-7 -28 -6 -57t12 -56q19 -49 56.5 -77t89.5 -28q26 0 48.5 6t42.5 24l2 2v86q0 11 -8 19t-19 8h-41v8h122z" />
    <glyph glyph-name="Gdotaccent" unicode="&#x120;" horiz-adv-x="388" 
d="M205 533q-9 0 -14 5.5t-5 12t5 12t15 5.5q9 0 13.5 -5.5t4.5 -12t-5 -12t-14 -5.5zM357 297q8 6 22 11.5t29 5.5v-2q-14 0 -26 -5t-23 -13q-17 -12 -19.5 -33.5t-2.5 -54.5l-2 -130q0 -22 -10 -45.5t-25.5 -43t-35 -32t-38.5 -12.5v2q17 0 31.5 9.5t24.5 26t15.5 37.5
t5.5 44l1 68q-22 -10 -47 -14.5t-49 -4.5q-47 0 -86.5 18.5t-66.5 57.5q-16 22 -25.5 52.5t-9.5 78.5q0 39 14 75.5t38.5 64.5t59 44.5t75.5 16.5q30 0 52.5 -5t37.5 -11q17 -7 29 -16l10 -48h-5q-5 11 -14.5 25.5t-19.5 21.5q-19 14 -41 21t-45 7q-31 0 -56.5 -10t-44 -28
t-31.5 -42.5t-21 -52.5q-10 -38 -7.5 -79.5t16.5 -78.5q18 -49 56 -78t90 -29q31 0 49.5 6t41.5 26v44q1 38 15.5 63t37.5 42z" />
    <glyph glyph-name="gdotaccent" unicode="&#x121;" horiz-adv-x="356" 
d="M190 500q-9 0 -14 5.5t-5 12t5 12t15 5.5q9 0 13.5 -5.5t4.5 -12t-5 -12t-14 -5.5zM346 271v-7h-2q-13 -1 -16.5 -9.5t-3.5 -21.5v-82l-18 -13q-22 -14 -53.5 -20.5t-57.5 -6.5q-39 0 -72.5 13t-58.5 36.5t-39.5 56t-14.5 71.5q0 37 13.5 69t37.5 56t58 38t75 14
q30 0 52 -5t37 -11q17 -7 29 -16l10 -48h-4q-20 39 -48.5 55.5t-73.5 16.5q-57 0 -96 -33.5t-53 -87.5q-7 -28 -6 -57t12 -56q19 -49 56.5 -77t89.5 -28q26 0 48.5 6t42.5 24l2 2v86q0 11 -8 19t-19 8h-41v8h122z" />
    <glyph glyph-name="uni0122" unicode="&#x122;" horiz-adv-x="388" 
d="M357 297q8 6 22 11.5t29 5.5v-2q-14 0 -26 -5t-23 -13q-17 -12 -19.5 -33.5t-2.5 -54.5l-2 -130q0 -22 -10 -45.5t-25.5 -43t-35 -32t-38.5 -12.5v2q17 0 31.5 9.5t24.5 26t15.5 37.5t5.5 44l1 68q-22 -10 -47 -14.5t-49 -4.5q-47 0 -86.5 18.5t-66.5 57.5
q-16 22 -25.5 52.5t-9.5 78.5q0 39 14 75.5t38.5 64.5t59 44.5t75.5 16.5q30 0 52.5 -5t37.5 -11q17 -7 29 -16l10 -48h-5q-5 11 -14.5 25.5t-19.5 21.5q-19 14 -41 21t-45 7q-31 0 -56.5 -10t-44 -28t-31.5 -42.5t-21 -52.5q-10 -38 -7.5 -79.5t16.5 -78.5q18 -49 56 -78
t90 -29q31 0 49.5 6t41.5 26v44q1 38 15.5 63t37.5 42zM207 -87q13 3 23 -7q6 -8 6 -20q0 -15 -10 -27t-26 -12q-3 0 -3 2t3 2q26 6 26 26q0 7 -3 12l-2 -3q-4 -5 -11 -5q-8 0 -12 5q-4 4 -4 11q0 5 3 10q5 5 10 6z" />
    <glyph glyph-name="uni0123" unicode="&#x123;" horiz-adv-x="356" 
d="M346 271v-7h-2q-13 -1 -16.5 -9.5t-3.5 -21.5v-82l-18 -13q-22 -14 -53.5 -20.5t-57.5 -6.5q-39 0 -72.5 13t-58.5 36.5t-39.5 56t-14.5 71.5q0 37 13.5 69t37.5 56t58 38t75 14q30 0 52 -5t37 -11q17 -7 29 -16l10 -48h-4q-20 39 -48.5 55.5t-73.5 16.5q-57 0 -96 -33.5
t-53 -87.5q-7 -28 -6 -57t12 -56q19 -49 56.5 -77t89.5 -28q26 0 48.5 6t42.5 24l2 2v86q0 11 -8 19t-19 8h-41v8h122zM244 553l-46 -46q-6 -6 -8 -7l-2 2q3 6 4.5 10t4 9t5.5 12.5t8 19.5h34z" />
    <glyph glyph-name="Hbar" unicode="&#x126;" horiz-adv-x="352" 
d="M512 711q-38 -6 -66 -18.5t-53 -32.5q-32 -26 -48.5 -61t-23 -74t-6.5 -79.5v-78.5v-26h28v-12h-28v-172q0 -6 0.5 -12.5t2.5 -12.5l2 -5q2 -5 6.5 -9.5t10.5 -4.5v-2h-76v1q9 1 15.5 12.5t6.5 23.5v90q-30 0 -50 7.5t-37 16.5q-18 9 -39 16.5t-54 7.5q-8 0 -13 -0.5
t-10 -1.5q0 -27 0.5 -54t0.5 -54q0 -41 -4.5 -77t-16 -68.5t-32.5 -61t-54 -53.5q-26 -20 -57 -33.5t-66 -18.5l-1 2q38 6 66 18.5t53 32.5q32 26 48.5 61t23 74t6.5 79.5v77.5v120h-27v12h27v79q0 6 -0.5 12.5t-2.5 11.5l-2 6q-2 5 -6.5 9.5t-10.5 4.5v2h76v-2
q-9 0 -15.5 -12t-6.5 -23v-88h203q0 15 -0.5 30t-0.5 30q0 39 4.5 75.5t16 69.5t32.5 61.5t54 52.5q26 20 57 34t66 19zM283 245q0 21 -0.5 42t-0.5 42h-203q0 -9 0.5 -18.5t0.5 -18.5q5 1 10.5 1.5t12.5 0.5q35 0 56.5 -8t41.5 -18q17 -9 35 -16t47 -7z" />
    <glyph glyph-name="hbar" unicode="&#x127;" horiz-adv-x="362" 
d="M342 463q-9 0 -15.5 -11.5t-6.5 -23.5v-72h17v-10h-17v-198q0 -12 6.5 -23.5t15.5 -11.5v-2h-76v2q8 0 15 10q7 14 7 34v80q-29 0 -49 7.5t-38 16.5t-39 16.5t-53 7.5q-14 0 -23 -2t-12 -4v-131q0 -12 6.5 -23.5t15.5 -11.5v-2h-76v2q8 0 15 10q7 14 7 34v189h-20v10h20
v63q0 6 -0.5 12.5t-2.5 11.5q-2 7 -6.5 13.5t-12.5 6.5v2h76v-2q-9 0 -15.5 -11.5t-6.5 -23.5v-72h214v63q0 5 -1 12.5t-3.5 14.5t-6.5 12t-11 5v2h76v-2zM288 346h-214v-58q5 2 14 3.5t21 1.5q35 0 56.5 -8t40.5 -18q18 -8 36.5 -15.5t45.5 -7.5v102z" />
    <glyph glyph-name="Itilde" unicode="&#x128;" horiz-adv-x="116" 
d="M20 60q7 0 11 5t6.5 12t3.5 14.5t1 12.5v365q0 13 -3 25q-2 6 -6.5 13t-12.5 7v2h76v-2q-9 0 -15.5 -12t-6.5 -23v-384q0 -11 6.5 -23t15.5 -12v-2h-76v2zM70 541q-11 0 -21.5 3.5t-18.5 3.5q-6 0 -10.5 -3t-6.5 -12h-4q4 18 12 24t21 6q11 0 24 -3q17 -3 25 0t12 14h4
q-4 -14 -12.5 -23.5t-24.5 -9.5z" />
    <glyph glyph-name="itilde" unicode="&#x129;" horiz-adv-x="116" 
d="M20 113q7 0 11 5t6.5 12t3.5 14.5t1 12.5v262q0 5 -1 12.5t-3.5 14.5t-6.5 12t-11 5v2h76v-2q-9 0 -15.5 -11.5t-6.5 -23.5v-280q0 -12 6.5 -23.5t15.5 -11.5v-2h-76v2zM70 508q-11 0 -21.5 3.5t-18.5 3.5q-6 0 -10.5 -3t-6.5 -12h-4q4 18 12 24t21 6q11 0 24 -3
q17 -3 25 0t12 14h4q-4 -14 -12.5 -23.5t-24.5 -9.5z" />
    <glyph glyph-name="Imacron" unicode="&#x12a;" horiz-adv-x="116" 
d="M20 548h82v-14h-82v14zM20 60q7 0 11 5t6.5 12t3.5 14.5t1 12.5v365q0 13 -3 25q-2 6 -6.5 13t-12.5 7v2h76v-2q-9 0 -15.5 -12t-6.5 -23v-384q0 -11 6.5 -23t15.5 -12v-2h-76v2z" />
    <glyph glyph-name="imacron" unicode="&#x12b;" horiz-adv-x="116" 
d="M17 514h82v-14h-82v14zM20 113q7 0 11 5t6.5 12t3.5 14.5t1 12.5v262q0 5 -1 12.5t-3.5 14.5t-6.5 12t-11 5v2h76v-2q-9 0 -15.5 -11.5t-6.5 -23.5v-280q0 -12 6.5 -23.5t15.5 -11.5v-2h-76v2z" />
    <glyph glyph-name="Iogonek" unicode="&#x12e;" horiz-adv-x="116" 
d="M74 95q0 -11 6.5 -23t15.5 -12v-2h-31q-11 -11 -17 -22.5t2 -24.5q3 -5 10 -5q10 0 21 11l2 -1q-4 -8 -13 -15.5t-20 -7.5q-8 0 -14 6q-7 7 -7.5 15t3.5 16t11.5 15t16.5 13h-40v2q7 0 11 5t6.5 12t3.5 14.5t1 12.5v365q0 13 -3 25q-2 6 -6.5 13t-12.5 7v2h76v-2
q-9 0 -15.5 -12t-6.5 -23v-384z" />
    <glyph glyph-name="iogonek" unicode="&#x12f;" horiz-adv-x="116" 
d="M58 500q-9 0 -14 5.5t-5 12t5 12t15 5.5q9 0 13.5 -5.5t4.5 -12t-5 -12t-14 -5.5zM74 148q0 -12 6.5 -23.5t15.5 -11.5v-2h-37q-11 -11 -17 -22.5t2 -24.5q3 -5 10 -5q10 0 21 11l2 -1q-4 -8 -13 -15.5t-20 -7.5q-8 0 -14 6q-7 7 -7.5 15t3.5 16t11.5 15t16.5 13h-34v2
q7 0 11 5t6.5 12t3.5 14.5t1 12.5v262q0 5 -1 12.5t-3.5 14.5t-6.5 12t-11 5v2h76v-2q-9 0 -15.5 -11.5t-6.5 -23.5v-280z" />
    <glyph glyph-name="Idotaccent" unicode="&#x130;" horiz-adv-x="116" 
d="M57 533q-9 0 -14 5.5t-5 12t5 12t15 5.5q9 0 13.5 -5.5t4.5 -12t-5 -12t-14 -5.5zM20 60q7 0 11 5t6.5 12t3.5 14.5t1 12.5v365q0 13 -3 25q-2 6 -6.5 13t-12.5 7v2h76v-2q-9 0 -15.5 -12t-6.5 -23v-384q0 -11 6.5 -23t15.5 -12v-2h-76v2z" />
    <glyph glyph-name="dotlessi" unicode="&#x131;" horiz-adv-x="116" 
d="M20 113q7 0 11 5t6.5 12t3.5 14.5t1 12.5v262q0 5 -1 12.5t-3.5 14.5t-6.5 12t-11 5v2h76v-2q-9 0 -15.5 -11.5t-6.5 -23.5v-280q0 -12 6.5 -23.5t15.5 -11.5v-2h-76v2z" />
    <glyph glyph-name="uni0136" unicode="&#x136;" horiz-adv-x="322" 
d="M448 -85q-36 6 -66 22.5t-54 40.5t-42.5 54t-30.5 63l-70 179q-8 20 -19.5 41t-34.5 27q-4 2 -7 1l-50 -53v-142q0 -12 6.5 -23.5t15.5 -11.5v-2h-76v2q8 0 15 10q7 14 7 34v312q0 13 -3 25q-2 6 -6.5 13t-12.5 7v2h76v-2q-7 0 -14 -9l-3 -5q-5 -12 -5 -21v-178l171 183
q8 8 3.5 19t-16.5 11v1h70v-1q-17 0 -35 -18l-141 -151q34 -1 56.5 -18.5t37.5 -49.5q26 -54 45 -111.5t43 -107.5t57.5 -87.5t87.5 -52.5q30 -9 59 -9q33 0 69 10l1 -2q-34 -10 -70 -10q-17 0 -32.5 2t-31.5 6zM143 30q-3 0 -3 2t3 2q26 6 26 26q0 8 -3 12l-2 -3
q-4 -5 -11 -5q-8 0 -12 5q-4 4 -4 11q0 6 3 10q5 5 10 6q13 3 23 -7q6 -7 6 -20q0 -15 -10 -27t-26 -12z" />
    <glyph glyph-name="uni0137" unicode="&#x137;" horiz-adv-x="320" 
d="M20 113q7 0 11.5 5t7 12t3.5 14.5t1 12.5v262q0 14 -4 25q-2 6 -6.5 12.5t-12.5 6.5v2h77v-2q-10 0 -16 -11.5t-6 -23.5v-154l151 159q8 9 3 19.5t-16 10.5v2h69v-2q-7 0 -16.5 -4.5t-17.5 -12.5l-120 -127q33 0 54 -16t34 -47l37 -90q9 -22 16 -34t21 -17q5 -1 10 -1.5
t10 -0.5v-2q-8 -1 -16.5 0t-14.5 2q-21 5 -36 19t-26 41l-37 91q-19 45 -47 52q-2 1 -7 1l-51 -55v-114q0 -12 6 -23.5t16 -11.5v-2h-77v2zM120 40q-3 0 -3 2t3 2q26 6 26 26q0 8 -3 12l-2 -3q-4 -5 -11 -5q-8 0 -12 5q-4 4 -4 11q0 6 3 10q5 5 10 6q13 3 23 -7q6 -7 6 -20
q0 -15 -10 -27t-26 -12z" />
    <glyph glyph-name="Lacute" unicode="&#x139;" horiz-adv-x="226" 
d="M363 -19q-27 11 -43.5 18t-28 11.5t-21.5 9t-23.5 10t-33.5 14t-53 21.5q-57 23 -96 23q-42 0 -71.5 -21.5t-50.5 -55.5h-2q23 39 63 64.5t87 25.5q43 0 103 -24l202 -84q47 -19 87 -19q46 0 89 21t73 55l2 -1q-18 -19 -40.5 -35t-47.5 -28t-52 -18.5t-53 -6.5
q-40 0 -90 20zM62 105q8 13 8 27v28v309q0 13 -3 25q-2 6 -6.5 13t-12.5 7v2h76v-2q-9 0 -15.5 -12t-6.5 -23v-373q-20 1 -41 -2zM86 535q3 6 4.5 10t4 9t5.5 12.5t8 19.5h34l-46 -46q-6 -6 -8 -7z" />
    <glyph glyph-name="lacute" unicode="&#x13a;" horiz-adv-x="284" 
d="M20 113q8 0 15 10q7 12 7 26.5v28.5v241q0 5 -1 12.5t-3.5 14.5t-6.5 12t-11 5v2h76v-2q-9 0 -15.5 -11.5t-6.5 -23.5v-310h43h51.5t44.5 2t35 8.5t22 18.5h4l-7 -36h-247v2zM56 502q3 6 4.5 10t4 9t5.5 12.5t8 19.5h34l-46 -46q-6 -6 -8 -7z" />
    <glyph glyph-name="uni013B" unicode="&#x13b;" horiz-adv-x="226" 
d="M62 105q8 13 8 27v28v309q0 13 -3 25q-2 6 -6.5 13t-12.5 7v2h76v-2q-9 0 -15.5 -12t-6.5 -23v-373q-20 1 -41 -2zM363 -19q-27 11 -43.5 18t-28 11.5t-21.5 9t-23.5 10t-33.5 14t-53 21.5q-57 23 -96 23q-42 0 -71.5 -21.5t-50.5 -55.5h-2q23 39 63 64.5t87 25.5
q43 0 103 -24l202 -84q47 -19 87 -19q46 0 89 21t73 55l2 -1q-18 -19 -40.5 -35t-47.5 -28t-52 -18.5t-53 -6.5q-40 0 -90 20zM70 -6q-3 0 -3 2t3 2q26 6 26 26q0 8 -3 12l-2 -3q-4 -5 -11 -5q-8 0 -12 5q-4 4 -4 11q0 6 3 10q5 5 10 6q13 3 23 -7q6 -7 6 -20q0 -15 -10 -27
t-26 -12z" />
    <glyph glyph-name="uni013C" unicode="&#x13c;" horiz-adv-x="284" 
d="M20 113q8 0 15 10q7 12 7 26.5v28.5v241q0 5 -1 12.5t-3.5 14.5t-6.5 12t-11 5v2h76v-2q-9 0 -15.5 -11.5t-6.5 -23.5v-310h43h51.5t44.5 2t35 8.5t22 18.5h4l-7 -36h-247v2zM128 35q-3 0 -3 2t3 2q26 6 26 26q0 8 -3 12l-2 -3q-4 -5 -11 -5q-8 0 -12 5q-4 4 -4 11
q0 6 3 10q5 5 10 6q13 3 23 -7q6 -7 6 -20q0 -15 -10 -27t-26 -12z" />
    <glyph glyph-name="Lcaron" unicode="&#x13d;" horiz-adv-x="226" 
d="M62 105q8 13 8 27v28v309q0 13 -3 25q-2 6 -6.5 13t-12.5 7v2h76v-2q-9 0 -15.5 -12t-6.5 -23v-373q-20 1 -41 -2zM134 500q-2 8 3.5 12t10.5 4q6 0 10.5 -4.5t3.5 -11.5l-12 -80h-4zM363 -19q-27 11 -43.5 18t-28 11.5t-21.5 9t-23.5 10t-33.5 14t-53 21.5
q-57 23 -96 23q-42 0 -71.5 -21.5t-50.5 -55.5h-2q23 39 63 64.5t87 25.5q43 0 103 -24l202 -84q47 -19 87 -19q46 0 89 21t73 55l2 -1q-18 -19 -40.5 -35t-47.5 -28t-52 -18.5t-53 -6.5q-40 0 -90 20z" />
    <glyph glyph-name="lcaron" unicode="&#x13e;" horiz-adv-x="284" 
d="M20 113q8 0 15 10q7 12 7 26.5v28.5v241q0 5 -1 12.5t-3.5 14.5t-6.5 12t-11 5v2h76v-2q-9 0 -15.5 -11.5t-6.5 -23.5v-310h43h51.5t44.5 2t35 8.5t22 18.5h4l-7 -36h-247v2zM112 449q-2 9 3.5 12.5t10.5 3.5q6 0 11 -4t3 -12l-12 -80h-4z" />
    <glyph glyph-name="Lslash" unicode="&#x141;" horiz-adv-x="226" 
d="M70 289v180q0 13 -3 25q-2 6 -6.5 13t-12.5 7v2h76v-2q-9 0 -15.5 -12t-6.5 -23v-133l66 119h13l-79 -142v-217q-20 1 -41 -2l1 1q8 13 8 27v28v106l-86 -155h-13zM646 49q-18 -19 -40.5 -35t-47.5 -28t-52 -18.5t-53 -6.5q-40 0 -90 20q-27 11 -43.5 18t-28 11.5
t-21.5 9t-23.5 10t-33.5 14t-53 21.5q-57 23 -96 23q-42 0 -71.5 -21.5t-50.5 -55.5h-2q23 39 63 64.5t87 25.5q43 0 103 -24l202 -84q47 -19 87 -19q46 0 89 21t73 55z" />
    <glyph glyph-name="lslash" unicode="&#x142;" horiz-adv-x="284" 
d="M274 147l-7 -36h-247v2q8 0 15 10q7 12 7 26.5v28.5v73l-78 -140h-13l91 164v144q0 5 -1 12.5t-3.5 14.5t-6.5 12t-11 5v2h76v-2q-9 0 -15.5 -11.5t-6.5 -23.5v-96l74 133h13l-87 -156v-191h43h51.5t44.5 2t35 8.5t22 18.5h4z" />
    <glyph glyph-name="Nacute" unicode="&#x143;" horiz-adv-x="400" 
d="M640 -24q-39 -13 -82 -13q-50 0 -88 15t-68.5 40.5t-56.5 60t-51 74.5q-27 42 -45 71t-37.5 58t-44.5 66t-65 94l-40 55l1 -343q0 -17 4 -29t15 -12v-2h-48v2h2q11 0 14.5 12.5t3.5 26.5l-1 356q-18 23 -36 38.5t-37.5 25.5t-42.5 14t-51 4q-17 0 -36 -2.5t-39 -9.5l-1 2
q39 13 82 13q14 0 26.5 -1.5t25.5 -3.5q34 -6 57.5 -14t45 -24.5t45 -45t56.5 -75.5q30 -42 51.5 -73.5t41.5 -62t41 -63.5t49 -78v323q0 14 -3.5 26.5t-14.5 12.5h-2v2h48v-2q-11 0 -14.5 -12t-3.5 -29l-1 -313v-22l3 -5q20 -32 41.5 -62.5t47 -54t57.5 -37.5t73 -14
q37 0 77 13zM255 586l-46 -46q-6 -6 -8 -7l-2 2q3 6 4.5 10t4 9t5.5 12.5t8 19.5h34z" />
    <glyph glyph-name="nacute" unicode="&#x144;" horiz-adv-x="308" 
d="M298 465v-2q-10 0 -13.5 -10.5t-3.5 -24.5v-317h-8l-232 301l1 -264q0 -15 3 -25t13 -10v-2h-42v2h1q10 0 13.5 10.5t3.5 23.5l-1 275l-33 43h42l231 -301v265q0 13 -3 23.5t-13 10.5h-1v2h42zM220 553l-46 -46q-6 -6 -8 -7l-2 2q3 6 4.5 10t4 9t5.5 12.5t8 19.5h34z" />
    <glyph glyph-name="uni0145" unicode="&#x145;" horiz-adv-x="400" 
d="M640 -24q-39 -13 -82 -13q-50 0 -88 15t-68.5 40.5t-56.5 60t-51 74.5q-27 42 -45 71t-37.5 58t-44.5 66t-65 94l-40 55l1 -343q0 -17 4 -29t15 -12v-2h-48v2h2q11 0 14.5 12.5t3.5 26.5l-1 356q-18 23 -36 38.5t-37.5 25.5t-42.5 14t-51 4q-17 0 -36 -2.5t-39 -9.5l-1 2
q39 13 82 13q14 0 26.5 -1.5t25.5 -3.5q34 -6 57.5 -14t45 -24.5t45 -45t56.5 -75.5q30 -42 51.5 -73.5t41.5 -62t41 -63.5t49 -78v323q0 14 -3.5 26.5t-14.5 12.5h-2v2h48v-2q-11 0 -14.5 -12t-3.5 -29l-1 -313v-22l3 -5q20 -32 41.5 -62.5t47 -54t57.5 -37.5t73 -14
q37 0 77 13zM204 99q13 3 23 -7q6 -7 6 -20q0 -15 -10 -27t-26 -12q-3 0 -3 2t3 2q26 6 26 26q0 8 -3 12l-2 -3q-4 -5 -11 -5q-8 0 -12 5q-4 4 -4 11q0 6 3 10q5 5 10 6z" />
    <glyph glyph-name="uni0146" unicode="&#x146;" horiz-adv-x="308" 
d="M298 465v-2q-10 0 -13.5 -10.5t-3.5 -24.5v-317h-8l-232 301l1 -264q0 -15 3 -25t13 -10v-2h-42v2h1q10 0 13.5 10.5t3.5 23.5l-1 275l-33 43h42l231 -301v265q0 13 -3 23.5t-13 10.5h-1v2h42zM153 105q13 3 23 -7q6 -7 6 -20q0 -15 -10 -27t-26 -12q-3 0 -3 2t3 2
q26 6 26 26q0 8 -3 12l-2 -3q-4 -5 -11 -5q-8 0 -12 5q-4 4 -4 11q0 6 3 10q5 5 10 6z" />
    <glyph glyph-name="Ncaron" unicode="&#x147;" horiz-adv-x="400" 
d="M640 -24q-39 -13 -82 -13q-50 0 -88 15t-68.5 40.5t-56.5 60t-51 74.5q-27 42 -45 71t-37.5 58t-44.5 66t-65 94l-40 55l1 -343q0 -17 4 -29t15 -12v-2h-48v2h2q11 0 14.5 12.5t3.5 26.5l-1 356q-18 23 -36 38.5t-37.5 25.5t-42.5 14t-51 4q-17 0 -36 -2.5t-39 -9.5l-1 2
q39 13 82 13q14 0 26.5 -1.5t25.5 -3.5q34 -6 57.5 -14t45 -24.5t45 -45t56.5 -75.5q30 -42 51.5 -73.5t41.5 -62t41 -63.5t49 -78v323q0 14 -3.5 26.5t-14.5 12.5h-2v2h48v-2q-11 0 -14.5 -12t-3.5 -29l-1 -313v-22l3 -5q20 -32 41.5 -62.5t47 -54t57.5 -37.5t73 -14
q37 0 77 13zM198 533l-39 51l5 2l37 -33l37 33l5 -2l-39 -51h-6z" />
    <glyph glyph-name="ncaron" unicode="&#x148;" horiz-adv-x="308" 
d="M154 500l-39 51l5 2l37 -33l37 33l5 -2l-39 -51h-6zM298 465v-2q-10 0 -13.5 -10.5t-3.5 -24.5v-317h-8l-232 301l1 -264q0 -15 3 -25t13 -10v-2h-42v2h1q10 0 13.5 10.5t3.5 23.5l-1 275l-33 43h42l231 -301v265q0 13 -3 23.5t-13 10.5h-1v2h42z" />
    <glyph glyph-name="Eng" unicode="&#x14a;" horiz-adv-x="123" 
d="M333 36q-9 0 -13 6t-6 11h2q5 -12 14 -12q6 0 10.5 5t4.5 14q0 13 -6.5 22t-14.5 21q-20 32 -36.5 58t-32.5 51t-33.5 51.5t-40 59.5t-51.5 75.5t-68 98.5l1 -343q0 -17 4 -29t15 -12v-2h-48v2h2q11 0 14.5 12.5t3.5 26.5l-1 356q-18 23 -36 38.5t-37.5 25.5t-42.5 14
t-51 4q-17 0 -36 -2.5t-39 -9.5l-1 2q39 13 82 13q14 0 26.5 -1.5t25.5 -3.5q34 -6 57.5 -14t45 -24.5t45 -45t56.5 -75.5q29 -41 50.5 -72t41.5 -61.5t41.5 -64t49.5 -79.5v323q0 14 -3.5 26.5t-14.5 12.5h-2v2h48v-2q-11 0 -14.5 -12t-3.5 -29l-1 -313v-23q2 -3 4.5 -6.5
t4.5 -7.5q10 -15 12.5 -30.5t0 -28t-10 -20.5t-18.5 -8z" />
    <glyph glyph-name="eng" unicode="&#x14b;" horiz-adv-x="308" 
d="M281 152q0 -21 -2 -37q-2 -14 -6.5 -26t-15.5 -12q-9 0 -13 6t-6 11h2q5 -12 14 -12q6 0 10.5 5t4.5 14q0 13 -6.5 22.5t-14.5 20.5l-207 268l1 -264q0 -15 3 -25t13 -10v-2h-42v2h1q10 0 13.5 10.5t3.5 23.5l-1 275l-33 43h42l231 -301v265q0 13 -3 23.5t-13 10.5h-1v2
h42v-2q-10 0 -13.5 -10.5t-3.5 -24.5v-276z" />
    <glyph glyph-name="Omacron" unicode="&#x14c;" horiz-adv-x="466" 
d="M201 548h82v-14h-82v14zM238 60q-47 0 -88.5 18t-72.5 49t-49 72.5t-18 88.5t18 88.5t49 72.5t72.5 49t88.5 18t88.5 -18t72.5 -49t49 -72.5t18 -88.5t-18 -88.5t-49 -72.5t-72.5 -49t-88.5 -18zM238 69q40 0 75.5 17t61.5 47t41.5 70t15.5 85t-15.5 84.5t-41.5 69.5
t-61.5 47t-75.5 17t-75.5 -17t-61.5 -47t-41.5 -69.5t-15.5 -84.5t15.5 -85t41.5 -70t61.5 -47t75.5 -17z" />
    <glyph glyph-name="omacron" unicode="&#x14d;" horiz-adv-x="374" 
d="M140 514h82v-14h-82v14zM187 111q-37 0 -69 14t-56 38t-38 56t-14 69t14 69t38 56t56 38t69 14t69 -14t56 -38t38 -56t14 -69t-14 -69t-38 -56t-56 -38t-69 -14zM187 118q30 0 56 13.5t45.5 36.5t31 54t11.5 66t-11.5 66t-31 54t-45.5 36.5t-56 13.5t-56 -13.5
t-45.5 -36.5t-31 -54t-11.5 -66t11.5 -66t31 -54t45.5 -36.5t56 -13.5z" />
    <glyph glyph-name="Ohungarumlaut" unicode="&#x150;" horiz-adv-x="466" 
d="M204 535l26 51h31l-55 -53zM266 533l-1 1l-1 1l27 51h31q-11 -11 -21 -20t-18 -17q-9 -9 -17 -16zM238 60q-47 0 -88.5 18t-72.5 49t-49 72.5t-18 88.5t18 88.5t49 72.5t72.5 49t88.5 18t88.5 -18t72.5 -49t49 -72.5t18 -88.5t-18 -88.5t-49 -72.5t-72.5 -49t-88.5 -18z
M238 69q40 0 75.5 17t61.5 47t41.5 70t15.5 85t-15.5 84.5t-41.5 69.5t-61.5 47t-75.5 17t-75.5 -17t-61.5 -47t-41.5 -69.5t-15.5 -84.5t15.5 -85t41.5 -70t61.5 -47t75.5 -17z" />
    <glyph glyph-name="ohungarumlaut" unicode="&#x151;" horiz-adv-x="374" 
d="M160 502l26 51h31l-55 -53zM222 500l-1 1l-1 1l27 51h31q-11 -11 -21 -20t-18 -17q-9 -9 -17 -16zM187 111q-37 0 -69 14t-56 38t-38 56t-14 69t14 69t38 56t56 38t69 14t69 -14t56 -38t38 -56t14 -69t-14 -69t-38 -56t-56 -38t-69 -14zM187 118q30 0 56 13.5t45.5 36.5
t31 54t11.5 66t-11.5 66t-31 54t-45.5 36.5t-56 13.5t-56 -13.5t-45.5 -36.5t-31 -54t-11.5 -66t11.5 -66t31 -54t45.5 -36.5t56 -13.5z" />
    <glyph glyph-name="OE" unicode="&#x152;" horiz-adv-x="660" 
d="M238 60q-47 0 -88.5 18t-72.5 49t-49 72.5t-18 88.5t18 88.5t49 72.5t72.5 49t88.5 18q63 0 114.5 -30.5t81.5 -81.5v47q0 24 -1.5 34.5t-4.5 16.5q-7 12 -16 12v2h237l8 -37h-4q-6 13 -20.5 19t-34 8.5t-43.5 2t-50 -0.5h-39v-209h98q20 0 31 7t11 14h4v-51h-4v2
q0 7 -11.5 14t-30.5 7h-98v-168q-11 1 -20.5 0.5t-19.5 -2.5q8 11 8 28v21q-30 -50 -81.5 -80.5t-114.5 -30.5zM238 69q40 0 75.5 17t61.5 47t41.5 70t15.5 85t-15.5 84.5t-41.5 69.5t-61.5 47t-75.5 17t-75.5 -17t-61.5 -47t-41.5 -69.5t-15.5 -84.5t15.5 -85t41.5 -70
t61.5 -47t75.5 -17zM727 -1q-26 11 -42.5 18t-28 11.5t-21.5 9t-23.5 10t-33.5 14t-53 21.5q-57 23 -96 23q-32 0 -58 -14l-1 2q21 13 42 19.5t44 6.5q43 0 102 -25l202 -84q23 -10 44.5 -14t41.5 -4q48 0 89.5 20t73.5 55l1 -1q-17 -19 -39.5 -35t-48 -28t-52 -19t-51.5 -7
q-20 0 -43 5t-49 16z" />
    <glyph glyph-name="oe" unicode="&#x153;" horiz-adv-x="574" 
d="M187 111q-37 0 -69 14t-56 38t-38 56t-14 69t14 69t38 56t56 38t69 14q45 0 83 -20.5t62 -54.5v29q0 20 -6.5 32t-15.5 12v2h237l8 -37h-5q-6 13 -20 19t-34 8.5t-44 2.5h-50h-38v-168h97q20 0 31.5 7t11.5 14h4v-51h-4v1q0 8 -11.5 15t-31.5 7h-97v-165h43h51.5t44.5 2
t35 8.5t22 18.5h4l-7 -36h-247v2q9 0 15.5 11.5t6.5 32.5v29q-24 -34 -62 -54.5t-83 -20.5zM187 118q30 0 56 13.5t45.5 36.5t31 54t11.5 66t-11.5 66t-31 54t-45.5 36.5t-56 13.5t-56 -13.5t-45.5 -36.5t-31 -54t-11.5 -66t11.5 -66t31 -54t45.5 -36.5t56 -13.5z" />
    <glyph glyph-name="Racute" unicode="&#x154;" horiz-adv-x="376" 
d="M429 -32q-26 7 -46 18t-36.5 25t-31 31.5t-30.5 37.5q-19 26 -37.5 52t-38.5 52q-12 17 -24.5 25t-32.5 10l-15 1h-51v-73q0 -11 6.5 -23t15.5 -12v-2h-76v2q7 0 11.5 5t6.5 12.5t3 15t1 12.5v312q0 5 -1 12.5t-3 15t-6.5 12.5t-11.5 5v2h76v-2q-8 0 -15 -11.5t-7 -22.5
l1 -255h41q41 0 75 10q8 3 16.5 6t16.5 7q8 5 15 9.5t15 10.5q17 13 28.5 31.5t18.5 39t10 42.5t3 41q0 44 -13.5 83t-38 68t-59 46t-76.5 17q-43 0 -81 -15t-66 -41.5t-44 -63t-16 -80.5q0 -54 25.5 -97.5t68.5 -72.5v-2q-45 26 -70.5 73.5t-25.5 98.5q0 44 16 81.5
t44.5 64.5t66.5 42t82 15q54 0 95.5 -18.5t69 -49t41.5 -70t14 -82.5q0 -40 -14 -74t-38 -59.5t-57 -41.5t-72 -20l4 -1q20 -2 38 -11.5t31 -26.5q16 -21 30.5 -41.5t29.5 -41.5l18 -25q20 -25 38 -46.5t39 -36.5t46 -23.5t59 -8.5q38 0 84 15l1 -2q-23 -8 -48 -12t-49 -4
q-22 0 -42 3zM151 678q3 6 4.5 10t4 9t5.5 12.5t8 19.5h34l-46 -46q-6 -6 -8 -7z" />
    <glyph glyph-name="racute" unicode="&#x155;" horiz-adv-x="318" 
d="M308 115q4 1 6 1t4 1v-2q-8 -2 -11 -2t-9 -1q-21 -2 -39 5t-35 26l-59 63q-12 13 -23 20t-23 9q-12 -1 -23.5 -1h-21.5v-86q0 -8 3 -16t8 -13q5 -4 9 -6h2v-2h-76v2q8 0 15 10q7 14 7 34v262q0 6 -0.5 12.5t-2.5 11.5q-2 7 -6.5 13.5t-12.5 6.5v2h76q35 0 67.5 -5
t57 -17.5t39 -34t14.5 -53.5q0 -28 -8.5 -48.5t-22 -34.5t-30 -22t-33.5 -11l-11 -1q-2 0 -3 -0.5t-3 -0.5q10 -4 19.5 -10t19.5 -17l58 -63q14 -15 23.5 -24t24.5 -8zM198 553l-46 -46q-6 -6 -8 -7l-2 2q3 6 4.5 10t4 9t5.5 12.5t8 19.5h34zM74 241h14h35l20 2t19 3l13 3
q38 11 52.5 37.5t14.5 67.5q0 32 -11.5 52t-30 31.5t-43 16t-50.5 4.5h-33v-217z" />
    <glyph glyph-name="uni0156" unicode="&#x156;" horiz-adv-x="376" 
d="M429 -32q-26 7 -46 18t-36.5 25t-31 31.5t-30.5 37.5q-19 26 -37.5 52t-38.5 52q-12 17 -24.5 25t-32.5 10l-15 1h-51v-73q0 -11 6.5 -23t15.5 -12v-2h-76v2q7 0 11.5 5t6.5 12.5t3 15t1 12.5v312q0 5 -1 12.5t-3 15t-6.5 12.5t-11.5 5v2h76v-2q-8 0 -15 -11.5t-7 -22.5
l1 -255h41q41 0 75 10q8 3 16.5 6t16.5 7q8 5 15 9.5t15 10.5q17 13 28.5 31.5t18.5 39t10 42.5t3 41q0 44 -13.5 83t-38 68t-59 46t-76.5 17q-43 0 -81 -15t-66 -41.5t-44 -63t-16 -80.5q0 -54 25.5 -97.5t68.5 -72.5v-2q-45 26 -70.5 73.5t-25.5 98.5q0 44 16 81.5
t44.5 64.5t66.5 42t82 15q54 0 95.5 -18.5t69 -49t41.5 -70t14 -82.5q0 -40 -14 -74t-38 -59.5t-57 -41.5t-72 -20l4 -1q20 -2 38 -11.5t31 -26.5q16 -21 30.5 -41.5t29.5 -41.5l18 -25q20 -25 38 -46.5t39 -36.5t46 -23.5t59 -8.5q38 0 84 15l1 -2q-23 -8 -48 -12t-49 -4
q-22 0 -42 3zM156 18q-3 0 -3 2t3 2q26 6 26 26q0 8 -3 12l-2 -3q-4 -5 -11 -5q-8 0 -12 5q-4 4 -4 11q0 6 3 10q5 5 10 6q13 3 23 -7q6 -7 6 -20q0 -15 -10 -27t-26 -12z" />
    <glyph glyph-name="uni0157" unicode="&#x157;" horiz-adv-x="318" 
d="M308 115q4 1 6 1t4 1v-2q-8 -2 -11 -2t-9 -1q-21 -2 -39 5t-35 26l-59 63q-12 13 -23 20t-23 9q-12 -1 -23.5 -1h-21.5v-86q0 -8 3 -16t8 -13q5 -4 9 -6h2v-2h-76v2q8 0 15 10q7 14 7 34v262q0 6 -0.5 12.5t-2.5 11.5q-2 7 -6.5 13.5t-12.5 6.5v2h76q35 0 67.5 -5
t57 -17.5t39 -34t14.5 -53.5q0 -28 -8.5 -48.5t-22 -34.5t-30 -22t-33.5 -11l-11 -1q-2 0 -3 -0.5t-3 -0.5q10 -4 19.5 -10t19.5 -17l58 -63q14 -15 23.5 -24t24.5 -8zM74 241h14h35l20 2t19 3l13 3q38 11 52.5 37.5t14.5 67.5q0 32 -11.5 52t-30 31.5t-43 16t-50.5 4.5h-33
v-217zM158 102q13 3 23 -7q6 -7 6 -20q0 -15 -10 -27t-26 -12q-3 0 -3 2t3 2q26 6 26 26q0 8 -3 12l-2 -3q-4 -5 -11 -5q-8 0 -12 5q-4 4 -4 11q0 6 3 10q5 5 10 6z" />
    <glyph glyph-name="Rcaron" unicode="&#x158;" horiz-adv-x="376" 
d="M89 717l5 2l37 -33l37 33l5 -2l-39 -51h-6zM429 -32q-26 7 -46 18t-36.5 25t-31 31.5t-30.5 37.5q-19 26 -37.5 52t-38.5 52q-12 17 -24.5 25t-32.5 10l-15 1h-51v-73q0 -11 6.5 -23t15.5 -12v-2h-76v2q7 0 11.5 5t6.5 12.5t3 15t1 12.5v312q0 5 -1 12.5t-3 15t-6.5 12.5
t-11.5 5v2h76v-2q-8 0 -15 -11.5t-7 -22.5l1 -255h41q41 0 75 10q8 3 16.5 6t16.5 7q8 5 15 9.5t15 10.5q17 13 28.5 31.5t18.5 39t10 42.5t3 41q0 44 -13.5 83t-38 68t-59 46t-76.5 17q-43 0 -81 -15t-66 -41.5t-44 -63t-16 -80.5q0 -54 25.5 -97.5t68.5 -72.5v-2
q-45 26 -70.5 73.5t-25.5 98.5q0 44 16 81.5t44.5 64.5t66.5 42t82 15q54 0 95.5 -18.5t69 -49t41.5 -70t14 -82.5q0 -40 -14 -74t-38 -59.5t-57 -41.5t-72 -20l4 -1q20 -2 38 -11.5t31 -26.5q16 -21 30.5 -41.5t29.5 -41.5l18 -25q20 -25 38 -46.5t39 -36.5t46 -23.5
t59 -8.5q38 0 84 15l1 -2q-23 -8 -48 -12t-49 -4q-22 0 -42 3z" />
    <glyph glyph-name="rcaron" unicode="&#x159;" horiz-adv-x="318" 
d="M139 500l-39 51l5 2l37 -33l37 33l5 -2l-39 -51h-6zM308 115q4 1 6 1t4 1v-2q-8 -2 -11 -2t-9 -1q-21 -2 -39 5t-35 26l-59 63q-12 13 -23 20t-23 9q-12 -1 -23.5 -1h-21.5v-86q0 -8 3 -16t8 -13q5 -4 9 -6h2v-2h-76v2q8 0 15 10q7 14 7 34v262q0 6 -0.5 12.5t-2.5 11.5
q-2 7 -6.5 13.5t-12.5 6.5v2h76q35 0 67.5 -5t57 -17.5t39 -34t14.5 -53.5q0 -28 -8.5 -48.5t-22 -34.5t-30 -22t-33.5 -11l-11 -1q-2 0 -3 -0.5t-3 -0.5q10 -4 19.5 -10t19.5 -17l58 -63q14 -15 23.5 -24t24.5 -8zM74 241h14h35l20 2t19 3l13 3q38 11 52.5 37.5t14.5 67.5
q0 32 -11.5 52t-30 31.5t-43 16t-50.5 4.5h-33v-217z" />
    <glyph glyph-name="Sacute" unicode="&#x15a;" horiz-adv-x="338" 
d="M86 -90q-45 0 -83 14t-65.5 39t-42.5 59.5t-15 74.5q0 37 14.5 70.5t39 59.5t58 41.5t70.5 15.5v-2q-37 0 -70 -15.5t-57.5 -41t-38.5 -59t-14 -69.5q0 -43 17 -77t45 -58t65 -36.5t77 -12.5q54 0 93 18t64.5 46.5t37.5 63.5t12 70q0 45 -20 78.5t-49.5 60.5t-64.5 49
t-64.5 42t-49.5 40t-20 44q0 23 10 40t25.5 28t35.5 16.5t40 5.5q38 0 76 -16q5 -2 9.5 -4.5t9.5 -5.5q1 -1 3.5 -2t2.5 -2l8 -44h-4q-4 8 -9 17t-10 14q-14 18 -39.5 27t-51.5 9q-15 0 -30 -5.5t-26 -15t-18 -23t-7 -29.5q0 -17 20.5 -34t51.5 -36t67 -42.5t67 -54.5
t51.5 -70.5t20.5 -91.5q0 -31 -15 -65.5t-45 -63.5t-75.5 -48t-106.5 -19zM138 535q3 6 4.5 10t4 9t5.5 12.5t8 19.5h34l-46 -46q-6 -6 -8 -7z" />
    <glyph glyph-name="sacute" unicode="&#x15b;" horiz-adv-x="294" 
d="M141 111q-11 0 -25.5 1.5t-29.5 5t-29 9t-23 12.5q-1 0 -4 1.5t-3 2.5l-7 47h4l3 -7q21 -53 79 -62q10 -1 19.5 -2t19.5 -1q20 0 41.5 5t39.5 15.5t30 27t12 40.5t-17.5 39.5t-44 27.5t-57 22.5t-57 23t-44 29.5t-17.5 42q0 21 12 35.5t30 23.5t39 12.5t38 3.5
q26 0 53.5 -7t49.5 -21q1 -1 4 -2.5t3 -2.5l9 -47h-4q-34 73 -119 73q-14 0 -31 -3t-32 -9.5t-25 -18t-10 -28.5q0 -18 17.5 -30t43.5 -22t57 -20t57 -24.5t43.5 -35.5t17.5 -52q0 -28 -13.5 -48t-34 -32.5t-46 -18t-49.5 -5.5zM165 502q3 6 4.5 10t4 9t5.5 12.5t8 19.5h34
l-46 -46q-6 -6 -8 -7z" />
    <glyph glyph-name="Scedilla" unicode="&#x15e;" horiz-adv-x="338" 
d="M328 106q0 -31 -15 -65.5t-45 -63.5t-75.5 -48t-105.5 -19l-5 -5q7 0 11 -3q4 -4 4 -9q0 -6 -4 -9q-8 -8 -19 -2q-4 1 -4 3v1q2 0 3 -1q6 -2 7 -2q2 0 6 2q5 5 3 12q0 6 -8 6h-2v1l5 6q-45 0 -82.5 14.5t-64.5 39.5t-42 59t-15 74q0 37 14.5 70.5t39 59.5t58 41.5
t70.5 15.5v-2q-37 0 -70 -15.5t-57.5 -41t-38.5 -59t-14 -69.5q0 -43 17 -77t45 -58t65 -36.5t77 -12.5q54 0 93 18t64.5 46.5t37.5 63.5t12 70q0 45 -20 78.5t-49.5 60.5t-64.5 49t-64.5 42t-49.5 40t-20 44q0 23 10 40t25.5 28t35.5 16.5t40 5.5q38 0 76 -16
q5 -2 9.5 -4.5t9.5 -5.5q1 -1 3.5 -2t2.5 -2l8 -44h-4q-4 8 -9 17t-10 14q-14 18 -39.5 27t-51.5 9q-15 0 -30 -5.5t-26 -15t-18 -23t-7 -29.5q0 -17 20.5 -34t51.5 -36t67 -42.5t67 -54.5t51.5 -70.5t20.5 -91.5z" />
    <glyph glyph-name="scedilla" unicode="&#x15f;" horiz-adv-x="294" 
d="M48 399q0 -18 17.5 -30t43.5 -22t57 -20t57 -24.5t43.5 -35.5t17.5 -52q0 -28 -13 -48t-34 -32.5t-46 -18t-49 -5.5l-8 -8q10 0 17 -6q6 -6 6 -13q0 -9 -6 -15q-7 -6 -17 -6q-7 0 -13 3t-6 6q0 1 1 1q2 0 4 -2q6 -3 11 -3q3 0 9 4q9 7 5 18q-1 5 -4.5 7t-8.5 2h-3v2l9 10
q-11 0 -25 1.5t-28.5 5t-28 9t-22.5 12.5q-1 0 -4 1.5t-3 2.5l-7 47h4l3 -7q21 -53 79 -62q10 -1 19.5 -2t19.5 -1q20 0 41.5 5t39.5 15.5t30 27t12 40.5t-17.5 39.5t-44 27.5t-57 22.5t-57 23t-44 29.5t-17.5 42q0 21 12 35.5t30 23.5t39 12.5t38 3.5q26 0 53.5 -7
t49.5 -21q1 -1 4 -2.5t3 -2.5l9 -47h-4q-34 73 -119 73q-14 0 -31 -3t-32 -9.5t-25 -18t-10 -28.5z" />
    <glyph glyph-name="Scaron" unicode="&#x160;" horiz-adv-x="338" 
d="M92 584l5 2l37 -33l37 33l5 -2l-39 -51h-6zM86 -90q-45 0 -83 14t-65.5 39t-42.5 59.5t-15 74.5q0 37 14.5 70.5t39 59.5t58 41.5t70.5 15.5v-2q-37 0 -70 -15.5t-57.5 -41t-38.5 -59t-14 -69.5q0 -43 17 -77t45 -58t65 -36.5t77 -12.5q54 0 93 18t64.5 46.5t37.5 63.5
t12 70q0 45 -20 78.5t-49.5 60.5t-64.5 49t-64.5 42t-49.5 40t-20 44q0 23 10 40t25.5 28t35.5 16.5t40 5.5q38 0 76 -16q5 -2 9.5 -4.5t9.5 -5.5q1 -1 3.5 -2t2.5 -2l8 -44h-4q-4 8 -9 17t-10 14q-14 18 -39.5 27t-51.5 9q-15 0 -30 -5.5t-26 -15t-18 -23t-7 -29.5
q0 -17 20.5 -34t51.5 -36t67 -42.5t67 -54.5t51.5 -70.5t20.5 -91.5q0 -31 -15 -65.5t-45 -63.5t-75.5 -48t-106.5 -19z" />
    <glyph glyph-name="scaron" unicode="&#x161;" horiz-adv-x="294" 
d="M110 551l5 2l37 -33l37 33l5 -2l-39 -51h-6zM141 111q-11 0 -25.5 1.5t-29.5 5t-29 9t-23 12.5q-1 0 -4 1.5t-3 2.5l-7 47h4l3 -7q21 -53 79 -62q10 -1 19.5 -2t19.5 -1q20 0 41.5 5t39.5 15.5t30 27t12 40.5t-17.5 39.5t-44 27.5t-57 22.5t-57 23t-44 29.5t-17.5 42
q0 21 12 35.5t30 23.5t39 12.5t38 3.5q26 0 53.5 -7t49.5 -21q1 -1 4 -2.5t3 -2.5l9 -47h-4q-34 73 -119 73q-14 0 -31 -3t-32 -9.5t-25 -18t-10 -28.5q0 -18 17.5 -30t43.5 -22t57 -20t57 -24.5t43.5 -35.5t17.5 -52q0 -28 -13.5 -48t-34 -32.5t-46 -18t-49.5 -5.5z" />
    <glyph glyph-name="uni0162" unicode="&#x162;" horiz-adv-x="226" 
d="M576 538l-2 -1q-30 34 -73.5 55t-88.5 21q-40 0 -87 -19l-190 -79v-367q0 -12 6.5 -23.5t16.5 -12.5v-1h-33l-8 -8q9 0 17 -5t8 -15q0 -11 -7.5 -17t-18.5 -6q-7 0 -13 3q-7 4 -7 7l1 1q3 0 4 -2q8 -3 12 -3q7 0 11 4q8 8 5 20q-1 5 -5 7t-9 2h-4v3l9 9h-39v2q7 0 11.5 5
t7 12t3.5 14.5t1 12.5v345q-45 -16 -83 -16q-46 0 -87 25.5t-64 64.5h2q21 -34 50.5 -55.5t71.5 -21.5q39 0 96 23q33 13 53 21.5t33.5 14t23.5 10t21.5 9t28 11.5t43.5 18q50 20 90 20q26 0 53 -6.5t52 -18.5t47.5 -28t40.5 -35z" />
    <glyph glyph-name="uni0163" unicode="&#x163;" 
d="M330 428h-4q-6 13 -16 19t-24.5 8.5t-34 2.5h-45.5h-20v-310q0 -12 6.5 -23.5t15.5 -12.5v-1h-35l-9 -9q11 0 21 -7t10 -19q0 -13 -9.5 -20.5t-21.5 -7.5q-5 0 -16 3t-11 9q0 2 2 2t5 -3q8 -4 15 -4q6 0 13 5q10 10 7 25q-2 6 -7 9t-11 3h-5v3l11 11h-35v2q8 0 15 10
q7 14 7 34v301h-20h-45t-34.5 -2.5t-24.5 -8.5t-16 -19h-4l8 37h304z" />
    <glyph glyph-name="Tcaron" unicode="&#x164;" horiz-adv-x="226" 
d="M576 538l-2 -1q-30 34 -73.5 55t-88.5 21q-40 0 -87 -19l-190 -79v-367q0 -12 6.5 -23.5t16.5 -12.5v-1h-77v2q7 0 11.5 5t7 12t3.5 14.5t1 12.5v345q-45 -16 -83 -16q-46 0 -87 25.5t-64 64.5h2q21 -34 50.5 -55.5t71.5 -21.5q39 0 96 23q33 13 53 21.5t33.5 14t23.5 10
t21.5 9t28 11.5t43.5 18q50 20 90 20q26 0 53 -6.5t52 -18.5t47.5 -28t40.5 -35zM114 569l-39 51l5 2l37 -33l37 33l5 -2l-39 -51h-6z" />
    <glyph glyph-name="tcaron" unicode="&#x165;" 
d="M124 551l5 2l37 -33l37 33l5 -2l-39 -51h-6zM132 113q8 0 15 10q7 14 7 34v301h-20h-45t-34.5 -2.5t-24.5 -8.5t-16 -19h-4l8 37h304l8 -37h-4q-6 13 -16 19t-24.5 8.5t-34 2.5h-45.5h-20v-310q0 -12 6.5 -23.5t15.5 -12.5v-1h-76v2z" />
    <glyph glyph-name="Tbar" unicode="&#x166;" horiz-adv-x="226" 
d="M576 538l-2 -1q-30 34 -73.5 55t-88.5 21q-40 0 -87 -19l-190 -79v-222h44v-10h-44v-135q0 -12 6.5 -23.5t16.5 -12.5v-1h-77v2q7 0 11.5 5t7 12t3.5 14.5t1 12.5v126h-45v10h45v209q-45 -16 -83 -16q-46 0 -87 25.5t-64 64.5h2q21 -34 50.5 -55.5t71.5 -21.5q39 0 96 23
q33 13 53 21.5t33.5 14t23.5 10t21.5 9t28 11.5t43.5 18q50 20 90 20q26 0 53 -6.5t52 -18.5t47.5 -28t40.5 -35z" />
    <glyph glyph-name="tbar" unicode="&#x167;" 
d="M330 428h-4q-6 13 -16 19t-24.5 8.5t-34 2.5h-45.5h-20v-165h45v-10h-45v-135q0 -12 6.5 -23.5t15.5 -12.5v-1h-76v2q8 0 15 10q7 14 7 34v126h-43v10h43v165h-20h-45t-34.5 -2.5t-24.5 -8.5t-16 -19h-4l8 37h304z" />
    <glyph glyph-name="Utilde" unicode="&#x168;" horiz-adv-x="388" 
d="M213 75q-32 0 -62 8t-53 25t-37 44t-14 65v177q0 38 -1 87t-8.5 98t-23.5 91.5t-46 66.5q-25 20 -52.5 32.5t-65.5 18.5v2q50 -8 98 -35t78 -69q17 -22 27 -55t16 -68.5t8 -70.5t2 -62q0 -55 -0.5 -110t-0.5 -110q0 -62 36.5 -95t98.5 -33q30 0 54.5 12.5t41.5 31.5
t26 41.5t9 42.5v281q-2 9 -5 16t-11 7h-1v2h41v-2q-9 0 -12.5 -10.5t-3.5 -25.5v-264q0 -28 -11 -53t-30 -44t-44 -30.5t-54 -11.5zM225 541q-11 0 -21.5 3.5t-18.5 3.5q-6 0 -10.5 -3t-6.5 -12h-4q4 18 12 24t21 6q11 0 24 -3q17 -3 25 0t12 14h4q-4 -14 -12.5 -23.5
t-24.5 -9.5z" />
    <glyph glyph-name="utilde" unicode="&#x169;" horiz-adv-x="326" 
d="M180 111q-23 0 -49 4.5t-48 16t-36.5 32t-14.5 53.5v202q0 5 -1 12.5t-3.5 14.5t-6.5 12t-11 5v2h76v-2q-10 0 -16 -11.5t-6 -23.5v-218q0 -16 6 -32.5t19.5 -29.5t35.5 -21.5t55 -8.5q22 0 42 7t35.5 19t25 29t9.5 37v231q-2 9 -5 15.5t-11 6.5h-1v2h41v-2
q-9 0 -12.5 -10.5t-3.5 -24.5v-214q0 -28 -12 -47.5t-30 -32t-39 -18t-39 -5.5zM192 508q-11 0 -21.5 3.5t-18.5 3.5q-6 0 -10.5 -3t-6.5 -12h-4q4 18 12 24t21 6q11 0 24 -3q17 -3 25 0t12 14h4q-4 -14 -12.5 -23.5t-24.5 -9.5z" />
    <glyph glyph-name="Umacron" unicode="&#x16a;" horiz-adv-x="388" 
d="M213 75q-32 0 -62 8t-53 25t-37 44t-14 65v177q0 38 -1 87t-8.5 98t-23.5 91.5t-46 66.5q-25 20 -52.5 32.5t-65.5 18.5v2q50 -8 98 -35t78 -69q17 -22 27 -55t16 -68.5t8 -70.5t2 -62q0 -55 -0.5 -110t-0.5 -110q0 -62 36.5 -95t98.5 -33q30 0 54.5 12.5t41.5 31.5
t26 41.5t9 42.5v281q-2 9 -5 16t-11 7h-1v2h41v-2q-9 0 -12.5 -10.5t-3.5 -25.5v-264q0 -28 -11 -53t-30 -44t-44 -30.5t-54 -11.5zM163 548h82v-14h-82v14z" />
    <glyph glyph-name="umacron" unicode="&#x16b;" horiz-adv-x="326" 
d="M132 514h82v-14h-82v14zM180 111q-23 0 -49 4.5t-48 16t-36.5 32t-14.5 53.5v202q0 5 -1 12.5t-3.5 14.5t-6.5 12t-11 5v2h76v-2q-10 0 -16 -11.5t-6 -23.5v-218q0 -16 6 -32.5t19.5 -29.5t35.5 -21.5t55 -8.5q22 0 42 7t35.5 19t25 29t9.5 37v231q-2 9 -5 15.5t-11 6.5
h-1v2h41v-2q-9 0 -12.5 -10.5t-3.5 -24.5v-214q0 -28 -12 -47.5t-30 -32t-39 -18t-39 -5.5z" />
    <glyph glyph-name="Uring" unicode="&#x16e;" horiz-adv-x="388" 
d="M213 75q-32 0 -62 8t-53 25t-37 44t-14 65v177q0 38 -1 87t-8.5 98t-23.5 91.5t-46 66.5q-25 20 -52.5 32.5t-65.5 18.5v2q50 -8 98 -35t78 -69q17 -22 27 -55t16 -68.5t8 -70.5t2 -62q0 -55 -0.5 -110t-0.5 -110q0 -62 36.5 -95t98.5 -33q30 0 54.5 12.5t41.5 31.5
t26 41.5t9 42.5v281q-2 9 -5 16t-11 7h-1v2h41v-2q-9 0 -12.5 -10.5t-3.5 -25.5v-264q0 -28 -11 -53t-30 -44t-44 -30.5t-54 -11.5zM213 533q-9 0 -14 6t-5 12.5t5 12.5t14 6q10 0 15 -6t5 -12.5t-5 -12.5t-15 -6zM213 540q6 0 9 3.5t3 8t-3 8t-9 3.5t-8.5 -3.5t-2.5 -8
t2.5 -8t8.5 -3.5z" />
    <glyph glyph-name="uring" unicode="&#x16f;" horiz-adv-x="326" 
d="M171 500q-9 0 -14 6t-5 12.5t5 12.5t14 6q10 0 15 -6t5 -12.5t-5 -12.5t-15 -6zM171 507q6 0 9 3.5t3 8t-3 8t-9 3.5t-8.5 -3.5t-2.5 -8t2.5 -8t8.5 -3.5zM180 111q-23 0 -49 4.5t-48 16t-36.5 32t-14.5 53.5v202q0 5 -1 12.5t-3.5 14.5t-6.5 12t-11 5v2h76v-2
q-10 0 -16 -11.5t-6 -23.5v-218q0 -16 6 -32.5t19.5 -29.5t35.5 -21.5t55 -8.5q22 0 42 7t35.5 19t25 29t9.5 37v231q-2 9 -5 15.5t-11 6.5h-1v2h41v-2q-9 0 -12.5 -10.5t-3.5 -24.5v-214q0 -28 -12 -47.5t-30 -32t-39 -18t-39 -5.5z" />
    <glyph glyph-name="Uhungarumlaut" unicode="&#x170;" horiz-adv-x="388" 
d="M213 75q-32 0 -62 8t-53 25t-37 44t-14 65v177q0 38 -1 87t-8.5 98t-23.5 91.5t-46 66.5q-25 20 -52.5 32.5t-65.5 18.5v2q50 -8 98 -35t78 -69q17 -22 27 -55t16 -68.5t8 -70.5t2 -62q0 -55 -0.5 -110t-0.5 -110q0 -62 36.5 -95t98.5 -33q30 0 54.5 12.5t41.5 31.5
t26 41.5t9 42.5v281q-2 9 -5 16t-11 7h-1v2h41v-2q-9 0 -12.5 -10.5t-3.5 -25.5v-264q0 -28 -11 -53t-30 -44t-44 -30.5t-54 -11.5zM167 535l26 51h31l-55 -53zM229 533l-1 1l-1 1l27 51h31q-11 -11 -21 -20t-18 -17q-9 -9 -17 -16z" />
    <glyph glyph-name="uhungarumlaut" unicode="&#x171;" horiz-adv-x="326" 
d="M121 502l26 51h31l-55 -53zM183 500l-1 1l-1 1l27 51h31q-11 -11 -21 -20t-18 -17q-9 -9 -17 -16zM180 111q-23 0 -49 4.5t-48 16t-36.5 32t-14.5 53.5v202q0 5 -1 12.5t-3.5 14.5t-6.5 12t-11 5v2h76v-2q-10 0 -16 -11.5t-6 -23.5v-218q0 -16 6 -32.5t19.5 -29.5
t35.5 -21.5t55 -8.5q22 0 42 7t35.5 19t25 29t9.5 37v231q-2 9 -5 15.5t-11 6.5h-1v2h41v-2q-9 0 -12.5 -10.5t-3.5 -24.5v-214q0 -28 -12 -47.5t-30 -32t-39 -18t-39 -5.5z" />
    <glyph glyph-name="Uogonek" unicode="&#x172;" horiz-adv-x="388" 
d="M368 516v-2q-9 0 -12.5 -10.5t-3.5 -25.5v-264q0 -28 -11 -53t-30 -44t-44 -30.5t-54 -11.5q-9 -10 -14.5 -21.5t2.5 -22.5q3 -5 10 -5q10 0 21 11l2 -1q-4 -8 -13 -15.5t-20 -7.5q-8 0 -14 6q-13 13 -4.5 29t24.5 27q-31 1 -60 9t-51.5 25t-35.5 44t-13 64v177
q0 38 -1 87t-8.5 98t-23.5 91.5t-46 66.5q-25 20 -52.5 32.5t-65.5 18.5v2q50 -8 98 -35t78 -69q17 -22 27 -55t16 -68.5t8 -70.5t2 -62q0 -55 -0.5 -110t-0.5 -110q0 -62 36.5 -95t98.5 -33q30 0 54.5 12.5t41.5 31.5t26 41.5t9 42.5v281q-2 9 -5 16t-11 7h-1v2h41z" />
    <glyph glyph-name="uogonek" unicode="&#x173;" horiz-adv-x="326" 
d="M316 465v-2q-9 0 -12.5 -10.5t-3.5 -24.5v-214q0 -27 -11.5 -46.5t-29 -32t-38.5 -18.5t-39 -6q-10 -10 -15.5 -21.5t2.5 -23.5q3 -5 10 -5q10 0 21 11l2 -1q-4 -8 -13 -15.5t-20 -7.5q-8 0 -14 6q-7 7 -7.5 14.5t3 15t10.5 14.5t15 13q-22 0 -47.5 5t-47 16.5t-35.5 32
t-14 52.5v202q0 5 -1 12.5t-3.5 14.5t-6.5 12t-11 5v2h76v-2q-10 0 -16 -11.5t-6 -23.5v-218q0 -16 6 -32.5t19.5 -29.5t35.5 -21.5t55 -8.5q22 0 42 7t35.5 19t25 29t9.5 37v231q-2 9 -5 15.5t-11 6.5h-1v2h41z" />
    <glyph glyph-name="Wcircumflex" unicode="&#x174;" horiz-adv-x="562" 
d="M576 -3q33 0 75 12v-2q-37 -12 -76 -12q-52 0 -100.5 17.5t-77.5 64.5l-11 17q-11 19 -21 42t-21 52q-17 44 -29.5 76t-24.5 64l-1 -2q-13 -38 -27.5 -76.5t-27.5 -69.5q-15 -36 -29 -69h-33q-30 79 -57 151q-11 30 -22.5 61.5t-22 61t-19.5 54t-14 41.5q-4 12 -10.5 23
t-13.5 11v2h64v-2q-6 0 -9.5 -7t1.5 -22q6 -20 18 -54.5t27 -74.5t30 -81q26 -71 57 -151q14 34 28 71q12 31 26.5 69t28.5 74l1 3q-11 29 -22.5 61.5t-25.5 77.5q-10 31 -27 62t-40.5 55.5t-53.5 39.5t-66 15q-44 0 -82 -14.5t-66 -40.5t-44 -62.5t-17 -81.5q-1 -38 14 -75
t43 -66q27 -29 62.5 -44.5t73.5 -15.5v-3q-41 1 -76.5 17.5t-62 44.5t-41.5 65t-15 77q0 45 16.5 82t45 63.5t67 41t82.5 14.5q32 0 64 -9.5t59 -26.5q21 -13 37.5 -31t29.5 -39t23 -44t18 -46q20 -54 32 -90.5t22.5 -67t22 -61t29.5 -73.5l18 -44v1q25 66 49 130
q21 56 44.5 117.5t40.5 110.5q2 5 2 9v9q0 15 -8 15v2h38v-2q-13 0 -24 -34q-9 -27 -26.5 -75t-37.5 -102t-39.5 -105.5t-33.5 -86.5q26 -59 64.5 -86.5t101.5 -27.5zM258 563l-5 2l39 51h6l39 -51l-5 -2l-37 33z" />
    <glyph glyph-name="wcircumflex" unicode="&#x175;" horiz-adv-x="558" 
d="M225 500l-5 2l39 51h6l39 -51l-5 -2l-37 33zM538 465v-2q-7 0 -13.5 -9t-11.5 -24q-6 -19 -14.5 -43t-18 -50t-19.5 -53t-19 -52q-23 -59 -48 -121h-34q-13 34 -27 70q-12 32 -26 70t-28 75q-14 -38 -29 -76t-27 -69q-15 -37 -28 -70h-33q-25 65 -48 126q-10 26 -20 53
t-19 52.5t-17 48t-14 38.5q-4 12 -10.5 23t-13.5 11v2h64v-2q-6 0 -9.5 -7t1.5 -22t12.5 -36t16.5 -46t18.5 -51t19.5 -52q22 -59 48 -125q14 34 28 71q13 31 27.5 69t27.5 74q-9 26 -17.5 50t-13.5 41q-1 3 -3.5 8.5t-6 11.5t-7 10t-7.5 4v2h64v-2q-7 0 -10 -7t2 -22
q3 -10 7 -22.5t9 -27.5l4 -12q14 -37 30.5 -80t30.5 -81q16 -44 33 -87q26 63 48 121q20 50 39 101.5t29 83.5q4 13 2.5 23t-8.5 10v2h39z" />
    <glyph glyph-name="Ycircumflex" unicode="&#x176;" horiz-adv-x="339" 
d="M122 113q8 0 15 10q7 14 7 34v159l-78 149q-8 16 -17 31.5t-17 30.5q-16 27 -34.5 52t-42 44.5t-51 31t-61.5 11.5q-47 0 -93 -23.5t-72 -63.5q-22 -32 -30.5 -69.5t-1.5 -76.5q6 -35 23.5 -65.5t44 -53.5t59 -36t68.5 -13h14.5t14.5 2l1 -2q-15 -3 -31 -3
q-36 0 -69 13.5t-59 36.5t-44.5 54t-24.5 66q-6 40 2 78.5t31 70.5q31 44 78.5 66t100.5 22q54 0 92.5 -18.5t67.5 -48.5t51.5 -69t44.5 -80l64 -121l130 216q3 5 4 10.5t-4 5.5h-2v2h36v-2q-7 0 -16 -8.5t-12 -13.5l-135 -222v-173q0 -11 6.5 -22.5t15.5 -11.5v-2h-76v2z
M118 585l39 51h6l39 -51l-5 -2l-37 33l-37 -33z" />
    <glyph glyph-name="ycircumflex" unicode="&#x177;" horiz-adv-x="312" 
d="M134 500l-5 2l39 51h6l39 -51l-5 -2l-37 33zM302 465v-2q-7 0 -16 -8.5t-12 -13.5l-104 -172v-121q0 -12 6.5 -23.5t15.5 -11.5v-2h-76v2q8 0 15 10q7 14 7 34v113l-89 170q-7 13 -14.5 18t-14.5 5v2h64v-2h-2q-3 0 -4 -3.5t3 -9.5l73 -141l15 -27l99 165q3 5 4 10.5
t-4 5.5h-4v2h38z" />
    <glyph glyph-name="Ydieresis" unicode="&#x178;" horiz-adv-x="339" 
d="M122 113q8 0 15 10q7 14 7 34v159l-78 149q-8 16 -17 31.5t-17 30.5q-16 27 -34.5 52t-42 44.5t-51 31t-61.5 11.5q-47 0 -93 -23.5t-72 -63.5q-22 -32 -30.5 -69.5t-1.5 -76.5q6 -35 23.5 -65.5t44 -53.5t59 -36t68.5 -13h14.5t14.5 2l1 -2q-15 -3 -31 -3
q-36 0 -69 13.5t-59 36.5t-44.5 54t-24.5 66q-6 40 2 78.5t31 70.5q31 44 78.5 66t100.5 22q54 0 92.5 -18.5t67.5 -48.5t51.5 -69t44.5 -80l64 -121l130 216q3 5 4 10.5t-4 5.5h-2v2h36v-2q-7 0 -16 -8.5t-12 -13.5l-135 -222v-173q0 -11 6.5 -22.5t15.5 -11.5v-2h-76v2z
M130 583q-8 0 -12 5t-4 11.5t4 11.5t12 5t12.5 -5t4.5 -11.5t-4 -11.5t-13 -5zM190 583q-9 0 -13 5t-4 11.5t4 11.5t13 5q8 0 12.5 -5t4.5 -11.5t-4 -11.5t-13 -5z" />
    <glyph glyph-name="Zacute" unicode="&#x179;" horiz-adv-x="356" 
d="M616 67q-18 -19 -40.5 -35t-47.5 -28t-52 -18.5t-53 -6.5q-40 0 -90 20q-27 11 -43.5 18t-28 11.5t-21.5 9t-23.5 10t-34 14t-52.5 21.5q-57 23 -96 23q-42 0 -71.5 -21.5t-50.5 -55.5h-2q23 39 63 64.5t87 25.5q43 0 103 -24l202 -84q47 -19 87 -19q46 0 89 21t73 55z
M81 123q-20 2 -38 0l261 385h-101h-51.5t-44.5 -2t-34.5 -8.5t-22.5 -18.5h-4l8 37h288v-8zM254 586l-46 -46q-6 -6 -8 -7l-2 2q3 6 4.5 10t4 9t5.5 12.5t8 19.5h34z" />
    <glyph glyph-name="zacute" unicode="&#x17a;" horiz-adv-x="308" 
d="M288 458l-230 -340h74h51.5t44 2t34.5 8.5t22 18.5h4l-7 -36h-261v7l229 340h-73h-51.5t-44 -2.5t-34 -8.5t-22.5 -18h-4l7 36h261v-7zM215 553l-46 -46q-6 -6 -8 -7l-2 2q3 6 4.5 10t4 9t5.5 12.5t8 19.5h34z" />
    <glyph glyph-name="Zdotaccent" unicode="&#x17b;" horiz-adv-x="356" 
d="M199 533q-9 0 -14 5.5t-5 12t5 12t15 5.5q9 0 13.5 -5.5t4.5 -12t-5 -12t-14 -5.5zM81 123q-20 2 -38 0l261 385h-101h-51.5t-44.5 -2t-34.5 -8.5t-22.5 -18.5h-4l8 37h288v-8zM616 67q-18 -19 -40.5 -35t-47.5 -28t-52 -18.5t-53 -6.5q-40 0 -90 20q-27 11 -43.5 18
t-28 11.5t-21.5 9t-23.5 10t-34 14t-52.5 21.5q-57 23 -96 23q-42 0 -71.5 -21.5t-50.5 -55.5h-2q23 39 63 64.5t87 25.5q43 0 103 -24l202 -84q47 -19 87 -19q46 0 89 21t73 55z" />
    <glyph glyph-name="zdotaccent" unicode="&#x17c;" horiz-adv-x="308" 
d="M156 500q-9 0 -14 5.5t-5 12t5 12t15 5.5q9 0 13.5 -5.5t4.5 -12t-5 -12t-14 -5.5zM288 458l-230 -340h74h51.5t44 2t34.5 8.5t22 18.5h4l-7 -36h-261v7l229 340h-73h-51.5t-44 -2.5t-34 -8.5t-22.5 -18h-4l7 36h261v-7z" />
    <glyph glyph-name="Zcaron" unicode="&#x17d;" horiz-adv-x="356" 
d="M202 533l-39 51l5 2l37 -33l37 33l5 -2l-39 -51h-6zM81 123q-20 2 -38 0l261 385h-101h-51.5t-44.5 -2t-34.5 -8.5t-22.5 -18.5h-4l8 37h288v-8zM616 67q-18 -19 -40.5 -35t-47.5 -28t-52 -18.5t-53 -6.5q-40 0 -90 20q-27 11 -43.5 18t-28 11.5t-21.5 9t-23.5 10t-34 14
t-52.5 21.5q-57 23 -96 23q-42 0 -71.5 -21.5t-50.5 -55.5h-2q23 39 63 64.5t87 25.5q43 0 103 -24l202 -84q47 -19 87 -19q46 0 89 21t73 55z" />
    <glyph glyph-name="zcaron" unicode="&#x17e;" horiz-adv-x="308" 
d="M156 500l-39 51l5 2l37 -33l37 33l5 -2l-39 -51h-6zM288 458l-230 -340h74h51.5t44 2t34.5 8.5t22 18.5h4l-7 -36h-261v7l229 340h-73h-51.5t-44 -2.5t-34 -8.5t-22.5 -18h-4l7 36h261v-7z" />
    <glyph glyph-name="Ohorn" unicode="&#x1a0;" horiz-adv-x="466" 
d="M238 60q-47 0 -88.5 18t-72.5 49t-49 72.5t-18 88.5t18 88.5t49 72.5t72.5 49t88.5 18q48 0 93 -20q21 8 21 25q0 8 -3 12l-2 -3q-4 -5 -11 -5q-8 0 -12 5q-4 4 -4 10q0 7 3 11q5 5 10 6q13 3 23 -7q6 -7 6 -20q0 -27 -25 -37q57 -28 93 -82.5t36 -122.5q0 -47 -18 -88.5
t-49 -72.5t-72.5 -49t-88.5 -18zM238 69q40 0 75.5 17t61.5 47t41.5 70t15.5 85t-15.5 84.5t-41.5 69.5t-61.5 47t-75.5 17t-75.5 -17t-61.5 -47t-41.5 -69.5t-15.5 -84.5t15.5 -85t41.5 -70t61.5 -47t75.5 -17z" />
    <glyph glyph-name="ohorn" unicode="&#x1a1;" horiz-adv-x="374" 
d="M187 111q-37 0 -69 14t-56 38t-38 56t-14 69t14 69t38 56t56 38t69 14q41 0 79 -19q21 8 21 25q0 8 -3 12l-2 -3q-4 -5 -11 -5q-8 0 -12 5q-4 4 -4 11q0 6 3 10q5 5 10 6q13 3 23 -7q6 -7 6 -20q0 -27 -25 -37q42 -23 67 -63.5t25 -91.5q0 -37 -14 -69t-38 -56t-56 -38
t-69 -14zM187 118q30 0 56 13.5t45.5 36.5t31 54t11.5 66t-11.5 66t-31 54t-45.5 36.5t-56 13.5t-56 -13.5t-45.5 -36.5t-31 -54t-11.5 -66t11.5 -66t31 -54t45.5 -36.5t56 -13.5z" />
    <glyph glyph-name="Uhorn" unicode="&#x1af;" horiz-adv-x="388" 
d="M213 75q-32 0 -62 8t-53 25t-37 44t-14 65v177q0 38 -1 87t-8.5 98t-23.5 91.5t-46 66.5q-25 20 -52.5 32.5t-65.5 18.5v2q50 -8 98 -35t78 -69q17 -22 27 -55t16 -68.5t8 -70.5t2 -62q0 -55 -0.5 -110t-0.5 -110q0 -62 36.5 -95t98.5 -33q30 0 54.5 12.5t41.5 31.5
t26 41.5t9 42.5v281q-2 9 -5 16t-11 7h-1v2h41v-2q-12 0 -15 -18q24 6 24 25q0 8 -3 12l-2 -3q-4 -5 -11 -5q-8 0 -12 5q-4 4 -4 10q0 7 3 11q5 5 10 6q13 3 23 -7q6 -7 6 -20q0 -14 -9.5 -26.5t-24.5 -12.5q-1 -4 -1 -13v-264q0 -28 -11 -53t-30 -44t-44 -30.5t-54 -11.5z
" />
    <glyph glyph-name="uhorn" unicode="&#x1b0;" horiz-adv-x="326" 
d="M180 111q-23 0 -49 4.5t-48 16t-36.5 32t-14.5 53.5v202q0 5 -1 12.5t-3.5 14.5t-6.5 12t-11 5v2h76v-2q-10 0 -16 -11.5t-6 -23.5v-218q0 -16 6 -32.5t19.5 -29.5t35.5 -21.5t55 -8.5q22 0 42 7t35.5 19t25 29t9.5 37v231q-2 9 -5 15.5t-11 6.5h-1v2h41v-2
q-11 0 -14 -17q22 6 22 25q0 8 -3 12l-2 -3q-4 -5 -11 -5q-8 0 -12 5q-4 4 -4 11q0 6 3 10q5 5 10 6q13 3 23 -7q6 -7 6 -20q0 -15 -9 -26t-24 -13q-1 -4 -1 -13v-214q0 -28 -12 -47.5t-30 -32t-39 -18t-39 -5.5z" />
    <glyph glyph-name="uni0218" unicode="&#x218;" horiz-adv-x="338" 
d="M86 -90q-45 0 -83 14t-65.5 39t-42.5 59.5t-15 74.5q0 37 14.5 70.5t39 59.5t58 41.5t70.5 15.5v-2q-37 0 -70 -15.5t-57.5 -41t-38.5 -59t-14 -69.5q0 -43 17 -77t45 -58t65 -36.5t77 -12.5q54 0 93 18t64.5 46.5t37.5 63.5t12 70q0 45 -20 78.5t-49.5 60.5t-64.5 49
t-64.5 42t-49.5 40t-20 44q0 23 10 40t25.5 28t35.5 16.5t40 5.5q38 0 76 -16q5 -2 9.5 -4.5t9.5 -5.5q1 -1 3.5 -2t2.5 -2l8 -44h-4q-4 8 -9 17t-10 14q-14 18 -39.5 27t-51.5 9q-15 0 -30 -5.5t-26 -15t-18 -23t-7 -29.5q0 -17 20.5 -34t51.5 -36t67 -42.5t67 -54.5
t51.5 -70.5t20.5 -91.5q0 -31 -15 -65.5t-45 -63.5t-75.5 -48t-106.5 -19zM95 -159q-2 0 -2 1t2 1q17 5 17 18q0 6 -2 8l-1 -2q-3 -4 -7 -4q-5 0 -8 4q-3 3 -3 7q0 2 2 6q4 4 7 4q8 3 15 -4q4 -5 4 -13q0 -11 -6.5 -18.5t-17.5 -7.5z" />
    <glyph glyph-name="uni0219" unicode="&#x219;" horiz-adv-x="294" 
d="M141 111q-11 0 -25.5 1.5t-29.5 5t-29 9t-23 12.5q-1 0 -4 1.5t-3 2.5l-7 47h4l3 -7q21 -53 79 -62q10 -1 19.5 -2t19.5 -1q20 0 41.5 5t39.5 15.5t30 27t12 40.5t-17.5 39.5t-44 27.5t-57 22.5t-57 23t-44 29.5t-17.5 42q0 21 12 35.5t30 23.5t39 12.5t38 3.5
q26 0 53.5 -7t49.5 -21q1 -1 4 -2.5t3 -2.5l9 -47h-4q-34 73 -119 73q-14 0 -31 -3t-32 -9.5t-25 -18t-10 -28.5q0 -18 17.5 -30t43.5 -22t57 -20t57 -24.5t43.5 -35.5t17.5 -52q0 -28 -13.5 -48t-34 -32.5t-46 -18t-49.5 -5.5zM149 35q-3 0 -3 2t3 2q26 6 26 26q0 8 -3 12
l-2 -3q-4 -5 -11 -5q-8 0 -12 5q-4 4 -4 11q0 6 3 10q5 5 10 6q13 3 23 -7q6 -7 6 -20q0 -15 -10 -27t-26 -12z" />
    <glyph glyph-name="uni021A" unicode="&#x21a;" horiz-adv-x="226" 
d="M576 538l-2 -1q-30 34 -73.5 55t-88.5 21q-40 0 -87 -19l-190 -79v-367q0 -12 6.5 -23.5t16.5 -12.5v-1h-77v2q7 0 11.5 5t7 12t3.5 14.5t1 12.5v345q-45 -16 -83 -16q-46 0 -87 25.5t-64 64.5h2q21 -34 50.5 -55.5t71.5 -21.5q39 0 96 23q33 13 53 21.5t33.5 14t23.5 10
t21.5 9t28 11.5t43.5 18q50 20 90 20q26 0 53 -6.5t52 -18.5t47.5 -28t40.5 -35zM112 88q13 3 23 -7q6 -7 6 -20q0 -15 -10 -27t-26 -12q-3 0 -3 2t3 2q26 6 26 26q0 8 -3 12l-2 -3q-4 -5 -11 -5q-8 0 -12 5q-4 4 -4 11q0 6 3 10q5 5 10 6z" />
    <glyph glyph-name="uni021B" unicode="&#x21b;" 
d="M132 113q8 0 15 10q7 14 7 34v301h-20h-45t-34.5 -2.5t-24.5 -8.5t-16 -19h-4l8 37h304l8 -37h-4q-6 13 -16 19t-24.5 8.5t-34 2.5h-45.5h-20v-310q0 -12 6.5 -23.5t15.5 -12.5v-1h-76v2zM153 32q-3 0 -3 2t3 2q26 6 26 26q0 8 -3 12l-2 -3q-4 -5 -11 -5q-8 0 -12 5
q-4 4 -4 11q0 6 3 10q5 5 10 6q13 3 23 -7q6 -7 6 -20q0 -15 -10 -27t-26 -12z" />
    <glyph glyph-name="circumflex" unicode="&#x2c6;" horiz-adv-x="124" 
d="M20 535l39 51h6l39 -51l-5 -2l-37 33l-37 -33z" />
    <glyph glyph-name="caron" unicode="&#x2c7;" horiz-adv-x="124" 
d="M20 584l5 2l37 -33l37 33l5 -2l-39 -51h-6z" />
    <glyph glyph-name="breve" unicode="&#x2d8;" horiz-adv-x="116" 
d="M61 533q-17 0 -27 10.5t-10 27.5l5 1q0 -11 9 -17.5t23 -6.5t24 6.5t10 16.5l5 1q0 -18 -11 -28.5t-28 -10.5z" />
    <glyph glyph-name="dotaccent" unicode="&#x2d9;" horiz-adv-x="74" 
d="M37 533q-9 0 -14 5.5t-5 12t5 12t15 5.5q9 0 13.5 -5.5t4.5 -12t-5 -12t-14 -5.5z" />
    <glyph glyph-name="ring" unicode="&#x2da;" horiz-adv-x="94" 
d="M47 533q-9 0 -14 6t-5 12.5t5 12.5t14 6q10 0 15 -6t5 -12.5t-5 -12.5t-15 -6zM47 540q6 0 9 3.5t3 8t-3 8t-9 3.5t-8.5 -3.5t-2.5 -8t2.5 -8t8.5 -3.5z" />
    <glyph glyph-name="ogonek" unicode="&#x2db;" horiz-adv-x="94" 
d="M30 -1q-14 14 -3 31.5t29 28.5h4q-11 -11 -17.5 -23t1.5 -25q3 -5 10 -5q10 0 21 11l2 -1q-4 -8 -13 -15.5t-20 -7.5q-8 0 -14 6z" />
    <glyph glyph-name="tilde" unicode="&#x2dc;" horiz-adv-x="138" 
d="M20 533q4 18 12 24t21 6q11 0 24 -3q17 -3 25 0t12 14h4q-4 -14 -12.5 -23.5t-24.5 -9.5q-11 0 -21.5 3.5t-18.5 3.5q-6 0 -10.5 -3t-6.5 -12h-4z" />
    <glyph glyph-name="hungarumlaut" unicode="&#x2dd;" horiz-adv-x="158" 
d="M20 535l26 51h31l-55 -53zM82 533l-1 1l-1 1l27 51h31q-11 -11 -21 -20t-18 -17q-9 -9 -17 -16z" />
    <glyph glyph-name="gravecomb" unicode="&#x300;" horiz-adv-x="0" 
d="M-76 586h33l23 -51l-2 -2z" />
    <glyph glyph-name="acutecomb" unicode="&#x301;" horiz-adv-x="0" 
d="M275 535q3 6 4.5 10t4 9t5.5 12.5t8 19.5h34l-46 -46q-6 -6 -8 -7z" />
    <glyph glyph-name="uni0302" unicode="&#x302;" horiz-adv-x="0" 
d="M-104 535l39 51h6l39 -51l-5 -2l-37 33l-37 -33z" />
    <glyph glyph-name="tildecomb" unicode="&#x303;" horiz-adv-x="0" 
d="M-118 533q4 18 12 24t21 6q10 0 24 -3q17 -3 25 0t12 14h4q-4 -14 -12.5 -23.5t-24.5 -9.5q-11 0 -21.5 3.5t-18.5 3.5q-6 0 -10.5 -3t-6.5 -12h-4z" />
    <glyph glyph-name="uni0304" unicode="&#x304;" horiz-adv-x="0" 
d="M-102 548h82v-14h-82v14z" />
    <glyph glyph-name="uni0306" unicode="&#x306;" horiz-adv-x="0" 
d="M-55 533q-17 0 -27 10.5t-10 27.5l5 1q0 -11 9 -17.5t23 -6.5t24 6.5t10 16.5l5 1q0 -18 -11 -28.5t-28 -10.5z" />
    <glyph glyph-name="uni0307" unicode="&#x307;" horiz-adv-x="0" 
d="M-37 533q-9 0 -14 5.5t-5 12t5 12t15 5.5q9 0 13 -5.5t4 -12t-4.5 -12t-13.5 -5.5z" />
    <glyph glyph-name="uni0308" unicode="&#x308;" horiz-adv-x="0" 
d="M-96 533q-8 0 -12.5 5t-4.5 11.5t4.5 11.5t12.5 5t12.5 -5t4.5 -11.5t-4 -11.5t-13 -5zM-36 533q-9 0 -13 5t-4 11.5t4 11.5t13 5q8 0 12.5 -5t4.5 -11.5t-4 -11.5t-13 -5z" />
    <glyph glyph-name="uni030A" unicode="&#x30a;" horiz-adv-x="0" 
d="M-47 533q-9 0 -14 6t-5 12.5t5 12.5t14 6q10 0 15 -6t5 -12.5t-5 -12.5t-15 -6zM-47 540q6 0 9 3.5t3 8t-3 8t-9 3.5t-8.5 -3.5t-2.5 -8t2.5 -8t8.5 -3.5z" />
    <glyph glyph-name="uni030B" unicode="&#x30b;" horiz-adv-x="0" 
d="M-138 535l26 51h31l-55 -53zM-76 533l-1 1l-1 1l27 51h31q-11 -11 -21 -20t-18 -17q-9 -9 -17 -16z" />
    <glyph glyph-name="uni030C" unicode="&#x30c;" horiz-adv-x="0" 
d="M-104 584l5 2l37 -33l37 33l5 -2l-39 -51h-6z" />
    <glyph glyph-name="uni0312" unicode="&#x312;" horiz-adv-x="0" 
d="M-48 449q-2 9 3.5 12.5t10.5 3.5q6 0 11 -4t3 -12l-12 -80h-4z" />
    <glyph glyph-name="uni0326" unicode="&#x326;" horiz-adv-x="0" 
d="M-56 77q-3 0 -3 2t3 2q26 6 26 26q0 8 -3 12l-2 -3q-4 -5 -11 -5q-8 0 -12 5q-4 4 -4 11q0 6 3 10q5 5 10 6q13 3 23 -7q6 -7 6 -20q0 -15 -10 -27t-26 -12z" />
    <glyph glyph-name="uni0327" unicode="&#x327;" horiz-adv-x="0" 
d="M-78 123q0 2 2 2t5 -3q8 -4 15 -4q6 0 13 5q10 10 7 25q-2 6 -7 9t-11 3h-5v3l14 14h6l-12 -12q11 0 21 -7t10 -19q0 -13 -9.5 -20.5t-21.5 -7.5q-5 0 -16 3t-11 9z" />
    <glyph glyph-name="uni0328" unicode="&#x328;" horiz-adv-x="0" 
d="M-64 -1q-14 14 -3 31.5t29 28.5h4q-11 -11 -17.5 -23t1.5 -25q2 -5 10 -5q10 0 21 11l2 -1q-4 -8 -13 -15.5t-20 -7.5q-8 0 -14 6z" />
    <glyph glyph-name="uni0335" unicode="&#x335;" horiz-adv-x="0" 
d="M-140 293h120v-10h-120v10z" />
    <glyph glyph-name="uni0336" unicode="&#x336;" horiz-adv-x="0" 
d="M-212 294h192v-12h-192v12z" />
    <glyph glyph-name="uni0337" unicode="&#x337;" horiz-adv-x="0" 
d="M-210 111l197 354h13l-197 -354h-13z" />
    <glyph glyph-name="uni0338" unicode="&#x338;" horiz-adv-x="0" 
d="M-210 111l197 354h13l-197 -354h-13z" />
    <glyph glyph-name="Wgrave" unicode="&#x1e80;" horiz-adv-x="562" 
d="M576 -3q33 0 75 12v-2q-37 -12 -76 -12q-52 0 -100.5 17.5t-77.5 64.5l-11 17q-11 19 -21 42t-21 52q-17 44 -29.5 76t-24.5 64l-1 -2q-13 -38 -27.5 -76.5t-27.5 -69.5q-15 -36 -29 -69h-33q-30 79 -57 151q-11 30 -22.5 61.5t-22 61t-19.5 54t-14 41.5q-4 12 -10.5 23
t-13.5 11v2h64v-2q-6 0 -9.5 -7t1.5 -22q6 -20 18 -54.5t27 -74.5t30 -81q26 -71 57 -151q14 34 28 71q12 31 26.5 69t28.5 74l1 3q-11 29 -22.5 61.5t-25.5 77.5q-10 31 -27 62t-40.5 55.5t-53.5 39.5t-66 15q-44 0 -82 -14.5t-66 -40.5t-44 -62.5t-17 -81.5q-1 -38 14 -75
t43 -66q27 -29 62.5 -44.5t73.5 -15.5v-3q-41 1 -76.5 17.5t-62 44.5t-41.5 65t-15 77q0 45 16.5 82t45 63.5t67 41t82.5 14.5q32 0 64 -9.5t59 -26.5q21 -13 37.5 -31t29.5 -39t23 -44t18 -46q20 -54 32 -90.5t22.5 -67t22 -61t29.5 -73.5l18 -44v1q25 66 49 130
q21 56 44.5 117.5t40.5 110.5q2 5 2 9v9q0 15 -8 15v2h38v-2q-13 0 -24 -34q-9 -27 -26.5 -75t-37.5 -102t-39.5 -105.5t-33.5 -86.5q26 -59 64.5 -86.5t101.5 -27.5zM281 563l-54 53h33l23 -51z" />
    <glyph glyph-name="wgrave" unicode="&#x1e81;" horiz-adv-x="558" 
d="M264 500l-54 53h33l23 -51zM538 465v-2q-7 0 -13.5 -9t-11.5 -24q-6 -19 -14.5 -43t-18 -50t-19.5 -53t-19 -52q-23 -59 -48 -121h-34q-13 34 -27 70q-12 32 -26 70t-28 75q-14 -38 -29 -76t-27 -69q-15 -37 -28 -70h-33q-25 65 -48 126q-10 26 -20 53t-19 52.5t-17 48
t-14 38.5q-4 12 -10.5 23t-13.5 11v2h64v-2q-6 0 -9.5 -7t1.5 -22t12.5 -36t16.5 -46t18.5 -51t19.5 -52q22 -59 48 -125q14 34 28 71q13 31 27.5 69t27.5 74q-9 26 -17.5 50t-13.5 41q-1 3 -3.5 8.5t-6 11.5t-7 10t-7.5 4v2h64v-2q-7 0 -10 -7t2 -22q3 -10 7 -22.5t9 -27.5
l4 -12q14 -37 30.5 -80t30.5 -81q16 -44 33 -87q26 63 48 121q20 50 39 101.5t29 83.5q4 13 2.5 23t-8.5 10v2h39z" />
    <glyph glyph-name="Wacute" unicode="&#x1e82;" horiz-adv-x="562" 
d="M576 -3q33 0 75 12v-2q-37 -12 -76 -12q-52 0 -100.5 17.5t-77.5 64.5l-11 17q-11 19 -21 42t-21 52q-17 44 -29.5 76t-24.5 64l-1 -2q-13 -38 -27.5 -76.5t-27.5 -69.5q-15 -36 -29 -69h-33q-30 79 -57 151q-11 30 -22.5 61.5t-22 61t-19.5 54t-14 41.5q-4 12 -10.5 23
t-13.5 11v2h64v-2q-6 0 -9.5 -7t1.5 -22q6 -20 18 -54.5t27 -74.5t30 -81q26 -71 57 -151q14 34 28 71q12 31 26.5 69t28.5 74l1 3q-11 29 -22.5 61.5t-25.5 77.5q-10 31 -27 62t-40.5 55.5t-53.5 39.5t-66 15q-44 0 -82 -14.5t-66 -40.5t-44 -62.5t-17 -81.5q-1 -38 14 -75
t43 -66q27 -29 62.5 -44.5t73.5 -15.5v-3q-41 1 -76.5 17.5t-62 44.5t-41.5 65t-15 77q0 45 16.5 82t45 63.5t67 41t82.5 14.5q32 0 64 -9.5t59 -26.5q21 -13 37.5 -31t29.5 -39t23 -44t18 -46q20 -54 32 -90.5t22.5 -67t22 -61t29.5 -73.5l18 -44v1q25 66 49 130
q21 56 44.5 117.5t40.5 110.5q2 5 2 9v9q0 15 -8 15v2h38v-2q-13 0 -24 -34q-9 -27 -26.5 -75t-37.5 -102t-39.5 -105.5t-33.5 -86.5q26 -59 64.5 -86.5t101.5 -27.5zM364 586l-46 -46q-6 -6 -8 -7l-2 2q3 6 4.5 10t4 9t5.5 12.5t8 19.5h34z" />
    <glyph glyph-name="wacute" unicode="&#x1e83;" horiz-adv-x="558" 
d="M538 465v-2q-7 0 -13.5 -9t-11.5 -24q-6 -19 -14.5 -43t-18 -50t-19.5 -53t-19 -52q-23 -59 -48 -121h-34q-13 34 -27 70q-12 32 -26 70t-28 75q-14 -38 -29 -76t-27 -69q-15 -37 -28 -70h-33q-25 65 -48 126q-10 26 -20 53t-19 52.5t-17 48t-14 38.5q-4 12 -10.5 23
t-13.5 11v2h64v-2q-6 0 -9.5 -7t1.5 -22t12.5 -36t16.5 -46t18.5 -51t19.5 -52q22 -59 48 -125q14 34 28 71q13 31 27.5 69t27.5 74q-9 26 -17.5 50t-13.5 41q-1 3 -3.5 8.5t-6 11.5t-7 10t-7.5 4v2h64v-2q-7 0 -10 -7t2 -22q3 -10 7 -22.5t9 -27.5l4 -12q14 -37 30.5 -80
t30.5 -81q16 -44 33 -87q26 63 48 121q20 50 39 101.5t29 83.5q4 13 2.5 23t-8.5 10v2h39zM340 553l-46 -46q-6 -6 -8 -7l-2 2q3 6 4.5 10t4 9t5.5 12.5t8 19.5h34z" />
    <glyph glyph-name="Wdieresis" unicode="&#x1e84;" horiz-adv-x="562" 
d="M576 -3q33 0 75 12v-2q-37 -12 -76 -12q-52 0 -100.5 17.5t-77.5 64.5l-11 17q-11 19 -21 42t-21 52q-17 44 -29.5 76t-24.5 64l-1 -2q-13 -38 -27.5 -76.5t-27.5 -69.5q-15 -36 -29 -69h-33q-30 79 -57 151q-11 30 -22.5 61.5t-22 61t-19.5 54t-14 41.5q-4 12 -10.5 23
t-13.5 11v2h64v-2q-6 0 -9.5 -7t1.5 -22q6 -20 18 -54.5t27 -74.5t30 -81q26 -71 57 -151q14 34 28 71q12 31 26.5 69t28.5 74l1 3q-11 29 -22.5 61.5t-25.5 77.5q-10 31 -27 62t-40.5 55.5t-53.5 39.5t-66 15q-44 0 -82 -14.5t-66 -40.5t-44 -62.5t-17 -81.5q-1 -38 14 -75
t43 -66q27 -29 62.5 -44.5t73.5 -15.5v-3q-41 1 -76.5 17.5t-62 44.5t-41.5 65t-15 77q0 45 16.5 82t45 63.5t67 41t82.5 14.5q32 0 64 -9.5t59 -26.5q21 -13 37.5 -31t29.5 -39t23 -44t18 -46q20 -54 32 -90.5t22.5 -67t22 -61t29.5 -73.5l18 -44v1q25 66 49 130
q21 56 44.5 117.5t40.5 110.5q2 5 2 9v9q0 15 -8 15v2h38v-2q-13 0 -24 -34q-9 -27 -26.5 -75t-37.5 -102t-39.5 -105.5t-33.5 -86.5q26 -59 64.5 -86.5t101.5 -27.5zM260 563q-8 0 -12 5t-4 11.5t4 11.5t12 5t12.5 -5t4.5 -11.5t-4 -11.5t-13 -5zM320 563q-9 0 -13 5
t-4 11.5t4 11.5t13 5q8 0 12.5 -5t4.5 -11.5t-4 -11.5t-13 -5z" />
    <glyph glyph-name="wdieresis" unicode="&#x1e85;" horiz-adv-x="558" 
d="M221 500q-8 0 -12 5t-4 11.5t4 11.5t12 5t12.5 -5t4.5 -11.5t-4 -11.5t-13 -5zM281 500q-9 0 -13 5t-4 11.5t4 11.5t13 5q8 0 12.5 -5t4.5 -11.5t-4 -11.5t-13 -5zM538 465v-2q-7 0 -13.5 -9t-11.5 -24q-6 -19 -14.5 -43t-18 -50t-19.5 -53t-19 -52q-23 -59 -48 -121h-34
q-13 34 -27 70q-12 32 -26 70t-28 75q-14 -38 -29 -76t-27 -69q-15 -37 -28 -70h-33q-25 65 -48 126q-10 26 -20 53t-19 52.5t-17 48t-14 38.5q-4 12 -10.5 23t-13.5 11v2h64v-2q-6 0 -9.5 -7t1.5 -22t12.5 -36t16.5 -46t18.5 -51t19.5 -52q22 -59 48 -125q14 34 28 71
q13 31 27.5 69t27.5 74q-9 26 -17.5 50t-13.5 41q-1 3 -3.5 8.5t-6 11.5t-7 10t-7.5 4v2h64v-2q-7 0 -10 -7t2 -22q3 -10 7 -22.5t9 -27.5l4 -12q14 -37 30.5 -80t30.5 -81q16 -44 33 -87q26 63 48 121q20 50 39 101.5t29 83.5q4 13 2.5 23t-8.5 10v2h39z" />
    <glyph glyph-name="Germandbls" unicode="&#x1e9e;" horiz-adv-x="236" 
d="M20 113q5 0 12.5 6t7.5 25v230q0 24 7 41t17.5 28t23.5 16t25 5q28 0 50.5 -16t22.5 -49q0 -10 -3 -17.5t-7.5 -14t-11 -13.5t-14.5 -17q-12 -16 -10 -28.5t14 -26.5l28 -28l18 -18t15 -18.5t9 -20.5t1 -25q-5 -28 -26 -44.5t-49 -16.5q-19 0 -35 6.5t-29 15.5l-7 38h3
q10 -23 26.5 -38.5t43.5 -15.5q24 0 35 16t11 37t-17 37t-49 48q-9 9 -12.5 18.5t-3.5 20.5q0 12 3.5 20t12.5 17l15 15q14 14 22.5 26t8.5 30q0 26 -18 40t-38 14q-13 0 -24 -6t-17 -19q-11 -23 -10.5 -50t0.5 -53v-217h-51v2z" />
    <glyph glyph-name="uni1EA0" unicode="&#x1ea0;" horiz-adv-x="444" 
d="M400 94q4 -12 11 -23t13 -11v-2h-64v2q7 0 10.5 7t-1.5 22q-5 14 -12.5 37t-18.5 52h-1q-17 47 -52.5 72.5t-86.5 25.5q-15 0 -31.5 -1.5t-35.5 -6.5q-2 0 -2.5 -0.5t-2.5 -0.5q-6 -18 -15.5 -45t-18.5 -53t-16 -47.5t-9 -28.5q-3 -10 -3 -18q0 -15 9 -15v-2h-39v2
q7 0 13.5 9t11.5 24q3 8 10 29t15.5 47t17.5 52t15 44q-45 -10 -67 -15.5t-37.5 -9t-35 -8t-60.5 -13.5q-32 -7 -61 -7q-30 0 -60 9.5t-57.5 26t-50.5 38.5t-38 47h1q29 -48 77.5 -76t104.5 -28q25 0 54 6l214 49q7 2 13 3l12 2q14 39 29.5 79t28.5 72q15 38 29 73h33
q36 -94 67 -176q13 -35 26.5 -71t25 -68.5t21 -59.5t14.5 -44zM333 192q-17 48 -37.5 102t-38.5 100l-40 106q-13 -33 -27 -69q-12 -30 -26.5 -67t-28.5 -73q23 3 41 3q52 0 93.5 -28t63.5 -74zM226 -13q-6 0 -11 5q-5 4 -5 11q0 8 5 12q5 5 11 5q5 0 12 -5q4 -4 4 -12
q0 -7 -4 -11q-7 -5 -12 -5z" />
    <glyph glyph-name="uni1EA1" unicode="&#x1ea1;" 
d="M305 147q4 -12 11 -23t14 -11v-2h-65v2q7 0 10.5 7t-1.5 22q-3 11 -7.5 24t-10.5 28q-24 2 -40.5 8t-31.5 14q-17 8 -35.5 15t-48.5 7q-8 0 -14.5 -1t-11.5 -2q-10 -26 -18 -49t-13 -40q-3 -10 -3 -18q0 -15 9 -15v-2h-39v2q7 0 13.5 9t11.5 24l13.5 40.5t16.5 46.5l2 7
q15 39 30.5 79t28.5 72q15 38 29 74h33q25 -65 48 -126q10 -25 20 -52t19 -52.5t17 -48t13 -39.5zM189 222q14 -8 29 -13.5t36 -7.5q-14 38 -30.5 81.5t-30.5 81.5l-34 88q-13 -33 -27 -69q-12 -30 -26.5 -67.5t-28.5 -73.5q9 3 23 3q32 0 52 -7.5t37 -15.5zM169 37
q-6 0 -11 5q-5 4 -5 11q0 8 5 12q5 5 11 5q5 0 12 -5q4 -4 4 -12q0 -7 -4 -11q-7 -5 -12 -5z" />
    <glyph glyph-name="uni1EA2" unicode="&#x1ea2;" horiz-adv-x="444" 
d="M400 94q4 -12 11 -23t13 -11v-2h-64v2q7 0 10.5 7t-1.5 22q-5 14 -12.5 37t-18.5 52h-1q-17 47 -52.5 72.5t-86.5 25.5q-15 0 -31.5 -1.5t-35.5 -6.5q-2 0 -2.5 -0.5t-2.5 -0.5q-6 -18 -15.5 -45t-18.5 -53t-16 -47.5t-9 -28.5q-3 -10 -3 -18q0 -15 9 -15v-2h-39v2
q7 0 13.5 9t11.5 24q3 8 10 29t15.5 47t17.5 52t15 44q-45 -10 -67 -15.5t-37.5 -9t-35 -8t-60.5 -13.5q-32 -7 -61 -7q-30 0 -60 9.5t-57.5 26t-50.5 38.5t-38 47h1q29 -48 77.5 -76t104.5 -28q25 0 54 6l214 49q7 2 13 3l12 2q14 39 29.5 79t28.5 72q15 38 29 73h33
q36 -94 67 -176q13 -35 26.5 -71t25 -68.5t21 -59.5t14.5 -44zM333 192q-17 48 -37.5 102t-38.5 100l-40 106q-13 -33 -27 -69q-12 -30 -26.5 -67t-28.5 -73q23 3 41 3q52 0 93.5 -28t63.5 -74zM256 593q14 -14 3 -31.5t-29 -28.5h-4q11 11 17.5 23t-1.5 25q-2 5 -10 5
q-10 0 -21 -11l-2 1q4 8 13 15.5t20 7.5q8 0 14 -6z" />
    <glyph glyph-name="uni1EA3" unicode="&#x1ea3;" 
d="M305 147q4 -12 11 -23t14 -11v-2h-65v2q7 0 10.5 7t-1.5 22q-3 11 -7.5 24t-10.5 28q-24 2 -40.5 8t-31.5 14q-17 8 -35.5 15t-48.5 7q-8 0 -14.5 -1t-11.5 -2q-10 -26 -18 -49t-13 -40q-3 -10 -3 -18q0 -15 9 -15v-2h-39v2q7 0 13.5 9t11.5 24l13.5 40.5t16.5 46.5l2 7
q15 39 30.5 79t28.5 72q15 38 29 74h33q25 -65 48 -126q10 -25 20 -52t19 -52.5t17 -48t13 -39.5zM189 222q14 -8 29 -13.5t36 -7.5q-14 38 -30.5 81.5t-30.5 81.5l-34 88q-13 -33 -27 -69q-12 -30 -26.5 -67.5t-28.5 -73.5q9 3 23 3q32 0 52 -7.5t37 -15.5zM199 560
q14 -14 3 -31.5t-29 -28.5h-4q11 11 17.5 23t-1.5 25q-2 5 -10 5q-10 0 -21 -11l-2 1q4 8 13 15.5t20 7.5q8 0 14 -6z" />
    <glyph glyph-name="uni1EA4" unicode="&#x1ea4;" horiz-adv-x="444" 
d="M189 533l-5 2l39 51h6l39 -51l-5 -2l-37 33zM400 94q4 -12 11 -23t13 -11v-2h-64v2q7 0 10.5 7t-1.5 22q-5 14 -12.5 37t-18.5 52h-1q-17 47 -52.5 72.5t-86.5 25.5q-15 0 -31.5 -1.5t-35.5 -6.5q-2 0 -2.5 -0.5t-2.5 -0.5q-6 -18 -15.5 -45t-18.5 -53t-16 -47.5
t-9 -28.5q-3 -10 -3 -18q0 -15 9 -15v-2h-39v2q7 0 13.5 9t11.5 24q3 8 10 29t15.5 47t17.5 52t15 44q-45 -10 -67 -15.5t-37.5 -9t-35 -8t-60.5 -13.5q-32 -7 -61 -7q-30 0 -60 9.5t-57.5 26t-50.5 38.5t-38 47h1q29 -48 77.5 -76t104.5 -28q25 0 54 6l214 49q7 2 13 3
l12 2q14 39 29.5 79t28.5 72q15 38 29 73h33q36 -94 67 -176q13 -35 26.5 -71t25 -68.5t21 -59.5t14.5 -44zM333 192q-17 48 -37.5 102t-38.5 100l-40 106q-13 -33 -27 -69q-12 -30 -26.5 -67t-28.5 -73q23 3 41 3q52 0 93.5 -28t63.5 -74zM287 619h33l-54 -53l-2 2z" />
    <glyph glyph-name="uni1EA5" unicode="&#x1ea5;" 
d="M305 147q4 -12 11 -23t14 -11v-2h-65v2q7 0 10.5 7t-1.5 22q-3 11 -7.5 24t-10.5 28q-24 2 -40.5 8t-31.5 14q-17 8 -35.5 15t-48.5 7q-8 0 -14.5 -1t-11.5 -2q-10 -26 -18 -49t-13 -40q-3 -10 -3 -18q0 -15 9 -15v-2h-39v2q7 0 13.5 9t11.5 24l13.5 40.5t16.5 46.5l2 7
q15 39 30.5 79t28.5 72q15 38 29 74h33q25 -65 48 -126q10 -25 20 -52t19 -52.5t17 -48t13 -39.5zM189 222q14 -8 29 -13.5t36 -7.5q-14 38 -30.5 81.5t-30.5 81.5l-34 88q-13 -33 -27 -69q-12 -30 -26.5 -67.5t-28.5 -73.5q9 3 23 3q32 0 52 -7.5t37 -15.5zM131 500l-5 2
l39 51h6l39 -51l-5 -2l-37 33zM229 586h33l-54 -53l-2 2z" />
    <glyph glyph-name="uni1EA6" unicode="&#x1ea6;" horiz-adv-x="444" 
d="M189 533l-5 2l39 51h6l39 -51l-5 -2l-37 33zM400 94q4 -12 11 -23t13 -11v-2h-64v2q7 0 10.5 7t-1.5 22q-5 14 -12.5 37t-18.5 52h-1q-17 47 -52.5 72.5t-86.5 25.5q-15 0 -31.5 -1.5t-35.5 -6.5q-2 0 -2.5 -0.5t-2.5 -0.5q-6 -18 -15.5 -45t-18.5 -53t-16 -47.5
t-9 -28.5q-3 -10 -3 -18q0 -15 9 -15v-2h-39v2q7 0 13.5 9t11.5 24q3 8 10 29t15.5 47t17.5 52t15 44q-45 -10 -67 -15.5t-37.5 -9t-35 -8t-60.5 -13.5q-32 -7 -61 -7q-30 0 -60 9.5t-57.5 26t-50.5 38.5t-38 47h1q29 -48 77.5 -76t104.5 -28q25 0 54 6l214 49q7 2 13 3
l12 2q14 39 29.5 79t28.5 72q15 38 29 73h33q36 -94 67 -176q13 -35 26.5 -71t25 -68.5t21 -59.5t14.5 -44zM333 192q-17 48 -37.5 102t-38.5 100l-40 106q-13 -33 -27 -69q-12 -30 -26.5 -67t-28.5 -73q23 3 41 3q52 0 93.5 -28t63.5 -74zM286 566l-54 53h33l23 -51z" />
    <glyph glyph-name="uni1EA7" unicode="&#x1ea7;" 
d="M305 147q4 -12 11 -23t14 -11v-2h-65v2q7 0 10.5 7t-1.5 22q-3 11 -7.5 24t-10.5 28q-24 2 -40.5 8t-31.5 14q-17 8 -35.5 15t-48.5 7q-8 0 -14.5 -1t-11.5 -2q-10 -26 -18 -49t-13 -40q-3 -10 -3 -18q0 -15 9 -15v-2h-39v2q7 0 13.5 9t11.5 24l13.5 40.5t16.5 46.5l2 7
q15 39 30.5 79t28.5 72q15 38 29 74h33q25 -65 48 -126q10 -25 20 -52t19 -52.5t17 -48t13 -39.5zM189 222q14 -8 29 -13.5t36 -7.5q-14 38 -30.5 81.5t-30.5 81.5l-34 88q-13 -33 -27 -69q-12 -30 -26.5 -67.5t-28.5 -73.5q9 3 23 3q32 0 52 -7.5t37 -15.5zM131 500l-5 2
l39 51h6l39 -51l-5 -2l-37 33zM228 533l-54 53h33l23 -51z" />
    <glyph glyph-name="uni1EA8" unicode="&#x1ea8;" horiz-adv-x="444" 
d="M189 533l-5 2l39 51h6l39 -51l-5 -2l-37 33zM400 94q4 -12 11 -23t13 -11v-2h-64v2q7 0 10.5 7t-1.5 22q-5 14 -12.5 37t-18.5 52h-1q-17 47 -52.5 72.5t-86.5 25.5q-15 0 -31.5 -1.5t-35.5 -6.5q-2 0 -2.5 -0.5t-2.5 -0.5q-6 -18 -15.5 -45t-18.5 -53t-16 -47.5
t-9 -28.5q-3 -10 -3 -18q0 -15 9 -15v-2h-39v2q7 0 13.5 9t11.5 24q3 8 10 29t15.5 47t17.5 52t15 44q-45 -10 -67 -15.5t-37.5 -9t-35 -8t-60.5 -13.5q-32 -7 -61 -7q-30 0 -60 9.5t-57.5 26t-50.5 38.5t-38 47h1q29 -48 77.5 -76t104.5 -28q25 0 54 6l214 49q7 2 13 3
l12 2q14 39 29.5 79t28.5 72q15 38 29 73h33q36 -94 67 -176q13 -35 26.5 -71t25 -68.5t21 -59.5t14.5 -44zM333 192q-17 48 -37.5 102t-38.5 100l-40 106q-13 -33 -27 -69q-12 -30 -26.5 -67t-28.5 -73q23 3 41 3q52 0 93.5 -28t63.5 -74zM294 626q14 -14 3 -31.5
t-29 -28.5h-4q11 11 17.5 23t-1.5 25q-2 5 -10 5q-10 0 -21 -11l-2 1q4 8 13 15.5t20 7.5q8 0 14 -6z" />
    <glyph glyph-name="uni1EA9" unicode="&#x1ea9;" 
d="M305 147q4 -12 11 -23t14 -11v-2h-65v2q7 0 10.5 7t-1.5 22q-3 11 -7.5 24t-10.5 28q-24 2 -40.5 8t-31.5 14q-17 8 -35.5 15t-48.5 7q-8 0 -14.5 -1t-11.5 -2q-10 -26 -18 -49t-13 -40q-3 -10 -3 -18q0 -15 9 -15v-2h-39v2q7 0 13.5 9t11.5 24l13.5 40.5t16.5 46.5l2 7
q15 39 30.5 79t28.5 72q15 38 29 74h33q25 -65 48 -126q10 -25 20 -52t19 -52.5t17 -48t13 -39.5zM189 222q14 -8 29 -13.5t36 -7.5q-14 38 -30.5 81.5t-30.5 81.5l-34 88q-13 -33 -27 -69q-12 -30 -26.5 -67.5t-28.5 -73.5q9 3 23 3q32 0 52 -7.5t37 -15.5zM131 500l-5 2
l39 51h6l39 -51l-5 -2l-37 33zM236 593q14 -14 3 -31.5t-29 -28.5h-4q11 11 17.5 23t-1.5 25q-2 5 -10 5q-10 0 -21 -11l-2 1q4 8 13 15.5t20 7.5q8 0 14 -6z" />
    <glyph glyph-name="uni1EAA" unicode="&#x1eaa;" horiz-adv-x="444" 
d="M400 94q4 -12 11 -23t13 -11v-2h-64v2q7 0 10.5 7t-1.5 22q-5 14 -12.5 37t-18.5 52h-1q-17 47 -52.5 72.5t-86.5 25.5q-15 0 -31.5 -1.5t-35.5 -6.5q-2 0 -2.5 -0.5t-2.5 -0.5q-6 -18 -15.5 -45t-18.5 -53t-16 -47.5t-9 -28.5q-3 -10 -3 -18q0 -15 9 -15v-2h-39v2
q7 0 13.5 9t11.5 24q3 8 10 29t15.5 47t17.5 52t15 44q-45 -10 -67 -15.5t-37.5 -9t-35 -8t-60.5 -13.5q-32 -7 -61 -7q-30 0 -60 9.5t-57.5 26t-50.5 38.5t-38 47h1q29 -48 77.5 -76t104.5 -28q25 0 54 6l214 49q7 2 13 3l12 2q14 39 29.5 79t28.5 72q15 38 29 73h33
q36 -94 67 -176q13 -35 26.5 -71t25 -68.5t21 -59.5t14.5 -44zM238 600q-11 0 -21.5 3.5t-18.5 3.5q-6 0 -10.5 -3t-6.5 -12h-4q4 18 12 24t21 6q11 0 24 -3q17 -3 25 0t12 14h4q-4 -14 -12.5 -23.5t-24.5 -9.5zM189 533l-5 2l39 51h6l39 -51l-5 -2l-37 33zM333 192
q-17 48 -37.5 102t-38.5 100l-40 106q-13 -33 -27 -69q-12 -30 -26.5 -67t-28.5 -73q23 3 41 3q52 0 93.5 -28t63.5 -74z" />
    <glyph glyph-name="uni1EAB" unicode="&#x1eab;" 
d="M305 147q4 -12 11 -23t14 -11v-2h-65v2q7 0 10.5 7t-1.5 22q-3 11 -7.5 24t-10.5 28q-24 2 -40.5 8t-31.5 14q-17 8 -35.5 15t-48.5 7q-8 0 -14.5 -1t-11.5 -2q-10 -26 -18 -49t-13 -40q-3 -10 -3 -18q0 -15 9 -15v-2h-39v2q7 0 13.5 9t11.5 24l13.5 40.5t16.5 46.5l2 7
q15 39 30.5 79t28.5 72q15 38 29 74h33q25 -65 48 -126q10 -25 20 -52t19 -52.5t17 -48t13 -39.5zM180 567q-11 0 -21.5 3.5t-18.5 3.5q-6 0 -10.5 -3t-6.5 -12h-4q4 18 12 24t21 6q11 0 24 -3q17 -3 25 0t12 14h4q-4 -14 -12.5 -23.5t-24.5 -9.5zM131 500l-5 2l39 51h6
l39 -51l-5 -2l-37 33zM189 222q14 -8 29 -13.5t36 -7.5q-14 38 -30.5 81.5t-30.5 81.5l-34 88q-13 -33 -27 -69q-12 -30 -26.5 -67.5t-28.5 -73.5q9 3 23 3q32 0 52 -7.5t37 -15.5z" />
    <glyph glyph-name="uni1EAC" unicode="&#x1eac;" horiz-adv-x="444" 
d="M189 533l-5 2l39 51h6l39 -51l-5 -2l-37 33zM400 94q4 -12 11 -23t13 -11v-2h-64v2q7 0 10.5 7t-1.5 22q-5 14 -12.5 37t-18.5 52h-1q-17 47 -52.5 72.5t-86.5 25.5q-15 0 -31.5 -1.5t-35.5 -6.5q-2 0 -2.5 -0.5t-2.5 -0.5q-6 -18 -15.5 -45t-18.5 -53t-16 -47.5
t-9 -28.5q-3 -10 -3 -18q0 -15 9 -15v-2h-39v2q7 0 13.5 9t11.5 24q3 8 10 29t15.5 47t17.5 52t15 44q-45 -10 -67 -15.5t-37.5 -9t-35 -8t-60.5 -13.5q-32 -7 -61 -7q-30 0 -60 9.5t-57.5 26t-50.5 38.5t-38 47h1q29 -48 77.5 -76t104.5 -28q25 0 54 6l214 49q7 2 13 3
l12 2q14 39 29.5 79t28.5 72q15 38 29 73h33q36 -94 67 -176q13 -35 26.5 -71t25 -68.5t21 -59.5t14.5 -44zM333 192q-17 48 -37.5 102t-38.5 100l-40 106q-13 -33 -27 -69q-12 -30 -26.5 -67t-28.5 -73q23 3 41 3q52 0 93.5 -28t63.5 -74zM226 -13q-6 0 -11 5q-5 4 -5 11
q0 8 5 12q5 5 11 5q5 0 12 -5q4 -4 4 -12q0 -7 -4 -11q-7 -5 -12 -5z" />
    <glyph glyph-name="uni1EAD" unicode="&#x1ead;" 
d="M131 500l-5 2l39 51h6l39 -51l-5 -2l-37 33zM305 147q4 -12 11 -23t14 -11v-2h-65v2q7 0 10.5 7t-1.5 22q-3 11 -7.5 24t-10.5 28q-24 2 -40.5 8t-31.5 14q-17 8 -35.5 15t-48.5 7q-8 0 -14.5 -1t-11.5 -2q-10 -26 -18 -49t-13 -40q-3 -10 -3 -18q0 -15 9 -15v-2h-39v2
q7 0 13.5 9t11.5 24l13.5 40.5t16.5 46.5l2 7q15 39 30.5 79t28.5 72q15 38 29 74h33q25 -65 48 -126q10 -25 20 -52t19 -52.5t17 -48t13 -39.5zM189 222q14 -8 29 -13.5t36 -7.5q-14 38 -30.5 81.5t-30.5 81.5l-34 88q-13 -33 -27 -69q-12 -30 -26.5 -67.5t-28.5 -73.5
q9 3 23 3q32 0 52 -7.5t37 -15.5zM169 37q-6 0 -11 5q-5 4 -5 11q0 8 5 12q5 5 11 5q5 0 12 -5q4 -4 4 -12q0 -7 -4 -11q-7 -5 -12 -5z" />
    <glyph glyph-name="uni1EAE" unicode="&#x1eae;" horiz-adv-x="444" 
d="M226 533q-17 0 -27 10.5t-10 27.5l5 1q0 -11 9 -17.5t23 -6.5t24 6.5t10 16.5l5 1q0 -18 -11 -28.5t-28 -10.5zM400 94q4 -12 11 -23t13 -11v-2h-64v2q7 0 10.5 7t-1.5 22q-5 14 -12.5 37t-18.5 52h-1q-17 47 -52.5 72.5t-86.5 25.5q-15 0 -31.5 -1.5t-35.5 -6.5
q-2 0 -2.5 -0.5t-2.5 -0.5q-6 -18 -15.5 -45t-18.5 -53t-16 -47.5t-9 -28.5q-3 -10 -3 -18q0 -15 9 -15v-2h-39v2q7 0 13.5 9t11.5 24q3 8 10 29t15.5 47t17.5 52t15 44q-45 -10 -67 -15.5t-37.5 -9t-35 -8t-60.5 -13.5q-32 -7 -61 -7q-30 0 -60 9.5t-57.5 26t-50.5 38.5
t-38 47h1q29 -48 77.5 -76t104.5 -28q25 0 54 6l214 49q7 2 13 3l12 2q14 39 29.5 79t28.5 72q15 38 29 73h33q36 -94 67 -176q13 -35 26.5 -71t25 -68.5t21 -59.5t14.5 -44zM333 192q-17 48 -37.5 102t-38.5 100l-40 106q-13 -33 -27 -69q-12 -30 -26.5 -67t-28.5 -73
q23 3 41 3q52 0 93.5 -28t63.5 -74zM247 619h33l-54 -53l-2 2z" />
    <glyph glyph-name="uni1EAF" unicode="&#x1eaf;" 
d="M305 147q4 -12 11 -23t14 -11v-2h-65v2q7 0 10.5 7t-1.5 22q-3 11 -7.5 24t-10.5 28q-24 2 -40.5 8t-31.5 14q-17 8 -35.5 15t-48.5 7q-8 0 -14.5 -1t-11.5 -2q-10 -26 -18 -49t-13 -40q-3 -10 -3 -18q0 -15 9 -15v-2h-39v2q7 0 13.5 9t11.5 24l13.5 40.5t16.5 46.5l2 7
q15 39 30.5 79t28.5 72q15 38 29 74h33q25 -65 48 -126q10 -25 20 -52t19 -52.5t17 -48t13 -39.5zM189 222q14 -8 29 -13.5t36 -7.5q-14 38 -30.5 81.5t-30.5 81.5l-34 88q-13 -33 -27 -69q-12 -30 -26.5 -67.5t-28.5 -73.5q9 3 23 3q32 0 52 -7.5t37 -15.5zM169 500
q-17 0 -27 10.5t-10 27.5l5 1q0 -11 9 -17.5t23 -6.5t24 6.5t10 16.5l5 1q0 -18 -11 -28.5t-28 -10.5zM190 586h33l-54 -53l-2 2z" />
    <glyph glyph-name="uni1EB0" unicode="&#x1eb0;" horiz-adv-x="444" 
d="M226 533q-17 0 -27 10.5t-10 27.5l5 1q0 -11 9 -17.5t23 -6.5t24 6.5t10 16.5l5 1q0 -18 -11 -28.5t-28 -10.5zM400 94q4 -12 11 -23t13 -11v-2h-64v2q7 0 10.5 7t-1.5 22q-5 14 -12.5 37t-18.5 52h-1q-17 47 -52.5 72.5t-86.5 25.5q-15 0 -31.5 -1.5t-35.5 -6.5
q-2 0 -2.5 -0.5t-2.5 -0.5q-6 -18 -15.5 -45t-18.5 -53t-16 -47.5t-9 -28.5q-3 -10 -3 -18q0 -15 9 -15v-2h-39v2q7 0 13.5 9t11.5 24q3 8 10 29t15.5 47t17.5 52t15 44q-45 -10 -67 -15.5t-37.5 -9t-35 -8t-60.5 -13.5q-32 -7 -61 -7q-30 0 -60 9.5t-57.5 26t-50.5 38.5
t-38 47h1q29 -48 77.5 -76t104.5 -28q25 0 54 6l214 49q7 2 13 3l12 2q14 39 29.5 79t28.5 72q15 38 29 73h33q36 -94 67 -176q13 -35 26.5 -71t25 -68.5t21 -59.5t14.5 -44zM333 192q-17 48 -37.5 102t-38.5 100l-40 106q-13 -33 -27 -69q-12 -30 -26.5 -67t-28.5 -73
q23 3 41 3q52 0 93.5 -28t63.5 -74zM226 566l-54 53h33l23 -51z" />
    <glyph glyph-name="uni1EB1" unicode="&#x1eb1;" 
d="M305 147q4 -12 11 -23t14 -11v-2h-65v2q7 0 10.5 7t-1.5 22q-3 11 -7.5 24t-10.5 28q-24 2 -40.5 8t-31.5 14q-17 8 -35.5 15t-48.5 7q-8 0 -14.5 -1t-11.5 -2q-10 -26 -18 -49t-13 -40q-3 -10 -3 -18q0 -15 9 -15v-2h-39v2q7 0 13.5 9t11.5 24l13.5 40.5t16.5 46.5l2 7
q15 39 30.5 79t28.5 72q15 38 29 74h33q25 -65 48 -126q10 -25 20 -52t19 -52.5t17 -48t13 -39.5zM189 222q14 -8 29 -13.5t36 -7.5q-14 38 -30.5 81.5t-30.5 81.5l-34 88q-13 -33 -27 -69q-12 -30 -26.5 -67.5t-28.5 -73.5q9 3 23 3q32 0 52 -7.5t37 -15.5zM169 500
q-17 0 -27 10.5t-10 27.5l5 1q0 -11 9 -17.5t23 -6.5t24 6.5t10 16.5l5 1q0 -18 -11 -28.5t-28 -10.5zM169 533l-54 53h33l23 -51z" />
    <glyph glyph-name="uni1EB2" unicode="&#x1eb2;" horiz-adv-x="444" 
d="M226 533q-17 0 -27 10.5t-10 27.5l5 1q0 -11 9 -17.5t23 -6.5t24 6.5t10 16.5l5 1q0 -18 -11 -28.5t-28 -10.5zM400 94q4 -12 11 -23t13 -11v-2h-64v2q7 0 10.5 7t-1.5 22q-5 14 -12.5 37t-18.5 52h-1q-17 47 -52.5 72.5t-86.5 25.5q-15 0 -31.5 -1.5t-35.5 -6.5
q-2 0 -2.5 -0.5t-2.5 -0.5q-6 -18 -15.5 -45t-18.5 -53t-16 -47.5t-9 -28.5q-3 -10 -3 -18q0 -15 9 -15v-2h-39v2q7 0 13.5 9t11.5 24q3 8 10 29t15.5 47t17.5 52t15 44q-45 -10 -67 -15.5t-37.5 -9t-35 -8t-60.5 -13.5q-32 -7 -61 -7q-30 0 -60 9.5t-57.5 26t-50.5 38.5
t-38 47h1q29 -48 77.5 -76t104.5 -28q25 0 54 6l214 49q7 2 13 3l12 2q14 39 29.5 79t28.5 72q15 38 29 73h33q36 -94 67 -176q13 -35 26.5 -71t25 -68.5t21 -59.5t14.5 -44zM333 192q-17 48 -37.5 102t-38.5 100l-40 106q-13 -33 -27 -69q-12 -30 -26.5 -67t-28.5 -73
q23 3 41 3q52 0 93.5 -28t63.5 -74zM255 626q14 -14 3 -31.5t-29 -28.5h-4q11 11 17.5 23t-1.5 25q-2 5 -10 5q-10 0 -21 -11l-2 1q4 8 13 15.5t20 7.5q8 0 14 -6z" />
    <glyph glyph-name="uni1EB3" unicode="&#x1eb3;" 
d="M305 147q4 -12 11 -23t14 -11v-2h-65v2q7 0 10.5 7t-1.5 22q-3 11 -7.5 24t-10.5 28q-24 2 -40.5 8t-31.5 14q-17 8 -35.5 15t-48.5 7q-8 0 -14.5 -1t-11.5 -2q-10 -26 -18 -49t-13 -40q-3 -10 -3 -18q0 -15 9 -15v-2h-39v2q7 0 13.5 9t11.5 24l13.5 40.5t16.5 46.5l2 7
q15 39 30.5 79t28.5 72q15 38 29 74h33q25 -65 48 -126q10 -25 20 -52t19 -52.5t17 -48t13 -39.5zM189 222q14 -8 29 -13.5t36 -7.5q-14 38 -30.5 81.5t-30.5 81.5l-34 88q-13 -33 -27 -69q-12 -30 -26.5 -67.5t-28.5 -73.5q9 3 23 3q32 0 52 -7.5t37 -15.5zM169 500
q-17 0 -27 10.5t-10 27.5l5 1q0 -11 9 -17.5t23 -6.5t24 6.5t10 16.5l5 1q0 -18 -11 -28.5t-28 -10.5zM198 593q14 -14 3 -31.5t-29 -28.5h-4q11 11 17.5 23t-1.5 25q-2 5 -10 5q-10 0 -21 -11l-2 1q4 8 13 15.5t20 7.5q8 0 14 -6z" />
    <glyph glyph-name="uni1EB4" unicode="&#x1eb4;" horiz-adv-x="444" 
d="M226 533q-17 0 -27 10.5t-10 27.5l5 1q0 -11 9 -17.5t23 -6.5t24 6.5t10 16.5l5 1q0 -18 -11 -28.5t-28 -10.5zM400 94q4 -12 11 -23t13 -11v-2h-64v2q7 0 10.5 7t-1.5 22q-5 14 -12.5 37t-18.5 52h-1q-17 47 -52.5 72.5t-86.5 25.5q-15 0 -31.5 -1.5t-35.5 -6.5
q-2 0 -2.5 -0.5t-2.5 -0.5q-6 -18 -15.5 -45t-18.5 -53t-16 -47.5t-9 -28.5q-3 -10 -3 -18q0 -15 9 -15v-2h-39v2q7 0 13.5 9t11.5 24q3 8 10 29t15.5 47t17.5 52t15 44q-45 -10 -67 -15.5t-37.5 -9t-35 -8t-60.5 -13.5q-32 -7 -61 -7q-30 0 -60 9.5t-57.5 26t-50.5 38.5
t-38 47h1q29 -48 77.5 -76t104.5 -28q25 0 54 6l214 49q7 2 13 3l12 2q14 39 29.5 79t28.5 72q15 38 29 73h33q36 -94 67 -176q13 -35 26.5 -71t25 -68.5t21 -59.5t14.5 -44zM333 192q-17 48 -37.5 102t-38.5 100l-40 106q-13 -33 -27 -69q-12 -30 -26.5 -67t-28.5 -73
q23 3 41 3q52 0 93.5 -28t63.5 -74zM238 586q-11 0 -21.5 3.5t-18.5 3.5q-6 0 -10.5 -3t-6.5 -12h-4q4 18 12 24t21 6q11 0 24 -3q17 -3 25 0t12 14h4q-4 -14 -12.5 -23.5t-24.5 -9.5z" />
    <glyph glyph-name="uni1EB5" unicode="&#x1eb5;" 
d="M305 147q4 -12 11 -23t14 -11v-2h-65v2q7 0 10.5 7t-1.5 22q-3 11 -7.5 24t-10.5 28q-24 2 -40.5 8t-31.5 14q-17 8 -35.5 15t-48.5 7q-8 0 -14.5 -1t-11.5 -2q-10 -26 -18 -49t-13 -40q-3 -10 -3 -18q0 -15 9 -15v-2h-39v2q7 0 13.5 9t11.5 24l13.5 40.5t16.5 46.5l2 7
q15 39 30.5 79t28.5 72q15 38 29 74h33q25 -65 48 -126q10 -25 20 -52t19 -52.5t17 -48t13 -39.5zM189 222q14 -8 29 -13.5t36 -7.5q-14 38 -30.5 81.5t-30.5 81.5l-34 88q-13 -33 -27 -69q-12 -30 -26.5 -67.5t-28.5 -73.5q9 3 23 3q32 0 52 -7.5t37 -15.5zM169 500
q-17 0 -27 10.5t-10 27.5l5 1q0 -11 9 -17.5t23 -6.5t24 6.5t10 16.5l5 1q0 -18 -11 -28.5t-28 -10.5zM181 553q-11 0 -21.5 3.5t-18.5 3.5q-6 0 -10.5 -3t-6.5 -12h-4q4 18 12 24t21 6q11 0 24 -3q17 -3 25 0t12 14h4q-4 -14 -12.5 -23.5t-24.5 -9.5z" />
    <glyph glyph-name="uni1EB6" unicode="&#x1eb6;" horiz-adv-x="444" 
d="M226 533q-17 0 -27 10.5t-10 27.5l5 1q0 -11 9 -17.5t23 -6.5t24 6.5t10 16.5l5 1q0 -18 -11 -28.5t-28 -10.5zM400 94q4 -12 11 -23t13 -11v-2h-64v2q7 0 10.5 7t-1.5 22q-5 14 -12.5 37t-18.5 52h-1q-17 47 -52.5 72.5t-86.5 25.5q-15 0 -31.5 -1.5t-35.5 -6.5
q-2 0 -2.5 -0.5t-2.5 -0.5q-6 -18 -15.5 -45t-18.5 -53t-16 -47.5t-9 -28.5q-3 -10 -3 -18q0 -15 9 -15v-2h-39v2q7 0 13.5 9t11.5 24q3 8 10 29t15.5 47t17.5 52t15 44q-45 -10 -67 -15.5t-37.5 -9t-35 -8t-60.5 -13.5q-32 -7 -61 -7q-30 0 -60 9.5t-57.5 26t-50.5 38.5
t-38 47h1q29 -48 77.5 -76t104.5 -28q25 0 54 6l214 49q7 2 13 3l12 2q14 39 29.5 79t28.5 72q15 38 29 73h33q36 -94 67 -176q13 -35 26.5 -71t25 -68.5t21 -59.5t14.5 -44zM333 192q-17 48 -37.5 102t-38.5 100l-40 106q-13 -33 -27 -69q-12 -30 -26.5 -67t-28.5 -73
q23 3 41 3q52 0 93.5 -28t63.5 -74zM226 -13q-6 0 -11 5q-5 4 -5 11q0 8 5 12q5 5 11 5q5 0 12 -5q4 -4 4 -12q0 -7 -4 -11q-7 -5 -12 -5z" />
    <glyph glyph-name="uni1EB7" unicode="&#x1eb7;" 
d="M169 500q-17 0 -27 10.5t-10 27.5l5 1q0 -11 9 -17.5t23 -6.5t24 6.5t10 16.5l5 1q0 -18 -11 -28.5t-28 -10.5zM305 147q4 -12 11 -23t14 -11v-2h-65v2q7 0 10.5 7t-1.5 22q-3 11 -7.5 24t-10.5 28q-24 2 -40.5 8t-31.5 14q-17 8 -35.5 15t-48.5 7q-8 0 -14.5 -1
t-11.5 -2q-10 -26 -18 -49t-13 -40q-3 -10 -3 -18q0 -15 9 -15v-2h-39v2q7 0 13.5 9t11.5 24l13.5 40.5t16.5 46.5l2 7q15 39 30.5 79t28.5 72q15 38 29 74h33q25 -65 48 -126q10 -25 20 -52t19 -52.5t17 -48t13 -39.5zM189 222q14 -8 29 -13.5t36 -7.5q-14 38 -30.5 81.5
t-30.5 81.5l-34 88q-13 -33 -27 -69q-12 -30 -26.5 -67.5t-28.5 -73.5q9 3 23 3q32 0 52 -7.5t37 -15.5zM169 37q-6 0 -11 5q-5 4 -5 11q0 8 5 12q5 5 11 5q5 0 12 -5q4 -4 4 -12q0 -7 -4 -11q-7 -5 -12 -5z" />
    <glyph glyph-name="uni1EB8" unicode="&#x1eb8;" horiz-adv-x="290" 
d="M56 122q8 11 8 28v301q0 24 -1.5 34.5t-4.5 16.5q-7 12 -16 12v2h237l8 -37h-4q-6 13 -20.5 19t-34 8.5t-43.5 2t-50 -0.5h-39v-209h98q20 0 31 7t11 14h4v-51h-4v2q0 7 -11.5 14t-30.5 7h-98v-168q-11 1 -20.5 0.5t-19.5 -2.5zM357 -1q-26 11 -42.5 18t-28 11.5t-21.5 9
t-23.5 10t-33.5 14t-53 21.5q-57 23 -96 23q-32 0 -58 -14l-1 2q40 25 85 25q43 0 103 -24l202 -84q47 -19 87 -19q47 0 88.5 21t73.5 55l1 -1q-17 -19 -39 -35t-47.5 -28t-52 -18.5t-52.5 -6.5q-42 0 -92 20zM169 -13q-6 0 -11 5q-5 4 -5 11q0 8 5 12q5 5 11 5q5 0 12 -5
q4 -4 4 -12q0 -7 -4 -11q-7 -5 -12 -5z" />
    <glyph glyph-name="uni1EB9" unicode="&#x1eb9;" horiz-adv-x="284" 
d="M20 113q9 0 15.5 11.5t6.5 32.5v262q0 20 -6.5 32t-15.5 12v2h237l8 -37h-5q-6 13 -20 19t-34 8.5t-44 2.5h-50h-38v-168h97q20 0 31.5 7t11.5 14h4v-51h-4v1q0 8 -11.5 15t-31.5 7h-97v-165h43h51.5t44.5 2t35 8.5t22 18.5h4l-7 -36h-247v2zM147 37q-6 0 -11 5
q-5 4 -5 11q0 8 5 12q5 5 11 5q5 0 12 -5q4 -4 4 -12q0 -7 -4 -11q-7 -5 -12 -5z" />
    <glyph glyph-name="uni1EBA" unicode="&#x1eba;" horiz-adv-x="290" 
d="M56 122q8 11 8 28v301q0 24 -1.5 34.5t-4.5 16.5q-7 12 -16 12v2h237l8 -37h-4q-6 13 -20.5 19t-34 8.5t-43.5 2t-50 -0.5h-39v-209h98q20 0 31 7t11 14h4v-51h-4v2q0 7 -11.5 14t-30.5 7h-98v-168q-11 1 -20.5 0.5t-19.5 -2.5zM357 -1q-26 11 -42.5 18t-28 11.5t-21.5 9
t-23.5 10t-33.5 14t-53 21.5q-57 23 -96 23q-32 0 -58 -14l-1 2q40 25 85 25q43 0 103 -24l202 -84q47 -19 87 -19q47 0 88.5 21t73.5 55l1 -1q-17 -19 -39 -35t-47.5 -28t-52 -18.5t-52.5 -6.5q-42 0 -92 20zM199 593q14 -14 3 -31.5t-29 -28.5h-4q11 11 17.5 23t-1.5 25
q-2 5 -10 5q-10 0 -21 -11l-2 1q4 8 13 15.5t20 7.5q8 0 14 -6z" />
    <glyph glyph-name="uni1EBB" unicode="&#x1ebb;" horiz-adv-x="284" 
d="M20 113q9 0 15.5 11.5t6.5 32.5v262q0 20 -6.5 32t-15.5 12v2h237l8 -37h-5q-6 13 -20 19t-34 8.5t-44 2.5h-50h-38v-168h97q20 0 31.5 7t11.5 14h4v-51h-4v1q0 8 -11.5 15t-31.5 7h-97v-165h43h51.5t44.5 2t35 8.5t22 18.5h4l-7 -36h-247v2zM177 560q14 -14 3 -31.5
t-29 -28.5h-4q11 11 17.5 23t-1.5 25q-2 5 -10 5q-10 0 -21 -11l-2 1q4 8 13 15.5t20 7.5q8 0 14 -6z" />
    <glyph glyph-name="uni1EBC" unicode="&#x1ebc;" horiz-adv-x="290" 
d="M56 122q8 11 8 28v301q0 24 -1.5 34.5t-4.5 16.5q-7 12 -16 12v2h237l8 -37h-4q-6 13 -20.5 19t-34 8.5t-43.5 2t-50 -0.5h-39v-209h98q20 0 31 7t11 14h4v-51h-4v2q0 7 -11.5 14t-30.5 7h-98v-168q-11 1 -20.5 0.5t-19.5 -2.5zM357 -1q-26 11 -42.5 18t-28 11.5t-21.5 9
t-23.5 10t-33.5 14t-53 21.5q-57 23 -96 23q-32 0 -58 -14l-1 2q40 25 85 25q43 0 103 -24l202 -84q47 -19 87 -19q47 0 88.5 21t73.5 55l1 -1q-17 -19 -39 -35t-47.5 -28t-52 -18.5t-52.5 -6.5q-42 0 -92 20zM181 541q-11 0 -21.5 3.5t-18.5 3.5q-6 0 -10.5 -3t-6.5 -12h-4
q4 18 12 24t21 6q11 0 24 -3q17 -3 25 0t12 14h4q-4 -14 -12.5 -23.5t-24.5 -9.5z" />
    <glyph glyph-name="uni1EBD" unicode="&#x1ebd;" horiz-adv-x="284" 
d="M20 113q9 0 15.5 11.5t6.5 32.5v262q0 20 -6.5 32t-15.5 12v2h237l8 -37h-5q-6 13 -20 19t-34 8.5t-44 2.5h-50h-38v-168h97q20 0 31.5 7t11.5 14h4v-51h-4v1q0 8 -11.5 15t-31.5 7h-97v-165h43h51.5t44.5 2t35 8.5t22 18.5h4l-7 -36h-247v2zM159 508q-11 0 -21.5 3.5
t-18.5 3.5q-6 0 -10.5 -3t-6.5 -12h-4q4 18 12 24t21 6q11 0 24 -3q17 -3 25 0t12 14h4q-4 -14 -12.5 -23.5t-24.5 -9.5z" />
    <glyph glyph-name="uni1EBE" unicode="&#x1ebe;" horiz-adv-x="290" 
d="M56 122q8 11 8 28v301q0 24 -1.5 34.5t-4.5 16.5q-7 12 -16 12v2h237l8 -37h-4q-6 13 -20.5 19t-34 8.5t-43.5 2t-50 -0.5h-39v-209h98q20 0 31 7t11 14h4v-51h-4v2q0 7 -11.5 14t-30.5 7h-98v-168q-11 1 -20.5 0.5t-19.5 -2.5zM357 -1q-26 11 -42.5 18t-28 11.5t-21.5 9
t-23.5 10t-33.5 14t-53 21.5q-57 23 -96 23q-32 0 -58 -14l-1 2q40 25 85 25q43 0 103 -24l202 -84q47 -19 87 -19q47 0 88.5 21t73.5 55l1 -1q-17 -19 -39 -35t-47.5 -28t-52 -18.5t-52.5 -6.5q-42 0 -92 20zM132 533l-5 2l39 51h6l39 -51l-5 -2l-37 33zM230 619h33
l-54 -53l-2 2z" />
    <glyph glyph-name="uni1EBF" unicode="&#x1ebf;" horiz-adv-x="284" 
d="M20 113q9 0 15.5 11.5t6.5 32.5v262q0 20 -6.5 32t-15.5 12v2h237l8 -37h-5q-6 13 -20 19t-34 8.5t-44 2.5h-50h-38v-168h97q20 0 31.5 7t11.5 14h4v-51h-4v1q0 8 -11.5 15t-31.5 7h-97v-165h43h51.5t44.5 2t35 8.5t22 18.5h4l-7 -36h-247v2zM110 500l-5 2l39 51h6
l39 -51l-5 -2l-37 33zM208 586h33l-54 -53l-2 2z" />
    <glyph glyph-name="uni1EC0" unicode="&#x1ec0;" horiz-adv-x="290" 
d="M56 122q8 11 8 28v301q0 24 -1.5 34.5t-4.5 16.5q-7 12 -16 12v2h237l8 -37h-4q-6 13 -20.5 19t-34 8.5t-43.5 2t-50 -0.5h-39v-209h98q20 0 31 7t11 14h4v-51h-4v2q0 7 -11.5 14t-30.5 7h-98v-168q-11 1 -20.5 0.5t-19.5 -2.5zM357 -1q-26 11 -42.5 18t-28 11.5t-21.5 9
t-23.5 10t-33.5 14t-53 21.5q-57 23 -96 23q-32 0 -58 -14l-1 2q40 25 85 25q43 0 103 -24l202 -84q47 -19 87 -19q47 0 88.5 21t73.5 55l1 -1q-17 -19 -39 -35t-47.5 -28t-52 -18.5t-52.5 -6.5q-42 0 -92 20zM132 533l-5 2l39 51h6l39 -51l-5 -2l-37 33zM229 566l-54 53h33
l23 -51z" />
    <glyph glyph-name="uni1EC1" unicode="&#x1ec1;" horiz-adv-x="284" 
d="M20 113q9 0 15.5 11.5t6.5 32.5v262q0 20 -6.5 32t-15.5 12v2h237l8 -37h-5q-6 13 -20 19t-34 8.5t-44 2.5h-50h-38v-168h97q20 0 31.5 7t11.5 14h4v-51h-4v1q0 8 -11.5 15t-31.5 7h-97v-165h43h51.5t44.5 2t35 8.5t22 18.5h4l-7 -36h-247v2zM110 500l-5 2l39 51h6
l39 -51l-5 -2l-37 33zM207 533l-54 53h33l23 -51z" />
    <glyph glyph-name="uni1EC2" unicode="&#x1ec2;" horiz-adv-x="290" 
d="M56 122q8 11 8 28v301q0 24 -1.5 34.5t-4.5 16.5q-7 12 -16 12v2h237l8 -37h-4q-6 13 -20.5 19t-34 8.5t-43.5 2t-50 -0.5h-39v-209h98q20 0 31 7t11 14h4v-51h-4v2q0 7 -11.5 14t-30.5 7h-98v-168q-11 1 -20.5 0.5t-19.5 -2.5zM357 -1q-26 11 -42.5 18t-28 11.5t-21.5 9
t-23.5 10t-33.5 14t-53 21.5q-57 23 -96 23q-32 0 -58 -14l-1 2q40 25 85 25q43 0 103 -24l202 -84q47 -19 87 -19q47 0 88.5 21t73.5 55l1 -1q-17 -19 -39 -35t-47.5 -28t-52 -18.5t-52.5 -6.5q-42 0 -92 20zM132 533l-5 2l39 51h6l39 -51l-5 -2l-37 33zM237 626
q14 -14 3 -31.5t-29 -28.5h-4q11 11 17.5 23t-1.5 25q-2 5 -10 5q-10 0 -21 -11l-2 1q4 8 13 15.5t20 7.5q8 0 14 -6z" />
    <glyph glyph-name="uni1EC3" unicode="&#x1ec3;" horiz-adv-x="284" 
d="M20 113q9 0 15.5 11.5t6.5 32.5v262q0 20 -6.5 32t-15.5 12v2h237l8 -37h-5q-6 13 -20 19t-34 8.5t-44 2.5h-50h-38v-168h97q20 0 31.5 7t11.5 14h4v-51h-4v1q0 8 -11.5 15t-31.5 7h-97v-165h43h51.5t44.5 2t35 8.5t22 18.5h4l-7 -36h-247v2zM110 500l-5 2l39 51h6
l39 -51l-5 -2l-37 33zM215 593q14 -14 3 -31.5t-29 -28.5h-4q11 11 17.5 23t-1.5 25q-2 5 -10 5q-10 0 -21 -11l-2 1q4 8 13 15.5t20 7.5q8 0 14 -6z" />
    <glyph glyph-name="uni1EC4" unicode="&#x1ec4;" horiz-adv-x="290" 
d="M357 -1q-26 11 -42.5 18t-28 11.5t-21.5 9t-23.5 10t-33.5 14t-53 21.5q-57 23 -96 23q-32 0 -58 -14l-1 2q40 25 85 25q43 0 103 -24l202 -84q47 -19 87 -19q47 0 88.5 21t73.5 55l1 -1q-17 -19 -39 -35t-47.5 -28t-52 -18.5t-52.5 -6.5q-42 0 -92 20zM56 122q8 11 8 28
v301q0 24 -1.5 34.5t-4.5 16.5q-7 12 -16 12v2h237l8 -37h-4q-6 13 -20.5 19t-34 8.5t-43.5 2t-50 -0.5h-39v-209h98q20 0 31 7t11 14h4v-51h-4v2q0 7 -11.5 14t-30.5 7h-98v-168q-11 1 -20.5 0.5t-19.5 -2.5zM181 600q-11 0 -21.5 3.5t-18.5 3.5q-6 0 -10.5 -3t-6.5 -12h-4
q4 18 12 24t21 6q11 0 24 -3q17 -3 25 0t12 14h4q-4 -14 -12.5 -23.5t-24.5 -9.5zM132 533l-5 2l39 51h6l39 -51l-5 -2l-37 33z" />
    <glyph glyph-name="uni1EC5" unicode="&#x1ec5;" horiz-adv-x="284" 
d="M20 113q9 0 15.5 11.5t6.5 32.5v262q0 20 -6.5 32t-15.5 12v2h237l8 -37h-5q-6 13 -20 19t-34 8.5t-44 2.5h-50h-38v-168h97q20 0 31.5 7t11.5 14h4v-51h-4v1q0 8 -11.5 15t-31.5 7h-97v-165h43h51.5t44.5 2t35 8.5t22 18.5h4l-7 -36h-247v2zM159 567q-11 0 -21.5 3.5
t-18.5 3.5q-6 0 -10.5 -3t-6.5 -12h-4q4 18 12 24t21 6q11 0 24 -3q17 -3 25 0t12 14h4q-4 -14 -12.5 -23.5t-24.5 -9.5zM110 500l-5 2l39 51h6l39 -51l-5 -2l-37 33z" />
    <glyph glyph-name="uni1EC6" unicode="&#x1ec6;" horiz-adv-x="290" 
d="M127 535l39 51h6l39 -51l-5 -2l-37 33l-37 -33zM56 122q8 11 8 28v301q0 24 -1.5 34.5t-4.5 16.5q-7 12 -16 12v2h237l8 -37h-4q-6 13 -20.5 19t-34 8.5t-43.5 2t-50 -0.5h-39v-209h98q20 0 31 7t11 14h4v-51h-4v2q0 7 -11.5 14t-30.5 7h-98v-168q-11 1 -20.5 0.5
t-19.5 -2.5zM357 -1q-26 11 -42.5 18t-28 11.5t-21.5 9t-23.5 10t-33.5 14t-53 21.5q-57 23 -96 23q-32 0 -58 -14l-1 2q40 25 85 25q43 0 103 -24l202 -84q47 -19 87 -19q47 0 88.5 21t73.5 55l1 -1q-17 -19 -39 -35t-47.5 -28t-52 -18.5t-52.5 -6.5q-42 0 -92 20zM169 -13
q-6 0 -11 5q-5 4 -5 11q0 8 5 12q5 5 11 5q5 0 12 -5q4 -4 4 -12q0 -7 -4 -11q-7 -5 -12 -5z" />
    <glyph glyph-name="uni1EC7" unicode="&#x1ec7;" horiz-adv-x="284" 
d="M105 502l39 51h6l39 -51l-5 -2l-37 33l-37 -33zM20 113q9 0 15.5 11.5t6.5 32.5v262q0 20 -6.5 32t-15.5 12v2h237l8 -37h-5q-6 13 -20 19t-34 8.5t-44 2.5h-50h-38v-168h97q20 0 31.5 7t11.5 14h4v-51h-4v1q0 8 -11.5 15t-31.5 7h-97v-165h43h51.5t44.5 2t35 8.5
t22 18.5h4l-7 -36h-247v2zM147 37q-6 0 -11 5q-5 4 -5 11q0 8 5 12q5 5 11 5q5 0 12 -5q4 -4 4 -12q0 -7 -4 -11q-7 -5 -12 -5z" />
    <glyph glyph-name="uni1EC8" unicode="&#x1ec8;" horiz-adv-x="116" 
d="M20 60q7 0 11 5t6.5 12t3.5 14.5t1 12.5v365q0 13 -3 25q-2 6 -6.5 13t-12.5 7v2h76v-2q-9 0 -15.5 -12t-6.5 -23v-384q0 -11 6.5 -23t15.5 -12v-2h-76v2zM88 593q14 -14 3 -31.5t-29 -28.5h-4q11 11 17.5 23t-1.5 25q-2 5 -10 5q-10 0 -21 -11l-2 1q4 8 13 15.5t20 7.5
q8 0 14 -6z" />
    <glyph glyph-name="uni1EC9" unicode="&#x1ec9;" horiz-adv-x="116" 
d="M20 113q7 0 11 5t6.5 12t3.5 14.5t1 12.5v262q0 5 -1 12.5t-3.5 14.5t-6.5 12t-11 5v2h76v-2q-9 0 -15.5 -11.5t-6.5 -23.5v-280q0 -12 6.5 -23.5t15.5 -11.5v-2h-76v2zM88 560q14 -14 3 -31.5t-29 -28.5h-4q11 11 17.5 23t-1.5 25q-2 5 -10 5q-10 0 -21 -11l-2 1
q4 8 13 15.5t20 7.5q8 0 14 -6z" />
    <glyph glyph-name="uni1ECA" unicode="&#x1eca;" horiz-adv-x="116" 
d="M20 60q7 0 11 5t6.5 12t3.5 14.5t1 12.5v365q0 13 -3 25q-2 6 -6.5 13t-12.5 7v2h76v-2q-9 0 -15.5 -12t-6.5 -23v-384q0 -11 6.5 -23t15.5 -12v-2h-76v2zM58 -23q-6 0 -11 5q-5 4 -5 11q0 8 5 12q5 5 11 5q5 0 12 -5q4 -4 4 -12q0 -7 -4 -11q-7 -5 -12 -5z" />
    <glyph glyph-name="uni1ECB" unicode="&#x1ecb;" horiz-adv-x="116" 
d="M20 113q7 0 11 5t6.5 12t3.5 14.5t1 12.5v262q0 5 -1 12.5t-3.5 14.5t-6.5 12t-11 5v2h76v-2q-9 0 -15.5 -11.5t-6.5 -23.5v-280q0 -12 6.5 -23.5t15.5 -11.5v-2h-76v2zM58 37q-6 0 -11 5q-5 4 -5 11q0 8 5 12q5 5 11 5q5 0 12 -5q4 -4 4 -12q0 -7 -4 -11q-7 -5 -12 -5z
" />
    <glyph glyph-name="uni1ECC" unicode="&#x1ecc;" horiz-adv-x="466" 
d="M238 60q-47 0 -88.5 18t-72.5 49t-49 72.5t-18 88.5t18 88.5t49 72.5t72.5 49t88.5 18t88.5 -18t72.5 -49t49 -72.5t18 -88.5t-18 -88.5t-49 -72.5t-72.5 -49t-88.5 -18zM238 69q40 0 75.5 17t61.5 47t41.5 70t15.5 85t-15.5 84.5t-41.5 69.5t-61.5 47t-75.5 17
t-75.5 -17t-61.5 -47t-41.5 -69.5t-15.5 -84.5t15.5 -85t41.5 -70t61.5 -47t75.5 -17zM238 -13q-6 0 -11 5q-5 4 -5 11q0 8 5 12q5 5 11 5q5 0 12 -5q4 -4 4 -12q0 -7 -4 -11q-7 -5 -12 -5z" />
    <glyph glyph-name="uni1ECD" unicode="&#x1ecd;" horiz-adv-x="374" 
d="M187 111q-37 0 -69 14t-56 38t-38 56t-14 69t14 69t38 56t56 38t69 14t69 -14t56 -38t38 -56t14 -69t-14 -69t-38 -56t-56 -38t-69 -14zM187 118q30 0 56 13.5t45.5 36.5t31 54t11.5 66t-11.5 66t-31 54t-45.5 36.5t-56 13.5t-56 -13.5t-45.5 -36.5t-31 -54t-11.5 -66
t11.5 -66t31 -54t45.5 -36.5t56 -13.5zM187 37q-6 0 -11 5q-5 4 -5 11q0 8 5 12q5 5 11 5q5 0 12 -5q4 -4 4 -12q0 -7 -4 -11q-7 -5 -12 -5z" />
    <glyph glyph-name="uni1ECE" unicode="&#x1ece;" horiz-adv-x="466" 
d="M238 60q-47 0 -88.5 18t-72.5 49t-49 72.5t-18 88.5t18 88.5t49 72.5t72.5 49t88.5 18t88.5 -18t72.5 -49t49 -72.5t18 -88.5t-18 -88.5t-49 -72.5t-72.5 -49t-88.5 -18zM238 69q40 0 75.5 17t61.5 47t41.5 70t15.5 85t-15.5 84.5t-41.5 69.5t-61.5 47t-75.5 17
t-75.5 -17t-61.5 -47t-41.5 -69.5t-15.5 -84.5t15.5 -85t41.5 -70t61.5 -47t75.5 -17zM267 593q14 -14 3 -31.5t-29 -28.5h-4q11 11 17.5 23t-1.5 25q-2 5 -10 5q-10 0 -21 -11l-2 1q4 8 13 15.5t20 7.5q8 0 14 -6z" />
    <glyph glyph-name="uni1ECF" unicode="&#x1ecf;" horiz-adv-x="374" 
d="M187 111q-37 0 -69 14t-56 38t-38 56t-14 69t14 69t38 56t56 38t69 14t69 -14t56 -38t38 -56t14 -69t-14 -69t-38 -56t-56 -38t-69 -14zM187 118q30 0 56 13.5t45.5 36.5t31 54t11.5 66t-11.5 66t-31 54t-45.5 36.5t-56 13.5t-56 -13.5t-45.5 -36.5t-31 -54t-11.5 -66
t11.5 -66t31 -54t45.5 -36.5t56 -13.5zM217 560q14 -14 3 -31.5t-29 -28.5h-4q11 11 17.5 23t-1.5 25q-2 5 -10 5q-10 0 -21 -11l-2 1q4 8 13 15.5t20 7.5q8 0 14 -6z" />
    <glyph glyph-name="uni1ED0" unicode="&#x1ed0;" horiz-adv-x="466" 
d="M238 60q-47 0 -88.5 18t-72.5 49t-49 72.5t-18 88.5t18 88.5t49 72.5t72.5 49t88.5 18t88.5 -18t72.5 -49t49 -72.5t18 -88.5t-18 -88.5t-49 -72.5t-72.5 -49t-88.5 -18zM238 69q40 0 75.5 17t61.5 47t41.5 70t15.5 85t-15.5 84.5t-41.5 69.5t-61.5 47t-75.5 17
t-75.5 -17t-61.5 -47t-41.5 -69.5t-15.5 -84.5t15.5 -85t41.5 -70t61.5 -47t75.5 -17zM200 533l-5 2l39 51h6l39 -51l-5 -2l-37 33zM298 619h33l-54 -53l-2 2z" />
    <glyph glyph-name="uni1ED1" unicode="&#x1ed1;" horiz-adv-x="374" 
d="M187 111q-37 0 -69 14t-56 38t-38 56t-14 69t14 69t38 56t56 38t69 14t69 -14t56 -38t38 -56t14 -69t-14 -69t-38 -56t-56 -38t-69 -14zM187 118q30 0 56 13.5t45.5 36.5t31 54t11.5 66t-11.5 66t-31 54t-45.5 36.5t-56 13.5t-56 -13.5t-45.5 -36.5t-31 -54t-11.5 -66
t11.5 -66t31 -54t45.5 -36.5t56 -13.5zM150 500l-5 2l39 51h6l39 -51l-5 -2l-37 33zM248 586h33l-54 -53l-2 2z" />
    <glyph glyph-name="uni1ED2" unicode="&#x1ed2;" horiz-adv-x="466" 
d="M238 60q-47 0 -88.5 18t-72.5 49t-49 72.5t-18 88.5t18 88.5t49 72.5t72.5 49t88.5 18t88.5 -18t72.5 -49t49 -72.5t18 -88.5t-18 -88.5t-49 -72.5t-72.5 -49t-88.5 -18zM238 69q40 0 75.5 17t61.5 47t41.5 70t15.5 85t-15.5 84.5t-41.5 69.5t-61.5 47t-75.5 17
t-75.5 -17t-61.5 -47t-41.5 -69.5t-15.5 -84.5t15.5 -85t41.5 -70t61.5 -47t75.5 -17zM200 533l-5 2l39 51h6l39 -51l-5 -2l-37 33zM297 566l-54 53h33l23 -51z" />
    <glyph glyph-name="uni1ED3" unicode="&#x1ed3;" horiz-adv-x="374" 
d="M187 111q-37 0 -69 14t-56 38t-38 56t-14 69t14 69t38 56t56 38t69 14t69 -14t56 -38t38 -56t14 -69t-14 -69t-38 -56t-56 -38t-69 -14zM187 118q30 0 56 13.5t45.5 36.5t31 54t11.5 66t-11.5 66t-31 54t-45.5 36.5t-56 13.5t-56 -13.5t-45.5 -36.5t-31 -54t-11.5 -66
t11.5 -66t31 -54t45.5 -36.5t56 -13.5zM150 500l-5 2l39 51h6l39 -51l-5 -2l-37 33zM247 533l-54 53h33l23 -51z" />
    <glyph glyph-name="uni1ED4" unicode="&#x1ed4;" horiz-adv-x="466" 
d="M238 60q-47 0 -88.5 18t-72.5 49t-49 72.5t-18 88.5t18 88.5t49 72.5t72.5 49t88.5 18t88.5 -18t72.5 -49t49 -72.5t18 -88.5t-18 -88.5t-49 -72.5t-72.5 -49t-88.5 -18zM238 69q40 0 75.5 17t61.5 47t41.5 70t15.5 85t-15.5 84.5t-41.5 69.5t-61.5 47t-75.5 17
t-75.5 -17t-61.5 -47t-41.5 -69.5t-15.5 -84.5t15.5 -85t41.5 -70t61.5 -47t75.5 -17zM200 533l-5 2l39 51h6l39 -51l-5 -2l-37 33zM305 626q14 -14 3 -31.5t-29 -28.5h-4q11 11 17.5 23t-1.5 25q-2 5 -10 5q-10 0 -21 -11l-2 1q4 8 13 15.5t20 7.5q8 0 14 -6z" />
    <glyph glyph-name="uni1ED5" unicode="&#x1ed5;" horiz-adv-x="374" 
d="M187 111q-37 0 -69 14t-56 38t-38 56t-14 69t14 69t38 56t56 38t69 14t69 -14t56 -38t38 -56t14 -69t-14 -69t-38 -56t-56 -38t-69 -14zM187 118q30 0 56 13.5t45.5 36.5t31 54t11.5 66t-11.5 66t-31 54t-45.5 36.5t-56 13.5t-56 -13.5t-45.5 -36.5t-31 -54t-11.5 -66
t11.5 -66t31 -54t45.5 -36.5t56 -13.5zM150 500l-5 2l39 51h6l39 -51l-5 -2l-37 33zM255 593q14 -14 3 -31.5t-29 -28.5h-4q11 11 17.5 23t-1.5 25q-2 5 -10 5q-10 0 -21 -11l-2 1q4 8 13 15.5t20 7.5q8 0 14 -6z" />
    <glyph glyph-name="uni1ED6" unicode="&#x1ed6;" horiz-adv-x="466" 
d="M238 60q-47 0 -88.5 18t-72.5 49t-49 72.5t-18 88.5t18 88.5t49 72.5t72.5 49t88.5 18t88.5 -18t72.5 -49t49 -72.5t18 -88.5t-18 -88.5t-49 -72.5t-72.5 -49t-88.5 -18zM249 600q-11 0 -21.5 3.5t-18.5 3.5q-6 0 -10.5 -3t-6.5 -12h-4q4 18 12 24t21 6q11 0 24 -3
q17 -3 25 0t12 14h4q-4 -14 -12.5 -23.5t-24.5 -9.5zM200 533l-5 2l39 51h6l39 -51l-5 -2l-37 33zM238 69q40 0 75.5 17t61.5 47t41.5 70t15.5 85t-15.5 84.5t-41.5 69.5t-61.5 47t-75.5 17t-75.5 -17t-61.5 -47t-41.5 -69.5t-15.5 -84.5t15.5 -85t41.5 -70t61.5 -47
t75.5 -17z" />
    <glyph glyph-name="uni1ED7" unicode="&#x1ed7;" horiz-adv-x="374" 
d="M187 111q-37 0 -69 14t-56 38t-38 56t-14 69t14 69t38 56t56 38t69 14t69 -14t56 -38t38 -56t14 -69t-14 -69t-38 -56t-56 -38t-69 -14zM199 567q-11 0 -21.5 3.5t-18.5 3.5q-6 0 -10.5 -3t-6.5 -12h-4q4 18 12 24t21 6q11 0 24 -3q17 -3 25 0t12 14h4
q-4 -14 -12.5 -23.5t-24.5 -9.5zM150 500l-5 2l39 51h6l39 -51l-5 -2l-37 33zM187 118q30 0 56 13.5t45.5 36.5t31 54t11.5 66t-11.5 66t-31 54t-45.5 36.5t-56 13.5t-56 -13.5t-45.5 -36.5t-31 -54t-11.5 -66t11.5 -66t31 -54t45.5 -36.5t56 -13.5z" />
    <glyph glyph-name="uni1ED8" unicode="&#x1ed8;" horiz-adv-x="466" 
d="M195 535l39 51h6l39 -51l-5 -2l-37 33l-37 -33zM238 60q-47 0 -88.5 18t-72.5 49t-49 72.5t-18 88.5t18 88.5t49 72.5t72.5 49t88.5 18t88.5 -18t72.5 -49t49 -72.5t18 -88.5t-18 -88.5t-49 -72.5t-72.5 -49t-88.5 -18zM238 69q40 0 75.5 17t61.5 47t41.5 70t15.5 85
t-15.5 84.5t-41.5 69.5t-61.5 47t-75.5 17t-75.5 -17t-61.5 -47t-41.5 -69.5t-15.5 -84.5t15.5 -85t41.5 -70t61.5 -47t75.5 -17zM238 -13q-6 0 -11 5q-5 4 -5 11q0 8 5 12q5 5 11 5q5 0 12 -5q4 -4 4 -12q0 -7 -4 -11q-7 -5 -12 -5z" />
    <glyph glyph-name="uni1ED9" unicode="&#x1ed9;" horiz-adv-x="374" 
d="M145 502l39 51h6l39 -51l-5 -2l-37 33l-37 -33zM187 111q-37 0 -69 14t-56 38t-38 56t-14 69t14 69t38 56t56 38t69 14t69 -14t56 -38t38 -56t14 -69t-14 -69t-38 -56t-56 -38t-69 -14zM187 118q30 0 56 13.5t45.5 36.5t31 54t11.5 66t-11.5 66t-31 54t-45.5 36.5
t-56 13.5t-56 -13.5t-45.5 -36.5t-31 -54t-11.5 -66t11.5 -66t31 -54t45.5 -36.5t56 -13.5zM187 37q-6 0 -11 5q-5 4 -5 11q0 8 5 12q5 5 11 5q5 0 12 -5q4 -4 4 -12q0 -7 -4 -11q-7 -5 -12 -5z" />
    <glyph glyph-name="uni1EDA" unicode="&#x1eda;" horiz-adv-x="466" 
d="M238 60q-47 0 -88.5 18t-72.5 49t-49 72.5t-18 88.5t18 88.5t49 72.5t72.5 49t88.5 18q48 0 93 -20q21 8 21 25q0 8 -3 12l-2 -3q-4 -5 -11 -5q-8 0 -12 5q-4 4 -4 10q0 7 3 11q5 5 10 6q13 3 23 -7q6 -7 6 -20q0 -27 -25 -37q57 -28 93 -82.5t36 -122.5q0 -47 -18 -88.5
t-49 -72.5t-72.5 -49t-88.5 -18zM238 69q40 0 75.5 17t61.5 47t41.5 70t15.5 85t-15.5 84.5t-41.5 69.5t-61.5 47t-75.5 17t-75.5 -17t-61.5 -47t-41.5 -69.5t-15.5 -84.5t15.5 -85t41.5 -70t61.5 -47t75.5 -17zM235 535l23 51h33l-54 -53z" />
    <glyph glyph-name="uni1EDB" unicode="&#x1edb;" horiz-adv-x="374" 
d="M187 111q-37 0 -69 14t-56 38t-38 56t-14 69t14 69t38 56t56 38t69 14q41 0 79 -19q21 8 21 25q0 8 -3 12l-2 -3q-4 -5 -11 -5q-8 0 -12 5q-4 4 -4 11q0 6 3 10q5 5 10 6q13 3 23 -7q6 -7 6 -20q0 -27 -25 -37q42 -23 67 -63.5t25 -91.5q0 -37 -14 -69t-38 -56t-56 -38
t-69 -14zM187 118q30 0 56 13.5t45.5 36.5t31 54t11.5 66t-11.5 66t-31 54t-45.5 36.5t-56 13.5t-56 -13.5t-45.5 -36.5t-31 -54t-11.5 -66t11.5 -66t31 -54t45.5 -36.5t56 -13.5zM192 502l23 51h33l-54 -53z" />
    <glyph glyph-name="uni1EDC" unicode="&#x1edc;" horiz-adv-x="466" 
d="M238 60q-47 0 -88.5 18t-72.5 49t-49 72.5t-18 88.5t18 88.5t49 72.5t72.5 49t88.5 18q48 0 93 -20q21 8 21 25q0 8 -3 12l-2 -3q-4 -5 -11 -5q-8 0 -12 5q-4 4 -4 10q0 7 3 11q5 5 10 6q13 3 23 -7q6 -7 6 -20q0 -27 -25 -37q57 -28 93 -82.5t36 -122.5q0 -47 -18 -88.5
t-49 -72.5t-72.5 -49t-88.5 -18zM238 69q40 0 75.5 17t61.5 47t41.5 70t15.5 85t-15.5 84.5t-41.5 69.5t-61.5 47t-75.5 17t-75.5 -17t-61.5 -47t-41.5 -69.5t-15.5 -84.5t15.5 -85t41.5 -70t61.5 -47t75.5 -17zM202 586h33l23 -51l-2 -2z" />
    <glyph glyph-name="uni1EDD" unicode="&#x1edd;" horiz-adv-x="374" 
d="M187 111q-37 0 -69 14t-56 38t-38 56t-14 69t14 69t38 56t56 38t69 14q41 0 79 -19q21 8 21 25q0 8 -3 12l-2 -3q-4 -5 -11 -5q-8 0 -12 5q-4 4 -4 11q0 6 3 10q5 5 10 6q13 3 23 -7q6 -7 6 -20q0 -27 -25 -37q42 -23 67 -63.5t25 -91.5q0 -37 -14 -69t-38 -56t-56 -38
t-69 -14zM187 118q30 0 56 13.5t45.5 36.5t31 54t11.5 66t-11.5 66t-31 54t-45.5 36.5t-56 13.5t-56 -13.5t-45.5 -36.5t-31 -54t-11.5 -66t11.5 -66t31 -54t45.5 -36.5t56 -13.5zM141 553h33l23 -51l-2 -2z" />
    <glyph glyph-name="uni1EDE" unicode="&#x1ede;" horiz-adv-x="466" 
d="M238 60q-47 0 -88.5 18t-72.5 49t-49 72.5t-18 88.5t18 88.5t49 72.5t72.5 49t88.5 18q48 0 93 -20q21 8 21 25q0 8 -3 12l-2 -3q-4 -5 -11 -5q-8 0 -12 5q-4 4 -4 10q0 7 3 11q5 5 10 6q13 3 23 -7q6 -7 6 -20q0 -27 -25 -37q57 -28 93 -82.5t36 -122.5q0 -47 -18 -88.5
t-49 -72.5t-72.5 -49t-88.5 -18zM238 69q40 0 75.5 17t61.5 47t41.5 70t15.5 85t-15.5 84.5t-41.5 69.5t-61.5 47t-75.5 17t-75.5 -17t-61.5 -47t-41.5 -69.5t-15.5 -84.5t15.5 -85t41.5 -70t61.5 -47t75.5 -17zM267 593q14 -14 3 -31.5t-29 -28.5h-4q11 11 17.5 23t-1.5 25
q-2 5 -10 5q-10 0 -21 -11l-2 1q4 8 13 15.5t20 7.5q8 0 14 -6z" />
    <glyph glyph-name="uni1EDF" unicode="&#x1edf;" horiz-adv-x="374" 
d="M187 111q-37 0 -69 14t-56 38t-38 56t-14 69t14 69t38 56t56 38t69 14q41 0 79 -19q21 8 21 25q0 8 -3 12l-2 -3q-4 -5 -11 -5q-8 0 -12 5q-4 4 -4 11q0 6 3 10q5 5 10 6q13 3 23 -7q6 -7 6 -20q0 -27 -25 -37q42 -23 67 -63.5t25 -91.5q0 -37 -14 -69t-38 -56t-56 -38
t-69 -14zM187 118q30 0 56 13.5t45.5 36.5t31 54t11.5 66t-11.5 66t-31 54t-45.5 36.5t-56 13.5t-56 -13.5t-45.5 -36.5t-31 -54t-11.5 -66t11.5 -66t31 -54t45.5 -36.5t56 -13.5zM217 560q14 -14 3 -31.5t-29 -28.5h-4q11 11 17.5 23t-1.5 25q-2 5 -10 5q-10 0 -21 -11
l-2 1q4 8 13 15.5t20 7.5q8 0 14 -6z" />
    <glyph glyph-name="uni1EE0" unicode="&#x1ee0;" horiz-adv-x="466" 
d="M238 60q-47 0 -88.5 18t-72.5 49t-49 72.5t-18 88.5t18 88.5t49 72.5t72.5 49t88.5 18q48 0 93 -20q21 8 21 25q0 8 -3 12l-2 -3q-4 -5 -11 -5q-8 0 -12 5q-4 4 -4 10q0 7 3 11q5 5 10 6q13 3 23 -7q6 -7 6 -20q0 -27 -25 -37q57 -28 93 -82.5t36 -122.5q0 -47 -18 -88.5
t-49 -72.5t-72.5 -49t-88.5 -18zM238 69q40 0 75.5 17t61.5 47t41.5 70t15.5 85t-15.5 84.5t-41.5 69.5t-61.5 47t-75.5 17t-75.5 -17t-61.5 -47t-41.5 -69.5t-15.5 -84.5t15.5 -85t41.5 -70t61.5 -47t75.5 -17zM188 533q4 18 12 24t21 6q11 0 24 -3q17 -3 25 0t12 14h4
q-4 -14 -12.5 -23.5t-24.5 -9.5q-11 0 -21.5 3.5t-18.5 3.5q-6 0 -10.5 -3t-6.5 -12h-4z" />
    <glyph glyph-name="uni1EE1" unicode="&#x1ee1;" horiz-adv-x="374" 
d="M187 111q-37 0 -69 14t-56 38t-38 56t-14 69t14 69t38 56t56 38t69 14q41 0 79 -19q21 8 21 25q0 8 -3 12l-2 -3q-4 -5 -11 -5q-8 0 -12 5q-4 4 -4 11q0 6 3 10q5 5 10 6q13 3 23 -7q6 -7 6 -20q0 -27 -25 -37q42 -23 67 -63.5t25 -91.5q0 -37 -14 -69t-38 -56t-56 -38
t-69 -14zM187 118q30 0 56 13.5t45.5 36.5t31 54t11.5 66t-11.5 66t-31 54t-45.5 36.5t-56 13.5t-56 -13.5t-45.5 -36.5t-31 -54t-11.5 -66t11.5 -66t31 -54t45.5 -36.5t56 -13.5zM142 500q4 18 12 24t21 6q11 0 24 -3q17 -3 25 0t12 14h4q-4 -14 -12.5 -23.5t-24.5 -9.5
q-11 0 -21.5 3.5t-18.5 3.5q-6 0 -10.5 -3t-6.5 -12h-4z" />
    <glyph glyph-name="uni1EE2" unicode="&#x1ee2;" horiz-adv-x="466" 
d="M238 60q-47 0 -88.5 18t-72.5 49t-49 72.5t-18 88.5t18 88.5t49 72.5t72.5 49t88.5 18q48 0 93 -20q21 8 21 25q0 8 -3 12l-2 -3q-4 -5 -11 -5q-8 0 -12 5q-4 4 -4 10q0 7 3 11q5 5 10 6q13 3 23 -7q6 -7 6 -20q0 -27 -25 -37q57 -28 93 -82.5t36 -122.5q0 -47 -18 -88.5
t-49 -72.5t-72.5 -49t-88.5 -18zM238 69q40 0 75.5 17t61.5 47t41.5 70t15.5 85t-15.5 84.5t-41.5 69.5t-61.5 47t-75.5 17t-75.5 -17t-61.5 -47t-41.5 -69.5t-15.5 -84.5t15.5 -85t41.5 -70t61.5 -47t75.5 -17zM238 -13q-6 0 -11 5q-5 4 -5 11q0 8 5 12q5 5 11 5q5 0 12 -5
q4 -4 4 -12q0 -7 -4 -11q-7 -5 -12 -5z" />
    <glyph glyph-name="uni1EE3" unicode="&#x1ee3;" horiz-adv-x="374" 
d="M187 111q-37 0 -69 14t-56 38t-38 56t-14 69t14 69t38 56t56 38t69 14q41 0 79 -19q21 8 21 25q0 8 -3 12l-2 -3q-4 -5 -11 -5q-8 0 -12 5q-4 4 -4 11q0 6 3 10q5 5 10 6q13 3 23 -7q6 -7 6 -20q0 -27 -25 -37q42 -23 67 -63.5t25 -91.5q0 -37 -14 -69t-38 -56t-56 -38
t-69 -14zM187 118q30 0 56 13.5t45.5 36.5t31 54t11.5 66t-11.5 66t-31 54t-45.5 36.5t-56 13.5t-56 -13.5t-45.5 -36.5t-31 -54t-11.5 -66t11.5 -66t31 -54t45.5 -36.5t56 -13.5zM187 37q-6 0 -11 5q-5 4 -5 11q0 8 5 12q5 5 11 5q5 0 12 -5q4 -4 4 -12q0 -7 -4 -11
q-7 -5 -12 -5z" />
    <glyph glyph-name="uni1EE4" unicode="&#x1ee4;" horiz-adv-x="388" 
d="M213 75q-32 0 -62 8t-53 25t-37 44t-14 65v177q0 38 -1 87t-8.5 98t-23.5 91.5t-46 66.5q-25 20 -52.5 32.5t-65.5 18.5v2q50 -8 98 -35t78 -69q17 -22 27 -55t16 -68.5t8 -70.5t2 -62q0 -55 -0.5 -110t-0.5 -110q0 -62 36.5 -95t98.5 -33q30 0 54.5 12.5t41.5 31.5
t26 41.5t9 42.5v281q-2 9 -5 16t-11 7h-1v2h41v-2q-9 0 -12.5 -10.5t-3.5 -25.5v-264q0 -28 -11 -53t-30 -44t-44 -30.5t-54 -11.5zM213 -13q-6 0 -11 5q-5 4 -5 11q0 8 5 12q5 5 11 5q5 0 12 -5q4 -4 4 -12q0 -7 -4 -11q-7 -5 -12 -5z" />
    <glyph glyph-name="uni1EE5" unicode="&#x1ee5;" horiz-adv-x="326" 
d="M180 111q-23 0 -49 4.5t-48 16t-36.5 32t-14.5 53.5v202q0 5 -1 12.5t-3.5 14.5t-6.5 12t-11 5v2h76v-2q-10 0 -16 -11.5t-6 -23.5v-218q0 -16 6 -32.5t19.5 -29.5t35.5 -21.5t55 -8.5q22 0 42 7t35.5 19t25 29t9.5 37v231q-2 9 -5 15.5t-11 6.5h-1v2h41v-2
q-9 0 -12.5 -10.5t-3.5 -24.5v-214q0 -28 -12 -47.5t-30 -32t-39 -18t-39 -5.5zM180 37q-6 0 -11 5q-5 4 -5 11q0 8 5 12q5 5 11 5q5 0 12 -5q4 -4 4 -12q0 -7 -4 -11q-7 -5 -12 -5z" />
    <glyph glyph-name="uni1EE6" unicode="&#x1ee6;" horiz-adv-x="388" 
d="M213 75q-32 0 -62 8t-53 25t-37 44t-14 65v177q0 38 -1 87t-8.5 98t-23.5 91.5t-46 66.5q-25 20 -52.5 32.5t-65.5 18.5v2q50 -8 98 -35t78 -69q17 -22 27 -55t16 -68.5t8 -70.5t2 -62q0 -55 -0.5 -110t-0.5 -110q0 -62 36.5 -95t98.5 -33q30 0 54.5 12.5t41.5 31.5
t26 41.5t9 42.5v281q-2 9 -5 16t-11 7h-1v2h41v-2q-9 0 -12.5 -10.5t-3.5 -25.5v-264q0 -28 -11 -53t-30 -44t-44 -30.5t-54 -11.5zM243 593q14 -14 3 -31.5t-29 -28.5h-4q11 11 17.5 23t-1.5 25q-2 5 -10 5q-10 0 -21 -11l-2 1q4 8 13 15.5t20 7.5q8 0 14 -6z" />
    <glyph glyph-name="uni1EE7" unicode="&#x1ee7;" horiz-adv-x="326" 
d="M180 111q-23 0 -49 4.5t-48 16t-36.5 32t-14.5 53.5v202q0 5 -1 12.5t-3.5 14.5t-6.5 12t-11 5v2h76v-2q-10 0 -16 -11.5t-6 -23.5v-218q0 -16 6 -32.5t19.5 -29.5t35.5 -21.5t55 -8.5q22 0 42 7t35.5 19t25 29t9.5 37v231q-2 9 -5 15.5t-11 6.5h-1v2h41v-2
q-9 0 -12.5 -10.5t-3.5 -24.5v-214q0 -28 -12 -47.5t-30 -32t-39 -18t-39 -5.5zM210 560q14 -14 3 -31.5t-29 -28.5h-4q11 11 17.5 23t-1.5 25q-2 5 -10 5q-10 0 -21 -11l-2 1q4 8 13 15.5t20 7.5q8 0 14 -6z" />
    <glyph glyph-name="uni1EE8" unicode="&#x1ee8;" horiz-adv-x="388" 
d="M213 75q-32 0 -62 8t-53 25t-37 44t-14 65v177q0 38 -1 87t-8.5 98t-23.5 91.5t-46 66.5q-25 20 -52.5 32.5t-65.5 18.5v2q50 -8 98 -35t78 -69q17 -22 27 -55t16 -68.5t8 -70.5t2 -62q0 -55 -0.5 -110t-0.5 -110q0 -62 36.5 -95t98.5 -33q30 0 54.5 12.5t41.5 31.5
t26 41.5t9 42.5v281q-2 9 -5 16t-11 7h-1v2h41v-2q-12 0 -15 -18q24 6 24 25q0 8 -3 12l-2 -3q-4 -5 -11 -5q-8 0 -12 5q-4 4 -4 10q0 7 3 11q5 5 10 6q13 3 23 -7q6 -7 6 -20q0 -14 -9.5 -26.5t-24.5 -12.5q-1 -4 -1 -13v-264q0 -28 -11 -53t-30 -44t-44 -30.5t-54 -11.5z
M205 535l23 51h33l-54 -53z" />
    <glyph glyph-name="uni1EE9" unicode="&#x1ee9;" horiz-adv-x="326" 
d="M180 111q-23 0 -49 4.5t-48 16t-36.5 32t-14.5 53.5v202q0 5 -1 12.5t-3.5 14.5t-6.5 12t-11 5v2h76v-2q-10 0 -16 -11.5t-6 -23.5v-218q0 -16 6 -32.5t19.5 -29.5t35.5 -21.5t55 -8.5q22 0 42 7t35.5 19t25 29t9.5 37v231q-2 9 -5 15.5t-11 6.5h-1v2h41v-2
q-11 0 -14 -17q22 6 22 25q0 8 -3 12l-2 -3q-4 -5 -11 -5q-8 0 -12 5q-4 4 -4 11q0 6 3 10q5 5 10 6q13 3 23 -7q6 -7 6 -20q0 -15 -9 -26t-24 -13q-1 -4 -1 -13v-214q0 -28 -12 -47.5t-30 -32t-39 -18t-39 -5.5zM181 502l23 51h33l-54 -53z" />
    <glyph glyph-name="uni1EEA" unicode="&#x1eea;" horiz-adv-x="388" 
d="M213 75q-32 0 -62 8t-53 25t-37 44t-14 65v177q0 38 -1 87t-8.5 98t-23.5 91.5t-46 66.5q-25 20 -52.5 32.5t-65.5 18.5v2q50 -8 98 -35t78 -69q17 -22 27 -55t16 -68.5t8 -70.5t2 -62q0 -55 -0.5 -110t-0.5 -110q0 -62 36.5 -95t98.5 -33q30 0 54.5 12.5t41.5 31.5
t26 41.5t9 42.5v281q-2 9 -5 16t-11 7h-1v2h41v-2q-12 0 -15 -18q24 6 24 25q0 8 -3 12l-2 -3q-4 -5 -11 -5q-8 0 -12 5q-4 4 -4 10q0 7 3 11q5 5 10 6q13 3 23 -7q6 -7 6 -20q0 -14 -9.5 -26.5t-24.5 -12.5q-1 -4 -1 -13v-264q0 -28 -11 -53t-30 -44t-44 -30.5t-54 -11.5z
M168 586h33l23 -51l-2 -2z" />
    <glyph glyph-name="uni1EEB" unicode="&#x1eeb;" horiz-adv-x="326" 
d="M180 111q-23 0 -49 4.5t-48 16t-36.5 32t-14.5 53.5v202q0 5 -1 12.5t-3.5 14.5t-6.5 12t-11 5v2h76v-2q-10 0 -16 -11.5t-6 -23.5v-218q0 -16 6 -32.5t19.5 -29.5t35.5 -21.5t55 -8.5q22 0 42 7t35.5 19t25 29t9.5 37v231q-2 9 -5 15.5t-11 6.5h-1v2h41v-2
q-11 0 -14 -17q22 6 22 25q0 8 -3 12l-2 -3q-4 -5 -11 -5q-8 0 -12 5q-4 4 -4 11q0 6 3 10q5 5 10 6q13 3 23 -7q6 -7 6 -20q0 -15 -9 -26t-24 -13q-1 -4 -1 -13v-214q0 -28 -12 -47.5t-30 -32t-39 -18t-39 -5.5zM138 553h33l23 -51l-2 -2z" />
    <glyph glyph-name="uni1EEC" unicode="&#x1eec;" horiz-adv-x="388" 
d="M213 75q-32 0 -62 8t-53 25t-37 44t-14 65v177q0 38 -1 87t-8.5 98t-23.5 91.5t-46 66.5q-25 20 -52.5 32.5t-65.5 18.5v2q50 -8 98 -35t78 -69q17 -22 27 -55t16 -68.5t8 -70.5t2 -62q0 -55 -0.5 -110t-0.5 -110q0 -62 36.5 -95t98.5 -33q30 0 54.5 12.5t41.5 31.5
t26 41.5t9 42.5v281q-2 9 -5 16t-11 7h-1v2h41v-2q-12 0 -15 -18q24 6 24 25q0 8 -3 12l-2 -3q-4 -5 -11 -5q-8 0 -12 5q-4 4 -4 10q0 7 3 11q5 5 10 6q13 3 23 -7q6 -7 6 -20q0 -14 -9.5 -26.5t-24.5 -12.5q-1 -4 -1 -13v-264q0 -28 -11 -53t-30 -44t-44 -30.5t-54 -11.5z
M243 593q14 -14 3 -31.5t-29 -28.5h-4q11 11 17.5 23t-1.5 25q-2 5 -10 5q-10 0 -21 -11l-2 1q4 8 13 15.5t20 7.5q8 0 14 -6z" />
    <glyph glyph-name="uni1EED" unicode="&#x1eed;" horiz-adv-x="326" 
d="M180 111q-23 0 -49 4.5t-48 16t-36.5 32t-14.5 53.5v202q0 5 -1 12.5t-3.5 14.5t-6.5 12t-11 5v2h76v-2q-10 0 -16 -11.5t-6 -23.5v-218q0 -16 6 -32.5t19.5 -29.5t35.5 -21.5t55 -8.5q22 0 42 7t35.5 19t25 29t9.5 37v231q-2 9 -5 15.5t-11 6.5h-1v2h41v-2
q-11 0 -14 -17q22 6 22 25q0 8 -3 12l-2 -3q-4 -5 -11 -5q-8 0 -12 5q-4 4 -4 11q0 6 3 10q5 5 10 6q13 3 23 -7q6 -7 6 -20q0 -15 -9 -26t-24 -13q-1 -4 -1 -13v-214q0 -28 -12 -47.5t-30 -32t-39 -18t-39 -5.5zM210 560q14 -14 3 -31.5t-29 -28.5h-4q11 11 17.5 23
t-1.5 25q-2 5 -10 5q-10 0 -21 -11l-2 1q4 8 13 15.5t20 7.5q8 0 14 -6z" />
    <glyph glyph-name="uni1EEE" unicode="&#x1eee;" horiz-adv-x="388" 
d="M213 75q-32 0 -62 8t-53 25t-37 44t-14 65v177q0 38 -1 87t-8.5 98t-23.5 91.5t-46 66.5q-25 20 -52.5 32.5t-65.5 18.5v2q50 -8 98 -35t78 -69q17 -22 27 -55t16 -68.5t8 -70.5t2 -62q0 -55 -0.5 -110t-0.5 -110q0 -62 36.5 -95t98.5 -33q30 0 54.5 12.5t41.5 31.5
t26 41.5t9 42.5v281q-2 9 -5 16t-11 7h-1v2h41v-2q-12 0 -15 -18q24 6 24 25q0 8 -3 12l-2 -3q-4 -5 -11 -5q-8 0 -12 5q-4 4 -4 10q0 7 3 11q5 5 10 6q13 3 23 -7q6 -7 6 -20q0 -14 -9.5 -26.5t-24.5 -12.5q-1 -4 -1 -13v-264q0 -28 -11 -53t-30 -44t-44 -30.5t-54 -11.5z
M225 541q-11 0 -21.5 3.5t-18.5 3.5q-6 0 -10.5 -3t-6.5 -12h-4q4 18 12 24t21 6q11 0 24 -3q17 -3 25 0t12 14h4q-4 -14 -12.5 -23.5t-24.5 -9.5z" />
    <glyph glyph-name="uni1EEF" unicode="&#x1eef;" horiz-adv-x="326" 
d="M180 111q-23 0 -49 4.5t-48 16t-36.5 32t-14.5 53.5v202q0 5 -1 12.5t-3.5 14.5t-6.5 12t-11 5v2h76v-2q-10 0 -16 -11.5t-6 -23.5v-218q0 -16 6 -32.5t19.5 -29.5t35.5 -21.5t55 -8.5q22 0 42 7t35.5 19t25 29t9.5 37v231q-2 9 -5 15.5t-11 6.5h-1v2h41v-2
q-11 0 -14 -17q22 6 22 25q0 8 -3 12l-2 -3q-4 -5 -11 -5q-8 0 -12 5q-4 4 -4 11q0 6 3 10q5 5 10 6q13 3 23 -7q6 -7 6 -20q0 -15 -9 -26t-24 -13q-1 -4 -1 -13v-214q0 -28 -12 -47.5t-30 -32t-39 -18t-39 -5.5zM192 508q-11 0 -21.5 3.5t-18.5 3.5q-6 0 -10.5 -3t-6.5 -12
h-4q4 18 12 24t21 6q11 0 24 -3q17 -3 25 0t12 14h4q-4 -14 -12.5 -23.5t-24.5 -9.5z" />
    <glyph glyph-name="uni1EF0" unicode="&#x1ef0;" horiz-adv-x="388" 
d="M213 75q-32 0 -62 8t-53 25t-37 44t-14 65v177q0 38 -1 87t-8.5 98t-23.5 91.5t-46 66.5q-25 20 -52.5 32.5t-65.5 18.5v2q50 -8 98 -35t78 -69q17 -22 27 -55t16 -68.5t8 -70.5t2 -62q0 -55 -0.5 -110t-0.5 -110q0 -62 36.5 -95t98.5 -33q30 0 54.5 12.5t41.5 31.5
t26 41.5t9 42.5v281q-2 9 -5 16t-11 7h-1v2h41v-2q-12 0 -15 -18q24 6 24 25q0 8 -3 12l-2 -3q-4 -5 -11 -5q-8 0 -12 5q-4 4 -4 10q0 7 3 11q5 5 10 6q13 3 23 -7q6 -7 6 -20q0 -14 -9.5 -26.5t-24.5 -12.5q-1 -4 -1 -13v-264q0 -28 -11 -53t-30 -44t-44 -30.5t-54 -11.5z
M213 -13q-6 0 -11 5q-5 4 -5 11q0 8 5 12q5 5 11 5q5 0 12 -5q4 -4 4 -12q0 -7 -4 -11q-7 -5 -12 -5z" />
    <glyph glyph-name="uni1EF1" unicode="&#x1ef1;" horiz-adv-x="326" 
d="M180 111q-23 0 -49 4.5t-48 16t-36.5 32t-14.5 53.5v202q0 5 -1 12.5t-3.5 14.5t-6.5 12t-11 5v2h76v-2q-10 0 -16 -11.5t-6 -23.5v-218q0 -16 6 -32.5t19.5 -29.5t35.5 -21.5t55 -8.5q22 0 42 7t35.5 19t25 29t9.5 37v231q-2 9 -5 15.5t-11 6.5h-1v2h41v-2
q-11 0 -14 -17q22 6 22 25q0 8 -3 12l-2 -3q-4 -5 -11 -5q-8 0 -12 5q-4 4 -4 11q0 6 3 10q5 5 10 6q13 3 23 -7q6 -7 6 -20q0 -15 -9 -26t-24 -13q-1 -4 -1 -13v-214q0 -28 -12 -47.5t-30 -32t-39 -18t-39 -5.5zM180 37q-6 0 -11 5q-5 4 -5 11q0 8 5 12q5 5 11 5q5 0 12 -5
q4 -4 4 -12q0 -7 -4 -11q-7 -5 -12 -5z" />
    <glyph glyph-name="Ygrave" unicode="&#x1ef2;" horiz-adv-x="339" 
d="M122 113q8 0 15 10q7 14 7 34v159l-78 149q-8 16 -17 31.5t-17 30.5q-16 27 -34.5 52t-42 44.5t-51 31t-61.5 11.5q-47 0 -93 -23.5t-72 -63.5q-22 -32 -30.5 -69.5t-1.5 -76.5q6 -35 23.5 -65.5t44 -53.5t59 -36t68.5 -13h14.5t14.5 2l1 -2q-15 -3 -31 -3
q-36 0 -69 13.5t-59 36.5t-44.5 54t-24.5 66q-6 40 2 78.5t31 70.5q31 44 78.5 66t100.5 22q54 0 92.5 -18.5t67.5 -48.5t51.5 -69t44.5 -80l64 -121l130 216q3 5 4 10.5t-4 5.5h-2v2h36v-2q-7 0 -16 -8.5t-12 -13.5l-135 -222v-173q0 -11 6.5 -22.5t15.5 -11.5v-2h-76v2z
M125 636h33l23 -51l-2 -2z" />
    <glyph glyph-name="ygrave" unicode="&#x1ef3;" horiz-adv-x="312" 
d="M160 500l-54 53h33l23 -51zM302 465v-2q-7 0 -16 -8.5t-12 -13.5l-104 -172v-121q0 -12 6.5 -23.5t15.5 -11.5v-2h-76v2q8 0 15 10q7 14 7 34v113l-89 170q-7 13 -14.5 18t-14.5 5v2h64v-2h-2q-3 0 -4 -3.5t3 -9.5l73 -141l15 -27l99 165q3 5 4 10.5t-4 5.5h-4v2h38z" />
    <glyph glyph-name="uni1EF4" unicode="&#x1ef4;" horiz-adv-x="339" 
d="M122 113q8 0 15 10q7 14 7 34v159l-78 149q-8 16 -17 31.5t-17 30.5q-16 27 -34.5 52t-42 44.5t-51 31t-61.5 11.5q-47 0 -93 -23.5t-72 -63.5q-22 -32 -30.5 -69.5t-1.5 -76.5q6 -35 23.5 -65.5t44 -53.5t59 -36t68.5 -13h14.5t14.5 2l1 -2q-15 -3 -31 -3
q-36 0 -69 13.5t-59 36.5t-44.5 54t-24.5 66q-6 40 2 78.5t31 70.5q31 44 78.5 66t100.5 22q54 0 92.5 -18.5t67.5 -48.5t51.5 -69t44.5 -80l64 -121l130 216q3 5 4 10.5t-4 5.5h-2v2h36v-2q-7 0 -16 -8.5t-12 -13.5l-135 -222v-173q0 -11 6.5 -22.5t15.5 -11.5v-2h-76v2z
M160 30q-6 0 -11 5q-5 4 -5 11q0 8 5 12q5 5 11 5q5 0 12 -5q4 -4 4 -12q0 -7 -4 -11q-7 -5 -12 -5z" />
    <glyph glyph-name="uni1EF5" unicode="&#x1ef5;" horiz-adv-x="312" 
d="M302 465v-2q-7 0 -16 -8.5t-12 -13.5l-104 -172v-121q0 -12 6.5 -23.5t15.5 -11.5v-2h-76v2q8 0 15 10q7 14 7 34v113l-89 170q-7 13 -14.5 18t-14.5 5v2h64v-2h-2q-3 0 -4 -3.5t3 -9.5l73 -141l15 -27l99 165q3 5 4 10.5t-4 5.5h-4v2h38zM154 37q-6 0 -11 5q-5 4 -5 11
q0 8 5 12q5 5 11 5q5 0 12 -5q4 -4 4 -12q0 -7 -4 -11q-7 -5 -12 -5z" />
    <glyph glyph-name="uni1EF6" unicode="&#x1ef6;" horiz-adv-x="339" 
d="M122 113q8 0 15 10q7 14 7 34v159l-78 149q-8 16 -17 31.5t-17 30.5q-16 27 -34.5 52t-42 44.5t-51 31t-61.5 11.5q-47 0 -93 -23.5t-72 -63.5q-22 -32 -30.5 -69.5t-1.5 -76.5q6 -35 23.5 -65.5t44 -53.5t59 -36t68.5 -13h14.5t14.5 2l1 -2q-15 -3 -31 -3
q-36 0 -69 13.5t-59 36.5t-44.5 54t-24.5 66q-6 40 2 78.5t31 70.5q31 44 78.5 66t100.5 22q54 0 92.5 -18.5t67.5 -48.5t51.5 -69t44.5 -80l64 -121l130 216q3 5 4 10.5t-4 5.5h-2v2h36v-2q-7 0 -16 -8.5t-12 -13.5l-135 -222v-173q0 -11 6.5 -22.5t15.5 -11.5v-2h-76v2z
M202 643q14 -14 3 -31.5t-29 -28.5h-4q11 11 17.5 23t-1.5 25q-2 5 -10 5q-10 0 -21 -11l-2 1q4 8 13 15.5t20 7.5q8 0 14 -6z" />
    <glyph glyph-name="uni1EF7" unicode="&#x1ef7;" horiz-adv-x="312" 
d="M302 465v-2q-7 0 -16 -8.5t-12 -13.5l-104 -172v-121q0 -12 6.5 -23.5t15.5 -11.5v-2h-76v2q8 0 15 10q7 14 7 34v113l-89 170q-7 13 -14.5 18t-14.5 5v2h64v-2h-2q-3 0 -4 -3.5t3 -9.5l73 -141l15 -27l99 165q3 5 4 10.5t-4 5.5h-4v2h38zM190 560q14 -14 3 -31.5
t-29 -28.5h-4q11 11 17.5 23t-1.5 25q-2 5 -10 5q-10 0 -21 -11l-2 1q4 8 13 15.5t20 7.5q8 0 14 -6z" />
    <glyph glyph-name="uni1EF8" unicode="&#x1ef8;" horiz-adv-x="339" 
d="M122 113q8 0 15 10q7 14 7 34v159l-78 149q-8 16 -17 31.5t-17 30.5q-16 27 -34.5 52t-42 44.5t-51 31t-61.5 11.5q-47 0 -93 -23.5t-72 -63.5q-22 -32 -30.5 -69.5t-1.5 -76.5q6 -35 23.5 -65.5t44 -53.5t59 -36t68.5 -13h14.5t14.5 2l1 -2q-15 -3 -31 -3
q-36 0 -69 13.5t-59 36.5t-44.5 54t-24.5 66q-6 40 2 78.5t31 70.5q31 44 78.5 66t100.5 22q54 0 92.5 -18.5t67.5 -48.5t51.5 -69t44.5 -80l64 -121l130 216q3 5 4 10.5t-4 5.5h-2v2h36v-2q-7 0 -16 -8.5t-12 -13.5l-135 -222v-173q0 -11 6.5 -22.5t15.5 -11.5v-2h-76v2z
M192 591q-11 0 -21.5 3.5t-18.5 3.5q-6 0 -10.5 -3t-6.5 -12h-4q4 18 12 24t21 6q11 0 24 -3q17 -3 25 0t12 14h4q-4 -14 -12.5 -23.5t-24.5 -9.5z" />
    <glyph glyph-name="uni1EF9" unicode="&#x1ef9;" horiz-adv-x="312" 
d="M302 465v-2q-7 0 -16 -8.5t-12 -13.5l-104 -172v-121q0 -12 6.5 -23.5t15.5 -11.5v-2h-76v2q8 0 15 10q7 14 7 34v113l-89 170q-7 13 -14.5 18t-14.5 5v2h64v-2h-2q-3 0 -4 -3.5t3 -9.5l73 -141l15 -27l99 165q3 5 4 10.5t-4 5.5h-4v2h38zM186 508q-11 0 -21.5 3.5
t-18.5 3.5q-6 0 -10.5 -3t-6.5 -12h-4q4 18 12 24t21 6q11 0 24 -3q17 -3 25 0t12 14h4q-4 -14 -12.5 -23.5t-24.5 -9.5z" />
    <glyph glyph-name="endash" unicode="&#x2013;" horiz-adv-x="194" 
d="M174 282h-154v12h154v-12z" />
    <glyph glyph-name="emdash" unicode="&#x2014;" horiz-adv-x="232" 
d="M20 294h192v-12h-192v12z" />
    </font>
</defs>
</svg>
